SplineFontDB: 3.2
FontName: AurebeshVectors
FullName: Aurebesh Vectors
FamilyName: Aurebesh Vectors
Weight: Book
Copyright: CC-0 public domain, AurekFonts
Version: 1.0
ItalicAngle: 0
UnderlinePosition: 52
UnderlineWidth: 35
Ascent: 1000
Descent: 0
InvalidEm: 0
sfntRevision: 0x00010000
LayerCount: 2
Layer: 0 0 "Back" 1
Layer: 1 0 "Fore" 0
XUID: [1021 764 -1482030943 22588]
StyleMap: 0x0040
FSType: 4
OS2Version: 3
OS2_WeightWidthSlopeOnly: 0
OS2_UseTypoMetrics: 0
CreationTime: 1594234218
ModificationTime: 1610991124
PfmFamily: 81
TTFWeight: 400
TTFWidth: 5
LineGap: 0
VLineGap: 0
Panose: 0 0 4 0 0 0 0 0 0 0
OS2TypoAscent: 714
OS2TypoAOffset: 0
OS2TypoDescent: 0
OS2TypoDOffset: 0
OS2TypoLinegap: 0
OS2WinAscent: 1286
OS2WinAOffset: 0
OS2WinDescent: 0
OS2WinDOffset: 0
HheadAscent: 1286
HheadAOffset: 0
HheadDescent: 0
HheadDOffset: 0
OS2SubXSize: 357
OS2SubYSize: 357
OS2SubXOff: 0
OS2SubYOff: 0
OS2SupXSize: 357
OS2SupYSize: 357
OS2SupXOff: 0
OS2SupYOff: 357
OS2StrikeYSize: 36
OS2StrikeYPos: 143
OS2CapHeight: 1000
OS2XHeight: 714
OS2Vendor: 'FSTR'
OS2CodePages: 00000001.00000000
OS2UnicodeRanges: 80000001.00000000.00000000.00000000
MarkAttachClasses: 1
DEI: 91125
LangName: 1033 "" "" "" "AurebeshVectors" "" "Version 1.0" "" "" "" "" "" "" "" "Creative Commons CC0 Public Domain Dedication" "http://creativecommons.org/publicdomain/zero/1.0/"
Encoding: UnicodeBmp
UnicodeInterp: none
NameList: AGL For New Fonts
DisplaySize: -72
AntiAlias: 1
FitToEm: 0
WinInfo: 0 25 10
BeginPrivate: 2
BlueValues 31 [0 0 714 714 714 714 1000 1000]
BlueShift 1 0
EndPrivate
BeginChars: 65539 83

StartChar: .notdef
Encoding: 65536 -1 0
Width: 691
Flags: W
LayerCount: 2
Fore
SplineSet
525 17 m 1
 274 350 l 1
 24 17 l 1
 525 17 l 1
17 24 m 1
 268 357 l 1
 17 690 l 1
 17 24 l 1
 17 24 l 1
532 24 m 1
 532 690 l 1
 281 357 l 1
 532 24 l 1
 532 24 l 1
274 364 m 1
 525 697 l 1
 24 697 l 1
 274 364 l 1
 274 364 l 1
0 0 m 1
 0 714 l 1
 549 714 l 1
 549 0 l 1
 0 0 l 1
EndSplineSet
Validated: 5
EndChar

StartChar: exclam
Encoding: 33 33 2
Width: 999
GlyphClass: 2
Flags: W
LayerCount: 2
Fore
SplineSet
214 143 m 1
 194 143 177.333007812 150 164 164 c 0
 150 178 143 194.666992188 143 214 c 0
 143 234 150 251 164 265 c 0
 178 279 194.666992188 286 214 286 c 0
 234 286 251 279 265 265 c 0
 279 251 286 234 286 214 c 0
 286 194 279 177.333007812 265 164 c 0
 251 150 234 143 214 143 c 1
 214 143 l 1
357 143 m 1
 337 143 320 150 306 164 c 0
 292 178 285.333007812 194.666992188 286 214 c 0
 286 234 292.666992188 251 306 265 c 0
 320 279 337 286 357 286 c 0
 376.333007812 286 393 279 407 265 c 0
 421 251 428.333007812 234 429 214 c 0
 429 194 421.666992188 177.333007812 407 164 c 0
 393 150 376.333007812 143 357 143 c 1
 357 143 l 1
500 286 m 1
 480 286 463 292.666992188 449 306 c 0
 435 320 428.333007812 337 429 357 c 0
 429 376.333007812 435.666992188 393 449 407 c 0
 463 421 480 428.333007812 500 429 c 0
 520 429 537 421.666992188 551 407 c 0
 565 393 571.666992188 376.333007812 571 357 c 0
 571 337 564.333007812 320 551 306 c 0
 537 292 520 285.333007812 500 286 c 1
 500 286 l 1
643 286 m 1
 623 286 606 292.666992188 592 306 c 0
 578 320 571 337 571 357 c 0
 571 376.333007812 578 393 592 407 c 0
 606 421 623 428.333007812 643 429 c 0
 662.333007812 429 679.333007812 421.666992188 694 407 c 0
 708 393 714.666992188 376.333007812 714 357 c 0
 714 337 707.333007812 320 694 306 c 0
 680 292 663 285.333007812 643 286 c 1
 643 286 l 1
214 571 m 1
 194 571 177.333007812 578 164 592 c 0
 150 606 143 623 143 643 c 0
 143 662.333007812 150 679.333007812 164 694 c 0
 178 708 194.666992188 714.666992188 214 714 c 0
 234 714 251 707.333007812 265 694 c 0
 279 680 286 663 286 643 c 0
 286 623 279 606 265 592 c 0
 251 578 234 571 214 571 c 1
 214 571 l 1
357 571 m 1
 337 571 320 578 306 592 c 0
 292 606 285.333007812 623 286 643 c 0
 286 662.333007812 292.666992188 679.333007812 306 694 c 0
 320 708 337 714.666992188 357 714 c 0
 376.333007812 714 393 707.333007812 407 694 c 0
 421 680 428.333007812 663 429 643 c 0
 429 623 421.666992188 606 407 592 c 0
 393 578 376.333007812 571 357 571 c 1
 357 571 l 1
500 714 m 1
 480 714 463 721 449 735 c 0
 435 749 428.333007812 766 429 786 c 0
 429 806 435.666992188 822.666992188 449 836 c 0
 463 850 480 857 500 857 c 0
 520 857 537 850 551 836 c 0
 565 822 571.666992188 805.333007812 571 786 c 0
 571 766.666992188 564.333007812 749.666992188 551 735 c 0
 537 721 520 714 500 714 c 1
 500 714 l 1
643 714 m 1
 623 714 606 721 592 735 c 0
 578 749 571 766 571 786 c 0
 571 806 578 822.666992188 592 836 c 0
 606 850 623 857 643 857 c 0
 662.333007812 857 679.333007812 850 694 836 c 0
 708 822 714.666992188 805.333007812 714 786 c 0
 714 766.666992188 707.333007812 749.666992188 694 735 c 0
 680 721 663 714 643 714 c 1
 643 714 l 1
EndSplineSet
Validated: 524325
EndChar

StartChar: quotedbl
Encoding: 34 34 3
Width: 999
GlyphClass: 2
Flags: W
LayerCount: 2
Fore
SplineSet
357 571 m 1
 337 571 320 578 306 592 c 0
 292 606 285.333007812 623 286 643 c 0
 286 662.333007812 292.666992188 679.333007812 306 694 c 0
 320 708 337 714.666992188 357 714 c 0
 376.333007812 714 393 707.333007812 407 694 c 0
 421 680 428.333007812 663 429 643 c 0
 429 623 421.666992188 606 407 592 c 0
 393 578 376.333007812 571 357 571 c 1
 357 571 l 1
500 571 m 1
 480 571 463 578 449 592 c 0
 435 606 428.333007812 623 429 643 c 0
 429 662.333007812 435.666992188 679.333007812 449 694 c 0
 463 708 480 714.666992188 500 714 c 0
 520 714 537 707.333007812 551 694 c 0
 565 680 571.666992188 663 571 643 c 0
 571 623 564.333007812 606 551 592 c 0
 537 578 520 571 500 571 c 1
 500 571 l 1
214 714 m 1
 194 714 177.333007812 721 164 735 c 0
 150 749 143 766 143 786 c 0
 143 806 150 822.666992188 164 836 c 0
 178 850 194.666992188 857 214 857 c 0
 234 857 251 850 265 836 c 0
 279 822 286 805.333007812 286 786 c 0
 286 766.666992188 279 749.666992188 265 735 c 0
 251 721 234 714 214 714 c 1
 214 714 l 1
643 714 m 1
 623 714 606 721 592 735 c 0
 578 749 571 766 571 786 c 0
 571 806 578 822.666992188 592 836 c 0
 606 850 623 857 643 857 c 0
 662.333007812 857 679.333007812 850 694 836 c 0
 708 822 714.666992188 805.333007812 714 786 c 0
 714 766.666992188 707.333007812 749.666992188 694 735 c 0
 680 721 663 714 643 714 c 1
 643 714 l 1
214 857 m 1
 194 857 177.333007812 864 164 878 c 0
 150 892 143 909 143 929 c 0
 143 949 150 965.666992188 164 979 c 0
 178 993 194.666992188 1000 214 1000 c 0
 234 1000 251 993 265 979 c 0
 279 965 286 948.333007812 286 929 c 0
 286 909 279 892 265 878 c 0
 251 864 234 857 214 857 c 1
 214 857 l 1
643 857 m 1
 623 857 606 864 592 878 c 0
 578 892 571 909 571 929 c 0
 571 949 578 965.666992188 592 979 c 0
 606 993 623 1000 643 1000 c 0
 662.333007812 1000 679.333007812 993 694 979 c 0
 708 965 714.666992188 948.333007812 714 929 c 0
 714 909 707.333007812 892 694 878 c 0
 680 864 663 857 643 857 c 1
 643 857 l 1
EndSplineSet
Validated: 524325
EndChar

StartChar: dollar
Encoding: 36 36 4
Width: 999
GlyphClass: 2
Flags: W
LayerCount: 2
Fore
SplineSet
500 143 m 1
 480 143 463 150 449 164 c 0
 435 178 428.333007812 194.666992188 429 214 c 0
 429 234 435.666992188 251 449 265 c 0
 463 279 480 286 500 286 c 0
 520 286 537 279 551 265 c 0
 565 251 571.666992188 234 571 214 c 0
 571 194 564.333007812 177.333007812 551 164 c 0
 537 150 520 143 500 143 c 1
 500 143 l 1
500 286 m 1
 480 286 463 292.666992188 449 306 c 0
 435 320 428.333007812 337 429 357 c 0
 429 376.333007812 435.666992188 393 449 407 c 0
 463 421 480 428.333007812 500 429 c 0
 520 429 537 421.666992188 551 407 c 0
 565 393 571.666992188 376.333007812 571 357 c 0
 571 337 564.333007812 320 551 306 c 0
 537 292 520 285.333007812 500 286 c 1
 500 286 l 1
643 429 m 1
 623 429 606 435.666992188 592 449 c 0
 578 463 571 480 571 500 c 0
 571 520 578 537 592 551 c 0
 606 565 623 571.666992188 643 571 c 0
 662.333007812 571 679.333007812 564.333007812 694 551 c 0
 708 537 714.666992188 520 714 500 c 0
 714 480 707.333007812 463 694 449 c 0
 680 435 663 428.333007812 643 429 c 1
 643 429 l 1
357 571 m 1
 337 571 320 578 306 592 c 0
 292 606 285.333007812 623 286 643 c 0
 286 662.333007812 292.666992188 679.333007812 306 694 c 0
 320 708 337 714.666992188 357 714 c 0
 376.333007812 714 393 707.333007812 407 694 c 0
 421 680 428.333007812 663 429 643 c 0
 429 623 421.666992188 606 407 592 c 0
 393 578 376.333007812 571 357 571 c 1
 357 571 l 1
643 571 m 1
 623 571 606 578 592 592 c 0
 578 606 571 623 571 643 c 0
 571 662.333007812 578 679.333007812 592 694 c 0
 606 708 623 714.666992188 643 714 c 0
 662.333007812 714 679.333007812 707.333007812 694 694 c 0
 708 680 714.666992188 663 714 643 c 0
 714 623 707.333007812 606 694 592 c 0
 680 578 663 571 643 571 c 1
 643 571 l 1
214 714 m 1
 194 714 177.333007812 721 164 735 c 0
 150 749 143 766 143 786 c 0
 143 806 150 822.666992188 164 836 c 0
 178 850 194.666992188 857 214 857 c 0
 234 857 251 850 265 836 c 0
 279 822 286 805.333007812 286 786 c 0
 286 766.666992188 279 749.666992188 265 735 c 0
 251 721 234 714 214 714 c 1
 214 714 l 1
357 714 m 1
 337 714 320 721 306 735 c 0
 292 749 285.333007812 766 286 786 c 0
 286 806 292.666992188 822.666992188 306 836 c 0
 320 850 337 857 357 857 c 0
 376.333007812 857 393 850 407 836 c 0
 421 822 428.333007812 805.333007812 429 786 c 0
 429 766.666992188 421.666992188 749.666992188 407 735 c 0
 393 721 376.333007812 714 357 714 c 1
 357 714 l 1
500 714 m 1
 480 714 463 721 449 735 c 0
 435 749 428.333007812 766 429 786 c 0
 429 806 435.666992188 822.666992188 449 836 c 0
 463 850 480 857 500 857 c 0
 520 857 537 850 551 836 c 0
 565 822 571.666992188 805.333007812 571 786 c 0
 571 766.666992188 564.333007812 749.666992188 551 735 c 0
 537 721 520 714 500 714 c 1
 500 714 l 1
643 714 m 1
 623 714 606 721 592 735 c 0
 578 749 571 766 571 786 c 0
 571 806 578 822.666992188 592 836 c 0
 606 850 623 857 643 857 c 0
 662.333007812 857 679.333007812 850 694 836 c 0
 708 822 714.666992188 805.333007812 714 786 c 0
 714 766.666992188 707.333007812 749.666992188 694 735 c 0
 680 721 663 714 643 714 c 1
 643 714 l 1
786 714 m 1
 766.666992188 714 749.666992188 721 735 735 c 0
 721 749 714 766 714 786 c 0
 714 806 721 822.666992188 735 836 c 0
 749 850 766 857 786 857 c 0
 806 857 822.666992188 850 836 836 c 0
 850 822 857 805.333007812 857 786 c 0
 857 766.666992188 850 749.666992188 836 735 c 0
 822 721 805.333007812 714 786 714 c 1
 786 714 l 1
357 857 m 1
 337 857 320 864 306 878 c 0
 292 892 285.333007812 909 286 929 c 0
 286 949 292.666992188 965.666992188 306 979 c 0
 320 993 337 1000 357 1000 c 0
 376.333007812 1000 393 993 407 979 c 0
 421 965 428.333007812 948.333007812 429 929 c 0
 429 909 421.666992188 892 407 878 c 0
 393 864 376.333007812 857 357 857 c 1
 357 857 l 1
EndSplineSet
Validated: 524325
EndChar

StartChar: quotesingle
Encoding: 39 39 5
Width: 999
GlyphClass: 2
Flags: W
LayerCount: 2
Fore
SplineSet
500 571 m 1
 480 571 463 578 449 592 c 0
 435 606 428.333007812 623 429 643 c 0
 429 662.333007812 435.666992188 679.333007812 449 694 c 0
 463 708 480 714.666992188 500 714 c 0
 520 714 537 707.333007812 551 694 c 0
 565 680 571.666992188 663 571 643 c 0
 571 623 564.333007812 606 551 592 c 0
 537 578 520 571 500 571 c 1
 500 571 l 1
500 714 m 1
 480 714 463 721 449 735 c 0
 435 749 428.333007812 766 429 786 c 0
 429 806 435.666992188 822.666992188 449 836 c 0
 463 850 480 857 500 857 c 0
 520 857 537 850 551 836 c 0
 565 822 571.666992188 805.333007812 571 786 c 0
 571 766.666992188 564.333007812 749.666992188 551 735 c 0
 537 721 520 714 500 714 c 1
 500 714 l 1
357 857 m 1
 337 857 320 864 306 878 c 0
 292 892 285.333007812 909 286 929 c 0
 286 949 292.666992188 965.666992188 306 979 c 0
 320 993 337 1000 357 1000 c 0
 376.333007812 1000 393 993 407 979 c 0
 421 965 428.333007812 948.333007812 429 929 c 0
 429 909 421.666992188 892 407 878 c 0
 393 864 376.333007812 857 357 857 c 1
 357 857 l 1
500 857 m 1
 480 857 463 864 449 878 c 0
 435 892 428.333007812 909 429 929 c 0
 429 949 435.666992188 965.666992188 449 979 c 0
 463 993 480 1000 500 1000 c 0
 520 1000 537 993 551 979 c 0
 565 965 571.666992188 948.333007812 571 929 c 0
 571 909 564.333007812 892 551 878 c 0
 537 864 520 857 500 857 c 1
 500 857 l 1
EndSplineSet
Validated: 524325
EndChar

StartChar: parenleft
Encoding: 40 40 6
Width: 999
GlyphClass: 2
Flags: W
LayerCount: 2
Fore
SplineSet
786 0 m 1
 766.666992188 0 749.666992188 7 735 21 c 0
 721 35 714 51.6669921875 714 71 c 0
 714 91 721 107.666992188 735 121 c 0
 749 135 766 142.333007812 786 143 c 0
 806 143 822.666992188 135.666992188 836 121 c 0
 850 107 857 90.3330078125 857 71 c 0
 857 51.6669921875 850 35 836 21 c 0
 822 7 805.333007812 0 786 0 c 1
 786 0 l 1
786 143 m 1
 766.666992188 143 749.666992188 150 735 164 c 0
 721 178 714 194.666992188 714 214 c 0
 714 234 721 251 735 265 c 0
 749 279 766 286 786 286 c 0
 806 286 822.666992188 279 836 265 c 0
 850 251 857 234 857 214 c 0
 857 194 850 177.333007812 836 164 c 0
 822 150 805.333007812 143 786 143 c 1
 786 143 l 1
786 286 m 1
 766.666992188 286 749.666992188 292.666992188 735 306 c 0
 721 320 714 337 714 357 c 0
 714 376.333007812 721 393 735 407 c 0
 749 421 766 428.333007812 786 429 c 0
 806 429 822.666992188 421.666992188 836 407 c 0
 850 393 857 376.333007812 857 357 c 0
 857 337 850 320 836 306 c 0
 822 292 805.333007812 285.333007812 786 286 c 1
 786 286 l 1
357 429 m 1
 337 429 320 435.666992188 306 449 c 0
 292 463 285.333007812 480 286 500 c 0
 286 520 292.666992188 537 306 551 c 0
 320 565 337 571.666992188 357 571 c 0
 376.333007812 571 393 564.333007812 407 551 c 0
 421 537 428.333007812 520 429 500 c 0
 429 480 421.666992188 463 407 449 c 0
 393 435 376.333007812 428.333007812 357 429 c 1
 357 429 l 1
500 429 m 1
 480 429 463 435.666992188 449 449 c 0
 435 463 428.333007812 480 429 500 c 0
 429 520 435.666992188 537 449 551 c 0
 463 565 480 571.666992188 500 571 c 0
 520 571 537 564.333007812 551 551 c 0
 565 537 571.666992188 520 571 500 c 0
 571 480 564.333007812 463 551 449 c 0
 537 435 520 428.333007812 500 429 c 1
 500 429 l 1
643 429 m 1
 623 429 606 435.666992188 592 449 c 0
 578 463 571 480 571 500 c 0
 571 520 578 537 592 551 c 0
 606 565 623 571.666992188 643 571 c 0
 662.333007812 571 679.333007812 564.333007812 694 551 c 0
 708 537 714.666992188 520 714 500 c 0
 714 480 707.333007812 463 694 449 c 0
 680 435 663 428.333007812 643 429 c 1
 643 429 l 1
786 429 m 1
 766.666992188 429 749.666992188 435.666992188 735 449 c 0
 721 463 714 480 714 500 c 0
 714 520 721 537 735 551 c 0
 749 565 766 571.666992188 786 571 c 0
 806 571 822.666992188 564.333007812 836 551 c 0
 850 537 857 520 857 500 c 0
 857 480 850 463 836 449 c 0
 822 435 805.333007812 428.333007812 786 429 c 1
 786 429 l 1
786 571 m 1
 766.666992188 571 749.666992188 578 735 592 c 0
 721 606 714 623 714 643 c 0
 714 662.333007812 721 679.333007812 735 694 c 0
 749 708 766 714.666992188 786 714 c 0
 806 714 822.666992188 707.333007812 836 694 c 0
 850 680 857 663 857 643 c 0
 857 623 850 606 836 592 c 0
 822 578 805.333007812 571 786 571 c 1
 786 571 l 1
786 714 m 1
 766.666992188 714 749.666992188 721 735 735 c 0
 721 749 714 766 714 786 c 0
 714 806 721 822.666992188 735 836 c 0
 749 850 766 857 786 857 c 0
 806 857 822.666992188 850 836 836 c 0
 850 822 857 805.333007812 857 786 c 0
 857 766.666992188 850 749.666992188 836 735 c 0
 822 721 805.333007812 714 786 714 c 1
 786 714 l 1
786 857 m 1
 766.666992188 857 749.666992188 864 735 878 c 0
 721 892 714 909 714 929 c 0
 714 949 721 965.666992188 735 979 c 0
 749 993 766 1000 786 1000 c 0
 806 1000 822.666992188 993 836 979 c 0
 850 965 857 948.333007812 857 929 c 0
 857 909 850 892 836 878 c 0
 822 864 805.333007812 857 786 857 c 1
 786 857 l 1
EndSplineSet
Validated: 524325
EndChar

StartChar: parenright
Encoding: 41 41 7
Width: 999
GlyphClass: 2
Flags: W
LayerCount: 2
Fore
SplineSet
71 0 m 1
 51.6669921875 0 35 7 21 21 c 0
 7 35 0 51.6669921875 0 71 c 0
 0 91 7 107.666992188 21 121 c 0
 35 135 51.6669921875 142.333007812 71 143 c 0
 91 143 107.666992188 135.666992188 121 121 c 0
 135 107 142.333007812 90.3330078125 143 71 c 0
 143 51.6669921875 135.666992188 35 121 21 c 0
 107 7 90.3330078125 0 71 0 c 1
 71 0 l 1
71 143 m 1
 51.6669921875 143 35 150 21 164 c 0
 7 178 0 194.666992188 0 214 c 0
 0 234 7 251 21 265 c 0
 35 279 51.6669921875 286 71 286 c 0
 91 286 107.666992188 279 121 265 c 0
 135 251 142.333007812 234 143 214 c 0
 143 194 135.666992188 177.333007812 121 164 c 0
 107 150 90.3330078125 143 71 143 c 1
 71 143 l 1
71 286 m 1
 51.6669921875 286 35 292.666992188 21 306 c 0
 7 320 0 337 0 357 c 0
 0 376.333007812 7 393 21 407 c 0
 35 421 51.6669921875 428.333007812 71 429 c 0
 91 429 107.666992188 421.666992188 121 407 c 0
 135 393 142.333007812 376.333007812 143 357 c 0
 143 337 135.666992188 320 121 306 c 0
 107 292 90.3330078125 285.333007812 71 286 c 1
 71 286 l 1
71 429 m 1
 51.6669921875 429 35 435.666992188 21 449 c 0
 7 463 0 480 0 500 c 0
 0 520 7 537 21 551 c 0
 35 565 51.6669921875 571.666992188 71 571 c 0
 91 571 107.666992188 564.333007812 121 551 c 0
 135 537 142.333007812 520 143 500 c 0
 143 480 135.666992188 463 121 449 c 0
 107 435 90.3330078125 428.333007812 71 429 c 1
 71 429 l 1
214 429 m 1
 194 429 177.333007812 435.666992188 164 449 c 0
 150 463 143 480 143 500 c 0
 143 520 150 537 164 551 c 0
 178 565 194.666992188 571.666992188 214 571 c 0
 234 571 251 564.333007812 265 551 c 0
 279 537 286 520 286 500 c 0
 286 480 279 463 265 449 c 0
 251 435 234 428.333007812 214 429 c 1
 214 429 l 1
357 429 m 1
 337 429 320 435.666992188 306 449 c 0
 292 463 285.333007812 480 286 500 c 0
 286 520 292.666992188 537 306 551 c 0
 320 565 337 571.666992188 357 571 c 0
 376.333007812 571 393 564.333007812 407 551 c 0
 421 537 428.333007812 520 429 500 c 0
 429 480 421.666992188 463 407 449 c 0
 393 435 376.333007812 428.333007812 357 429 c 1
 357 429 l 1
500 429 m 1
 480 429 463 435.666992188 449 449 c 0
 435 463 428.333007812 480 429 500 c 0
 429 520 435.666992188 537 449 551 c 0
 463 565 480 571.666992188 500 571 c 0
 520 571 537 564.333007812 551 551 c 0
 565 537 571.666992188 520 571 500 c 0
 571 480 564.333007812 463 551 449 c 0
 537 435 520 428.333007812 500 429 c 1
 500 429 l 1
71 571 m 1
 51.6669921875 571 35 578 21 592 c 0
 7 606 0 623 0 643 c 0
 0 662.333007812 7 679.333007812 21 694 c 0
 35 708 51.6669921875 714.666992188 71 714 c 0
 91 714 107.666992188 707.333007812 121 694 c 0
 135 680 142.333007812 663 143 643 c 0
 143 623 135.666992188 606 121 592 c 0
 107 578 90.3330078125 571 71 571 c 1
 71 571 l 1
71 714 m 1
 51.6669921875 714 35 721 21 735 c 0
 7 749 0 766 0 786 c 0
 0 806 7 822.666992188 21 836 c 0
 35 850 51.6669921875 857 71 857 c 0
 91 857 107.666992188 850 121 836 c 0
 135 822 142.333007812 805.333007812 143 786 c 0
 143 766.666992188 135.666992188 749.666992188 121 735 c 0
 107 721 90.3330078125 714 71 714 c 1
 71 714 l 1
71 857 m 1
 51.6669921875 857 35 864 21 878 c 0
 7 892 0 909 0 929 c 0
 0 949 7 965.666992188 21 979 c 0
 35 993 51.6669921875 1000 71 1000 c 0
 91 1000 107.666992188 993 121 979 c 0
 135 965 142.333007812 948.333007812 143 929 c 0
 143 909 135.666992188 892 121 878 c 0
 107 864 90.3330078125 857 71 857 c 1
 71 857 l 1
EndSplineSet
Validated: 524325
EndChar

StartChar: comma
Encoding: 44 44 8
Width: 999
GlyphClass: 2
Flags: W
LayerCount: 2
Fore
SplineSet
357 0 m 1
 337 0 320 7 306 21 c 0
 292 35 285.333007812 51.6669921875 286 71 c 0
 286 91 292.666992188 107.666992188 306 121 c 0
 320 135 337 142.333007812 357 143 c 0
 376.333007812 143 393 135.666992188 407 121 c 0
 421 107 428.333007812 90.3330078125 429 71 c 0
 429 51.6669921875 421.666992188 35 407 21 c 0
 393 7 376.333007812 0 357 0 c 1
 357 0 l 1
357 143 m 1
 337 143 320 150 306 164 c 0
 292 178 285.333007812 194.666992188 286 214 c 0
 286 234 292.666992188 251 306 265 c 0
 320 279 337 286 357 286 c 0
 376.333007812 286 393 279 407 265 c 0
 421 251 428.333007812 234 429 214 c 0
 429 194 421.666992188 177.333007812 407 164 c 0
 393 150 376.333007812 143 357 143 c 1
 357 143 l 1
EndSplineSet
Validated: 524325
EndChar

StartChar: period
Encoding: 46 46 9
Width: 999
GlyphClass: 2
Flags: W
LayerCount: 2
Fore
SplineSet
214 0 m 1
 194 0 177.333007812 7 164 21 c 0
 150 35 143 51.6669921875 143 71 c 0
 143 91 150 107.666992188 164 121 c 0
 178 135 194.666992188 142.333007812 214 143 c 0
 234 143 251 135.666992188 265 121 c 0
 279 107 286 90.3330078125 286 71 c 0
 286 51.6669921875 279 35 265 21 c 0
 251 7 234 0 214 0 c 1
 214 0 l 1
500 0 m 1
 480 0 463 7 449 21 c 0
 435 35 428.333007812 51.6669921875 429 71 c 0
 429 91 435.666992188 107.666992188 449 121 c 0
 463 135 480 142.333007812 500 143 c 0
 520 143 537 135.666992188 551 121 c 0
 565 107 571.666992188 90.3330078125 571 71 c 0
 571 51.6669921875 564.333007812 35 551 21 c 0
 537 7 520 0 500 0 c 1
 500 0 l 1
214 143 m 1
 194 143 177.333007812 150 164 164 c 0
 150 178 143 194.666992188 143 214 c 0
 143 234 150 251 164 265 c 0
 178 279 194.666992188 286 214 286 c 0
 234 286 251 279 265 265 c 0
 279 251 286 234 286 214 c 0
 286 194 279 177.333007812 265 164 c 0
 251 150 234 143 214 143 c 1
 214 143 l 1
500 143 m 1
 480 143 463 150 449 164 c 0
 435 178 428.333007812 194.666992188 429 214 c 0
 429 234 435.666992188 251 449 265 c 0
 463 279 480 286 500 286 c 0
 520 286 537 279 551 265 c 0
 565 251 571.666992188 234 571 214 c 0
 571 194 564.333007812 177.333007812 551 164 c 0
 537 150 520 143 500 143 c 1
 500 143 l 1
EndSplineSet
Validated: 524325
EndChar

StartChar: zero
Encoding: 48 48 10
Width: 999
GlyphClass: 2
Flags: W
LayerCount: 2
Fore
SplineSet
643 286 m 1
 623 286 606 292.666992188 592 306 c 0
 578 320 571 337 571 357 c 0
 571 376.333007812 578 393 592 407 c 0
 606 421 623 428.333007812 643 429 c 0
 662.333007812 429 679.333007812 421.666992188 694 407 c 0
 708 393 714.666992188 376.333007812 714 357 c 0
 714 337 707.333007812 320 694 306 c 0
 680 292 663 285.333007812 643 286 c 1
 643 286 l 1
71 571 m 1
 51.6669921875 571 35 578 21 592 c 0
 7 606 0 623 0 643 c 0
 0 662.333007812 7 679.333007812 21 694 c 0
 35 708 51.6669921875 714.666992188 71 714 c 0
 91 714 107.666992188 707.333007812 121 694 c 0
 135 680 142.333007812 663 143 643 c 0
 143 623 135.666992188 606 121 592 c 0
 107 578 90.3330078125 571 71 571 c 1
 71 571 l 1
214 571 m 1
 194 571 177.333007812 578 164 592 c 0
 150 606 143 623 143 643 c 0
 143 662.333007812 150 679.333007812 164 694 c 0
 178 708 194.666992188 714.666992188 214 714 c 0
 234 714 251 707.333007812 265 694 c 0
 279 680 286 663 286 643 c 0
 286 623 279 606 265 592 c 0
 251 578 234 571 214 571 c 1
 214 571 l 1
71 857 m 1
 51.6669921875 857 35 864 21 878 c 0
 7 892 0 909 0 929 c 0
 0 949 7 965.666992188 21 979 c 0
 35 993 51.6669921875 1000 71 1000 c 0
 91 1000 107.666992188 993 121 979 c 0
 135 965 142.333007812 948.333007812 143 929 c 0
 143 909 135.666992188 892 121 878 c 0
 107 864 90.3330078125 857 71 857 c 1
 71 857 l 1
214 857 m 1
 194 857 177.333007812 864 164 878 c 0
 150 892 143 909 143 929 c 0
 143 949 150 965.666992188 164 979 c 0
 178 993 194.666992188 1000 214 1000 c 0
 234 1000 251 993 265 979 c 0
 279 965 286 948.333007812 286 929 c 0
 286 909 279 892 265 878 c 0
 251 864 234 857 214 857 c 1
 214 857 l 1
EndSplineSet
Validated: 524325
EndChar

StartChar: one
Encoding: 49 49 11
Width: 999
GlyphClass: 2
Flags: W
LayerCount: 2
Fore
SplineSet
643 286 m 1
 623 286 606 292.666992188 592 306 c 0
 578 320 571 337 571 357 c 0
 571 376.333007812 578 393 592 407 c 0
 606 421 623 428.333007812 643 429 c 0
 662.333007812 429 679.333007812 421.666992188 694 407 c 0
 708 393 714.666992188 376.333007812 714 357 c 0
 714 337 707.333007812 320 694 306 c 0
 680 292 663 285.333007812 643 286 c 1
 643 286 l 1
786 286 m 1
 766.666992188 286 749.666992188 292.666992188 735 306 c 0
 721 320 714 337 714 357 c 0
 714 376.333007812 721 393 735 407 c 0
 749 421 766 428.333007812 786 429 c 0
 806 429 822.666992188 421.666992188 836 407 c 0
 850 393 857 376.333007812 857 357 c 0
 857 337 850 320 836 306 c 0
 822 292 805.333007812 285.333007812 786 286 c 1
 786 286 l 1
214 571 m 1
 194 571 177.333007812 578 164 592 c 0
 150 606 143 623 143 643 c 0
 143 662.333007812 150 679.333007812 164 694 c 0
 178 708 194.666992188 714.666992188 214 714 c 0
 234 714 251 707.333007812 265 694 c 0
 279 680 286 663 286 643 c 0
 286 623 279 606 265 592 c 0
 251 578 234 571 214 571 c 1
 214 571 l 1
214 714 m 1
 194 714 177.333007812 721 164 735 c 0
 150 749 143 766 143 786 c 0
 143 806 150 822.666992188 164 836 c 0
 178 850 194.666992188 857 214 857 c 0
 234 857 251 850 265 836 c 0
 279 822 286 805.333007812 286 786 c 0
 286 766.666992188 279 749.666992188 265 735 c 0
 251 721 234 714 214 714 c 1
 214 714 l 1
214 857 m 1
 194 857 177.333007812 864 164 878 c 0
 150 892 143 909 143 929 c 0
 143 949 150 965.666992188 164 979 c 0
 178 993 194.666992188 1000 214 1000 c 0
 234 1000 251 993 265 979 c 0
 279 965 286 948.333007812 286 929 c 0
 286 909 279 892 265 878 c 0
 251 864 234 857 214 857 c 1
 214 857 l 1
EndSplineSet
Validated: 524325
EndChar

StartChar: two
Encoding: 50 50 12
Width: 999
GlyphClass: 2
Flags: W
LayerCount: 2
Fore
SplineSet
786 143 m 1
 766.666992188 143 749.666992188 150 735 164 c 0
 721 178 714 194.666992188 714 214 c 0
 714 234 721 251 735 265 c 0
 749 279 766 286 786 286 c 0
 806 286 822.666992188 279 836 265 c 0
 850 251 857 234 857 214 c 0
 857 194 850 177.333007812 836 164 c 0
 822 150 805.333007812 143 786 143 c 1
 786 143 l 1
643 286 m 1
 623 286 606 292.666992188 592 306 c 0
 578 320 571 337 571 357 c 0
 571 376.333007812 578 393 592 407 c 0
 606 421 623 428.333007812 643 429 c 0
 662.333007812 429 679.333007812 421.666992188 694 407 c 0
 708 393 714.666992188 376.333007812 714 357 c 0
 714 337 707.333007812 320 694 306 c 0
 680 292 663 285.333007812 643 286 c 1
 643 286 l 1
786 286 m 1
 766.666992188 286 749.666992188 292.666992188 735 306 c 0
 721 320 714 337 714 357 c 0
 714 376.333007812 721 393 735 407 c 0
 749 421 766 428.333007812 786 429 c 0
 806 429 822.666992188 421.666992188 836 407 c 0
 850 393 857 376.333007812 857 357 c 0
 857 337 850 320 836 306 c 0
 822 292 805.333007812 285.333007812 786 286 c 1
 786 286 l 1
71 571 m 1
 51.6669921875 571 35 578 21 592 c 0
 7 606 0 623 0 643 c 0
 0 662.333007812 7 679.333007812 21 694 c 0
 35 708 51.6669921875 714.666992188 71 714 c 0
 91 714 107.666992188 707.333007812 121 694 c 0
 135 680 142.333007812 663 143 643 c 0
 143 623 135.666992188 606 121 592 c 0
 107 578 90.3330078125 571 71 571 c 1
 71 571 l 1
214 571 m 1
 194 571 177.333007812 578 164 592 c 0
 150 606 143 623 143 643 c 0
 143 662.333007812 150 679.333007812 164 694 c 0
 178 708 194.666992188 714.666992188 214 714 c 0
 234 714 251 707.333007812 265 694 c 0
 279 680 286 663 286 643 c 0
 286 623 279 606 265 592 c 0
 251 578 234 571 214 571 c 1
 214 571 l 1
214 714 m 1
 194 714 177.333007812 721 164 735 c 0
 150 749 143 766 143 786 c 0
 143 806 150 822.666992188 164 836 c 0
 178 850 194.666992188 857 214 857 c 0
 234 857 251 850 265 836 c 0
 279 822 286 805.333007812 286 786 c 0
 286 766.666992188 279 749.666992188 265 735 c 0
 251 721 234 714 214 714 c 1
 214 714 l 1
71 857 m 1
 51.6669921875 857 35 864 21 878 c 0
 7 892 0 909 0 929 c 0
 0 949 7 965.666992188 21 979 c 0
 35 993 51.6669921875 1000 71 1000 c 0
 91 1000 107.666992188 993 121 979 c 0
 135 965 142.333007812 948.333007812 143 929 c 0
 143 909 135.666992188 892 121 878 c 0
 107 864 90.3330078125 857 71 857 c 1
 71 857 l 1
EndSplineSet
Validated: 524325
EndChar

StartChar: three
Encoding: 51 51 13
Width: 999
GlyphClass: 2
Flags: W
LayerCount: 2
Fore
SplineSet
786 0 m 1
 766.666992188 0 749.666992188 7 735 21 c 0
 721 35 714 51.6669921875 714 71 c 0
 714 91 721 107.666992188 735 121 c 0
 749 135 766 142.333007812 786 143 c 0
 806 143 822.666992188 135.666992188 836 121 c 0
 850 107 857 90.3330078125 857 71 c 0
 857 51.6669921875 850 35 836 21 c 0
 822 7 805.333007812 0 786 0 c 1
 786 0 l 1
786 143 m 1
 766.666992188 143 749.666992188 150 735 164 c 0
 721 178 714 194.666992188 714 214 c 0
 714 234 721 251 735 265 c 0
 749 279 766 286 786 286 c 0
 806 286 822.666992188 279 836 265 c 0
 850 251 857 234 857 214 c 0
 857 194 850 177.333007812 836 164 c 0
 822 150 805.333007812 143 786 143 c 1
 786 143 l 1
643 286 m 1
 623 286 606 292.666992188 592 306 c 0
 578 320 571 337 571 357 c 0
 571 376.333007812 578 393 592 407 c 0
 606 421 623 428.333007812 643 429 c 0
 662.333007812 429 679.333007812 421.666992188 694 407 c 0
 708 393 714.666992188 376.333007812 714 357 c 0
 714 337 707.333007812 320 694 306 c 0
 680 292 663 285.333007812 643 286 c 1
 643 286 l 1
786 286 m 1
 766.666992188 286 749.666992188 292.666992188 735 306 c 0
 721 320 714 337 714 357 c 0
 714 376.333007812 721 393 735 407 c 0
 749 421 766 428.333007812 786 429 c 0
 806 429 822.666992188 421.666992188 836 407 c 0
 850 393 857 376.333007812 857 357 c 0
 857 337 850 320 836 306 c 0
 822 292 805.333007812 285.333007812 786 286 c 1
 786 286 l 1
71 571 m 1
 51.6669921875 571 35 578 21 592 c 0
 7 606 0 623 0 643 c 0
 0 662.333007812 7 679.333007812 21 694 c 0
 35 708 51.6669921875 714.666992188 71 714 c 0
 91 714 107.666992188 707.333007812 121 694 c 0
 135 680 142.333007812 663 143 643 c 0
 143 623 135.666992188 606 121 592 c 0
 107 578 90.3330078125 571 71 571 c 1
 71 571 l 1
214 571 m 1
 194 571 177.333007812 578 164 592 c 0
 150 606 143 623 143 643 c 0
 143 662.333007812 150 679.333007812 164 694 c 0
 178 708 194.666992188 714.666992188 214 714 c 0
 234 714 251 707.333007812 265 694 c 0
 279 680 286 663 286 643 c 0
 286 623 279 606 265 592 c 0
 251 578 234 571 214 571 c 1
 214 571 l 1
214 714 m 1
 194 714 177.333007812 721 164 735 c 0
 150 749 143 766 143 786 c 0
 143 806 150 822.666992188 164 836 c 0
 178 850 194.666992188 857 214 857 c 0
 234 857 251 850 265 836 c 0
 279 822 286 805.333007812 286 786 c 0
 286 766.666992188 279 749.666992188 265 735 c 0
 251 721 234 714 214 714 c 1
 214 714 l 1
71 857 m 1
 51.6669921875 857 35 864 21 878 c 0
 7 892 0 909 0 929 c 0
 0 949 7 965.666992188 21 979 c 0
 35 993 51.6669921875 1000 71 1000 c 0
 91 1000 107.666992188 993 121 979 c 0
 135 965 142.333007812 948.333007812 143 929 c 0
 143 909 135.666992188 892 121 878 c 0
 107 864 90.3330078125 857 71 857 c 1
 71 857 l 1
214 857 m 1
 194 857 177.333007812 864 164 878 c 0
 150 892 143 909 143 929 c 0
 143 949 150 965.666992188 164 979 c 0
 178 993 194.666992188 1000 214 1000 c 0
 234 1000 251 993 265 979 c 0
 279 965 286 948.333007812 286 929 c 0
 286 909 279 892 265 878 c 0
 251 864 234 857 214 857 c 1
 214 857 l 1
EndSplineSet
Validated: 524325
EndChar

StartChar: four
Encoding: 52 52 14
Width: 999
GlyphClass: 2
Flags: W
LayerCount: 2
Fore
SplineSet
643 143 m 1
 623 143 606 150 592 164 c 0
 578 178 571 194.666992188 571 214 c 0
 571 234 578 251 592 265 c 0
 606 279 623 286 643 286 c 0
 662.333007812 286 679.333007812 279 694 265 c 0
 708 251 714.666992188 234 714 214 c 0
 714 194 707.333007812 177.333007812 694 164 c 0
 680 150 663 143 643 143 c 1
 643 143 l 1
643 286 m 1
 623 286 606 292.666992188 592 306 c 0
 578 320 571 337 571 357 c 0
 571 376.333007812 578 393 592 407 c 0
 606 421 623 428.333007812 643 429 c 0
 662.333007812 429 679.333007812 421.666992188 694 407 c 0
 708 393 714.666992188 376.333007812 714 357 c 0
 714 337 707.333007812 320 694 306 c 0
 680 292 663 285.333007812 643 286 c 1
 643 286 l 1
786 286 m 1
 766.666992188 286 749.666992188 292.666992188 735 306 c 0
 721 320 714 337 714 357 c 0
 714 376.333007812 721 393 735 407 c 0
 749 421 766 428.333007812 786 429 c 0
 806 429 822.666992188 421.666992188 836 407 c 0
 850 393 857 376.333007812 857 357 c 0
 857 337 850 320 836 306 c 0
 822 292 805.333007812 285.333007812 786 286 c 1
 786 286 l 1
214 571 m 1
 194 571 177.333007812 578 164 592 c 0
 150 606 143 623 143 643 c 0
 143 662.333007812 150 679.333007812 164 694 c 0
 178 708 194.666992188 714.666992188 214 714 c 0
 234 714 251 707.333007812 265 694 c 0
 279 680 286 663 286 643 c 0
 286 623 279 606 265 592 c 0
 251 578 234 571 214 571 c 1
 214 571 l 1
71 714 m 1
 51.6669921875 714 35 721 21 735 c 0
 7 749 0 766 0 786 c 0
 0 806 7 822.666992188 21 836 c 0
 35 850 51.6669921875 857 71 857 c 0
 91 857 107.666992188 850 121 836 c 0
 135 822 142.333007812 805.333007812 143 786 c 0
 143 766.666992188 135.666992188 749.666992188 121 735 c 0
 107 721 90.3330078125 714 71 714 c 1
 71 714 l 1
214 714 m 1
 194 714 177.333007812 721 164 735 c 0
 150 749 143 766 143 786 c 0
 143 806 150 822.666992188 164 836 c 0
 178 850 194.666992188 857 214 857 c 0
 234 857 251 850 265 836 c 0
 279 822 286 805.333007812 286 786 c 0
 286 766.666992188 279 749.666992188 265 735 c 0
 251 721 234 714 214 714 c 1
 214 714 l 1
71 857 m 1
 51.6669921875 857 35 864 21 878 c 0
 7 892 0 909 0 929 c 0
 0 949 7 965.666992188 21 979 c 0
 35 993 51.6669921875 1000 71 1000 c 0
 91 1000 107.666992188 993 121 979 c 0
 135 965 142.333007812 948.333007812 143 929 c 0
 143 909 135.666992188 892 121 878 c 0
 107 864 90.3330078125 857 71 857 c 1
 71 857 l 1
EndSplineSet
Validated: 524325
EndChar

StartChar: five
Encoding: 53 53 15
Width: 999
GlyphClass: 2
Flags: W
LayerCount: 2
Fore
SplineSet
643 143 m 1
 623 143 606 150 592 164 c 0
 578 178 571 194.666992188 571 214 c 0
 571 234 578 251 592 265 c 0
 606 279 623 286 643 286 c 0
 662.333007812 286 679.333007812 279 694 265 c 0
 708 251 714.666992188 234 714 214 c 0
 714 194 707.333007812 177.333007812 694 164 c 0
 680 150 663 143 643 143 c 1
 643 143 l 1
786 143 m 1
 766.666992188 143 749.666992188 150 735 164 c 0
 721 178 714 194.666992188 714 214 c 0
 714 234 721 251 735 265 c 0
 749 279 766 286 786 286 c 0
 806 286 822.666992188 279 836 265 c 0
 850 251 857 234 857 214 c 0
 857 194 850 177.333007812 836 164 c 0
 822 150 805.333007812 143 786 143 c 1
 786 143 l 1
643 286 m 1
 623 286 606 292.666992188 592 306 c 0
 578 320 571 337 571 357 c 0
 571 376.333007812 578 393 592 407 c 0
 606 421 623 428.333007812 643 429 c 0
 662.333007812 429 679.333007812 421.666992188 694 407 c 0
 708 393 714.666992188 376.333007812 714 357 c 0
 714 337 707.333007812 320 694 306 c 0
 680 292 663 285.333007812 643 286 c 1
 643 286 l 1
786 286 m 1
 766.666992188 286 749.666992188 292.666992188 735 306 c 0
 721 320 714 337 714 357 c 0
 714 376.333007812 721 393 735 407 c 0
 749 421 766 428.333007812 786 429 c 0
 806 429 822.666992188 421.666992188 836 407 c 0
 850 393 857 376.333007812 857 357 c 0
 857 337 850 320 836 306 c 0
 822 292 805.333007812 285.333007812 786 286 c 1
 786 286 l 1
214 571 m 1
 194 571 177.333007812 578 164 592 c 0
 150 606 143 623 143 643 c 0
 143 662.333007812 150 679.333007812 164 694 c 0
 178 708 194.666992188 714.666992188 214 714 c 0
 234 714 251 707.333007812 265 694 c 0
 279 680 286 663 286 643 c 0
 286 623 279 606 265 592 c 0
 251 578 234 571 214 571 c 1
 214 571 l 1
71 714 m 1
 51.6669921875 714 35 721 21 735 c 0
 7 749 0 766 0 786 c 0
 0 806 7 822.666992188 21 836 c 0
 35 850 51.6669921875 857 71 857 c 0
 91 857 107.666992188 850 121 836 c 0
 135 822 142.333007812 805.333007812 143 786 c 0
 143 766.666992188 135.666992188 749.666992188 121 735 c 0
 107 721 90.3330078125 714 71 714 c 1
 71 714 l 1
71 857 m 1
 51.6669921875 857 35 864 21 878 c 0
 7 892 0 909 0 929 c 0
 0 949 7 965.666992188 21 979 c 0
 35 993 51.6669921875 1000 71 1000 c 0
 91 1000 107.666992188 993 121 979 c 0
 135 965 142.333007812 948.333007812 143 929 c 0
 143 909 135.666992188 892 121 878 c 0
 107 864 90.3330078125 857 71 857 c 1
 71 857 l 1
214 857 m 1
 194 857 177.333007812 864 164 878 c 0
 150 892 143 909 143 929 c 0
 143 949 150 965.666992188 164 979 c 0
 178 993 194.666992188 1000 214 1000 c 0
 234 1000 251 993 265 979 c 0
 279 965 286 948.333007812 286 929 c 0
 286 909 279 892 265 878 c 0
 251 864 234 857 214 857 c 1
 214 857 l 1
EndSplineSet
Validated: 524325
EndChar

StartChar: six
Encoding: 54 54 16
Width: 999
GlyphClass: 2
Flags: W
LayerCount: 2
Fore
SplineSet
786 0 m 1
 766.666992188 0 749.666992188 7 735 21 c 0
 721 35 714 51.6669921875 714 71 c 0
 714 91 721 107.666992188 735 121 c 0
 749 135 766 142.333007812 786 143 c 0
 806 143 822.666992188 135.666992188 836 121 c 0
 850 107 857 90.3330078125 857 71 c 0
 857 51.6669921875 850 35 836 21 c 0
 822 7 805.333007812 0 786 0 c 1
 786 0 l 1
643 143 m 1
 623 143 606 150 592 164 c 0
 578 178 571 194.666992188 571 214 c 0
 571 234 578 251 592 265 c 0
 606 279 623 286 643 286 c 0
 662.333007812 286 679.333007812 279 694 265 c 0
 708 251 714.666992188 234 714 214 c 0
 714 194 707.333007812 177.333007812 694 164 c 0
 680 150 663 143 643 143 c 1
 643 143 l 1
786 143 m 1
 766.666992188 143 749.666992188 150 735 164 c 0
 721 178 714 194.666992188 714 214 c 0
 714 234 721 251 735 265 c 0
 749 279 766 286 786 286 c 0
 806 286 822.666992188 279 836 265 c 0
 850 251 857 234 857 214 c 0
 857 194 850 177.333007812 836 164 c 0
 822 150 805.333007812 143 786 143 c 1
 786 143 l 1
643 286 m 1
 623 286 606 292.666992188 592 306 c 0
 578 320 571 337 571 357 c 0
 571 376.333007812 578 393 592 407 c 0
 606 421 623 428.333007812 643 429 c 0
 662.333007812 429 679.333007812 421.666992188 694 407 c 0
 708 393 714.666992188 376.333007812 714 357 c 0
 714 337 707.333007812 320 694 306 c 0
 680 292 663 285.333007812 643 286 c 1
 643 286 l 1
786 286 m 1
 766.666992188 286 749.666992188 292.666992188 735 306 c 0
 721 320 714 337 714 357 c 0
 714 376.333007812 721 393 735 407 c 0
 749 421 766 428.333007812 786 429 c 0
 806 429 822.666992188 421.666992188 836 407 c 0
 850 393 857 376.333007812 857 357 c 0
 857 337 850 320 836 306 c 0
 822 292 805.333007812 285.333007812 786 286 c 1
 786 286 l 1
71 571 m 1
 51.6669921875 571 35 578 21 592 c 0
 7 606 0 623 0 643 c 0
 0 662.333007812 7 679.333007812 21 694 c 0
 35 708 51.6669921875 714.666992188 71 714 c 0
 91 714 107.666992188 707.333007812 121 694 c 0
 135 680 142.333007812 663 143 643 c 0
 143 623 135.666992188 606 121 592 c 0
 107 578 90.3330078125 571 71 571 c 1
 71 571 l 1
214 571 m 1
 194 571 177.333007812 578 164 592 c 0
 150 606 143 623 143 643 c 0
 143 662.333007812 150 679.333007812 164 694 c 0
 178 708 194.666992188 714.666992188 214 714 c 0
 234 714 251 707.333007812 265 694 c 0
 279 680 286 663 286 643 c 0
 286 623 279 606 265 592 c 0
 251 578 234 571 214 571 c 1
 214 571 l 1
71 714 m 1
 51.6669921875 714 35 721 21 735 c 0
 7 749 0 766 0 786 c 0
 0 806 7 822.666992188 21 836 c 0
 35 850 51.6669921875 857 71 857 c 0
 91 857 107.666992188 850 121 836 c 0
 135 822 142.333007812 805.333007812 143 786 c 0
 143 766.666992188 135.666992188 749.666992188 121 735 c 0
 107 721 90.3330078125 714 71 714 c 1
 71 714 l 1
214 714 m 1
 194 714 177.333007812 721 164 735 c 0
 150 749 143 766 143 786 c 0
 143 806 150 822.666992188 164 836 c 0
 178 850 194.666992188 857 214 857 c 0
 234 857 251 850 265 836 c 0
 279 822 286 805.333007812 286 786 c 0
 286 766.666992188 279 749.666992188 265 735 c 0
 251 721 234 714 214 714 c 1
 214 714 l 1
71 857 m 1
 51.6669921875 857 35 864 21 878 c 0
 7 892 0 909 0 929 c 0
 0 949 7 965.666992188 21 979 c 0
 35 993 51.6669921875 1000 71 1000 c 0
 91 1000 107.666992188 993 121 979 c 0
 135 965 142.333007812 948.333007812 143 929 c 0
 143 909 135.666992188 892 121 878 c 0
 107 864 90.3330078125 857 71 857 c 1
 71 857 l 1
EndSplineSet
Validated: 524325
EndChar

StartChar: seven
Encoding: 55 55 17
Width: 999
GlyphClass: 2
Flags: W
LayerCount: 2
Fore
SplineSet
643 0 m 1
 623 0 606 7 592 21 c 0
 578 35 571 51.6669921875 571 71 c 0
 571 91 578 107.666992188 592 121 c 0
 606 135 623 142.333007812 643 143 c 0
 662.333007812 143 679.333007812 135.666992188 694 121 c 0
 708 107 714.666992188 90.3330078125 714 71 c 0
 714 51.6669921875 707.333007812 35 694 21 c 0
 680 7 663 0 643 0 c 1
 643 0 l 1
643 143 m 1
 623 143 606 150 592 164 c 0
 578 178 571 194.666992188 571 214 c 0
 571 234 578 251 592 265 c 0
 606 279 623 286 643 286 c 0
 662.333007812 286 679.333007812 279 694 265 c 0
 708 251 714.666992188 234 714 214 c 0
 714 194 707.333007812 177.333007812 694 164 c 0
 680 150 663 143 643 143 c 1
 643 143 l 1
643 286 m 1
 623 286 606 292.666992188 592 306 c 0
 578 320 571 337 571 357 c 0
 571 376.333007812 578 393 592 407 c 0
 606 421 623 428.333007812 643 429 c 0
 662.333007812 429 679.333007812 421.666992188 694 407 c 0
 708 393 714.666992188 376.333007812 714 357 c 0
 714 337 707.333007812 320 694 306 c 0
 680 292 663 285.333007812 643 286 c 1
 643 286 l 1
786 286 m 1
 766.666992188 286 749.666992188 292.666992188 735 306 c 0
 721 320 714 337 714 357 c 0
 714 376.333007812 721 393 735 407 c 0
 749 421 766 428.333007812 786 429 c 0
 806 429 822.666992188 421.666992188 836 407 c 0
 850 393 857 376.333007812 857 357 c 0
 857 337 850 320 836 306 c 0
 822 292 805.333007812 285.333007812 786 286 c 1
 786 286 l 1
71 571 m 1
 51.6669921875 571 35 578 21 592 c 0
 7 606 0 623 0 643 c 0
 0 662.333007812 7 679.333007812 21 694 c 0
 35 708 51.6669921875 714.666992188 71 714 c 0
 91 714 107.666992188 707.333007812 121 694 c 0
 135 680 142.333007812 663 143 643 c 0
 143 623 135.666992188 606 121 592 c 0
 107 578 90.3330078125 571 71 571 c 1
 71 571 l 1
214 714 m 1
 194 714 177.333007812 721 164 735 c 0
 150 749 143 766 143 786 c 0
 143 806 150 822.666992188 164 836 c 0
 178 850 194.666992188 857 214 857 c 0
 234 857 251 850 265 836 c 0
 279 822 286 805.333007812 286 786 c 0
 286 766.666992188 279 749.666992188 265 735 c 0
 251 721 234 714 214 714 c 1
 214 714 l 1
71 857 m 1
 51.6669921875 857 35 864 21 878 c 0
 7 892 0 909 0 929 c 0
 0 949 7 965.666992188 21 979 c 0
 35 993 51.6669921875 1000 71 1000 c 0
 91 1000 107.666992188 993 121 979 c 0
 135 965 142.333007812 948.333007812 143 929 c 0
 143 909 135.666992188 892 121 878 c 0
 107 864 90.3330078125 857 71 857 c 1
 71 857 l 1
214 857 m 1
 194 857 177.333007812 864 164 878 c 0
 150 892 143 909 143 929 c 0
 143 949 150 965.666992188 164 979 c 0
 178 993 194.666992188 1000 214 1000 c 0
 234 1000 251 993 265 979 c 0
 279 965 286 948.333007812 286 929 c 0
 286 909 279 892 265 878 c 0
 251 864 234 857 214 857 c 1
 214 857 l 1
EndSplineSet
Validated: 524325
EndChar

StartChar: eight
Encoding: 56 56 18
Width: 999
GlyphClass: 2
Flags: W
LayerCount: 2
Fore
SplineSet
643 0 m 1
 623 0 606 7 592 21 c 0
 578 35 571 51.6669921875 571 71 c 0
 571 91 578 107.666992188 592 121 c 0
 606 135 623 142.333007812 643 143 c 0
 662.333007812 143 679.333007812 135.666992188 694 121 c 0
 708 107 714.666992188 90.3330078125 714 71 c 0
 714 51.6669921875 707.333007812 35 694 21 c 0
 680 7 663 0 643 0 c 1
 643 0 l 1
643 143 m 1
 623 143 606 150 592 164 c 0
 578 178 571 194.666992188 571 214 c 0
 571 234 578 251 592 265 c 0
 606 279 623 286 643 286 c 0
 662.333007812 286 679.333007812 279 694 265 c 0
 708 251 714.666992188 234 714 214 c 0
 714 194 707.333007812 177.333007812 694 164 c 0
 680 150 663 143 643 143 c 1
 643 143 l 1
786 143 m 1
 766.666992188 143 749.666992188 150 735 164 c 0
 721 178 714 194.666992188 714 214 c 0
 714 234 721 251 735 265 c 0
 749 279 766 286 786 286 c 0
 806 286 822.666992188 279 836 265 c 0
 850 251 857 234 857 214 c 0
 857 194 850 177.333007812 836 164 c 0
 822 150 805.333007812 143 786 143 c 1
 786 143 l 1
643 286 m 1
 623 286 606 292.666992188 592 306 c 0
 578 320 571 337 571 357 c 0
 571 376.333007812 578 393 592 407 c 0
 606 421 623 428.333007812 643 429 c 0
 662.333007812 429 679.333007812 421.666992188 694 407 c 0
 708 393 714.666992188 376.333007812 714 357 c 0
 714 337 707.333007812 320 694 306 c 0
 680 292 663 285.333007812 643 286 c 1
 643 286 l 1
786 286 m 1
 766.666992188 286 749.666992188 292.666992188 735 306 c 0
 721 320 714 337 714 357 c 0
 714 376.333007812 721 393 735 407 c 0
 749 421 766 428.333007812 786 429 c 0
 806 429 822.666992188 421.666992188 836 407 c 0
 850 393 857 376.333007812 857 357 c 0
 857 337 850 320 836 306 c 0
 822 292 805.333007812 285.333007812 786 286 c 1
 786 286 l 1
71 571 m 1
 51.6669921875 571 35 578 21 592 c 0
 7 606 0 623 0 643 c 0
 0 662.333007812 7 679.333007812 21 694 c 0
 35 708 51.6669921875 714.666992188 71 714 c 0
 91 714 107.666992188 707.333007812 121 694 c 0
 135 680 142.333007812 663 143 643 c 0
 143 623 135.666992188 606 121 592 c 0
 107 578 90.3330078125 571 71 571 c 1
 71 571 l 1
214 571 m 1
 194 571 177.333007812 578 164 592 c 0
 150 606 143 623 143 643 c 0
 143 662.333007812 150 679.333007812 164 694 c 0
 178 708 194.666992188 714.666992188 214 714 c 0
 234 714 251 707.333007812 265 694 c 0
 279 680 286 663 286 643 c 0
 286 623 279 606 265 592 c 0
 251 578 234 571 214 571 c 1
 214 571 l 1
71 714 m 1
 51.6669921875 714 35 721 21 735 c 0
 7 749 0 766 0 786 c 0
 0 806 7 822.666992188 21 836 c 0
 35 850 51.6669921875 857 71 857 c 0
 91 857 107.666992188 850 121 836 c 0
 135 822 142.333007812 805.333007812 143 786 c 0
 143 766.666992188 135.666992188 749.666992188 121 735 c 0
 107 721 90.3330078125 714 71 714 c 1
 71 714 l 1
214 714 m 1
 194 714 177.333007812 721 164 735 c 0
 150 749 143 766 143 786 c 0
 143 806 150 822.666992188 164 836 c 0
 178 850 194.666992188 857 214 857 c 0
 234 857 251 850 265 836 c 0
 279 822 286 805.333007812 286 786 c 0
 286 766.666992188 279 749.666992188 265 735 c 0
 251 721 234 714 214 714 c 1
 214 714 l 1
71 857 m 1
 51.6669921875 857 35 864 21 878 c 0
 7 892 0 909 0 929 c 0
 0 949 7 965.666992188 21 979 c 0
 35 993 51.6669921875 1000 71 1000 c 0
 91 1000 107.666992188 993 121 979 c 0
 135 965 142.333007812 948.333007812 143 929 c 0
 143 909 135.666992188 892 121 878 c 0
 107 864 90.3330078125 857 71 857 c 1
 71 857 l 1
214 857 m 1
 194 857 177.333007812 864 164 878 c 0
 150 892 143 909 143 929 c 0
 143 949 150 965.666992188 164 979 c 0
 178 993 194.666992188 1000 214 1000 c 0
 234 1000 251 993 265 979 c 0
 279 965 286 948.333007812 286 929 c 0
 286 909 279 892 265 878 c 0
 251 864 234 857 214 857 c 1
 214 857 l 1
EndSplineSet
Validated: 524325
EndChar

StartChar: nine
Encoding: 57 57 19
Width: 999
GlyphClass: 2
Flags: W
LayerCount: 2
Fore
SplineSet
643 0 m 1
 623 0 606 7 592 21 c 0
 578 35 571 51.6669921875 571 71 c 0
 571 91 578 107.666992188 592 121 c 0
 606 135 623 142.333007812 643 143 c 0
 662.333007812 143 679.333007812 135.666992188 694 121 c 0
 708 107 714.666992188 90.3330078125 714 71 c 0
 714 51.6669921875 707.333007812 35 694 21 c 0
 680 7 663 0 643 0 c 1
 643 0 l 1
786 0 m 1
 766.666992188 0 749.666992188 7 735 21 c 0
 721 35 714 51.6669921875 714 71 c 0
 714 91 721 107.666992188 735 121 c 0
 749 135 766 142.333007812 786 143 c 0
 806 143 822.666992188 135.666992188 836 121 c 0
 850 107 857 90.3330078125 857 71 c 0
 857 51.6669921875 850 35 836 21 c 0
 822 7 805.333007812 0 786 0 c 1
 786 0 l 1
643 143 m 1
 623 143 606 150 592 164 c 0
 578 178 571 194.666992188 571 214 c 0
 571 234 578 251 592 265 c 0
 606 279 623 286 643 286 c 0
 662.333007812 286 679.333007812 279 694 265 c 0
 708 251 714.666992188 234 714 214 c 0
 714 194 707.333007812 177.333007812 694 164 c 0
 680 150 663 143 643 143 c 1
 643 143 l 1
786 143 m 1
 766.666992188 143 749.666992188 150 735 164 c 0
 721 178 714 194.666992188 714 214 c 0
 714 234 721 251 735 265 c 0
 749 279 766 286 786 286 c 0
 806 286 822.666992188 279 836 265 c 0
 850 251 857 234 857 214 c 0
 857 194 850 177.333007812 836 164 c 0
 822 150 805.333007812 143 786 143 c 1
 786 143 l 1
643 286 m 1
 623 286 606 292.666992188 592 306 c 0
 578 320 571 337 571 357 c 0
 571 376.333007812 578 393 592 407 c 0
 606 421 623 428.333007812 643 429 c 0
 662.333007812 429 679.333007812 421.666992188 694 407 c 0
 708 393 714.666992188 376.333007812 714 357 c 0
 714 337 707.333007812 320 694 306 c 0
 680 292 663 285.333007812 643 286 c 1
 643 286 l 1
786 286 m 1
 766.666992188 286 749.666992188 292.666992188 735 306 c 0
 721 320 714 337 714 357 c 0
 714 376.333007812 721 393 735 407 c 0
 749 421 766 428.333007812 786 429 c 0
 806 429 822.666992188 421.666992188 836 407 c 0
 850 393 857 376.333007812 857 357 c 0
 857 337 850 320 836 306 c 0
 822 292 805.333007812 285.333007812 786 286 c 1
 786 286 l 1
214 571 m 1
 194 571 177.333007812 578 164 592 c 0
 150 606 143 623 143 643 c 0
 143 662.333007812 150 679.333007812 164 694 c 0
 178 708 194.666992188 714.666992188 214 714 c 0
 234 714 251 707.333007812 265 694 c 0
 279 680 286 663 286 643 c 0
 286 623 279 606 265 592 c 0
 251 578 234 571 214 571 c 1
 214 571 l 1
71 714 m 1
 51.6669921875 714 35 721 21 735 c 0
 7 749 0 766 0 786 c 0
 0 806 7 822.666992188 21 836 c 0
 35 850 51.6669921875 857 71 857 c 0
 91 857 107.666992188 850 121 836 c 0
 135 822 142.333007812 805.333007812 143 786 c 0
 143 766.666992188 135.666992188 749.666992188 121 735 c 0
 107 721 90.3330078125 714 71 714 c 1
 71 714 l 1
214 714 m 1
 194 714 177.333007812 721 164 735 c 0
 150 749 143 766 143 786 c 0
 143 806 150 822.666992188 164 836 c 0
 178 850 194.666992188 857 214 857 c 0
 234 857 251 850 265 836 c 0
 279 822 286 805.333007812 286 786 c 0
 286 766.666992188 279 749.666992188 265 735 c 0
 251 721 234 714 214 714 c 1
 214 714 l 1
71 857 m 1
 51.6669921875 857 35 864 21 878 c 0
 7 892 0 909 0 929 c 0
 0 949 7 965.666992188 21 979 c 0
 35 993 51.6669921875 1000 71 1000 c 0
 91 1000 107.666992188 993 121 979 c 0
 135 965 142.333007812 948.333007812 143 929 c 0
 143 909 135.666992188 892 121 878 c 0
 107 864 90.3330078125 857 71 857 c 1
 71 857 l 1
214 857 m 1
 194 857 177.333007812 864 164 878 c 0
 150 892 143 909 143 929 c 0
 143 949 150 965.666992188 164 979 c 0
 178 993 194.666992188 1000 214 1000 c 0
 234 1000 251 993 265 979 c 0
 279 965 286 948.333007812 286 929 c 0
 286 909 279 892 265 878 c 0
 251 864 234 857 214 857 c 1
 214 857 l 1
EndSplineSet
Validated: 524325
EndChar

StartChar: colon
Encoding: 58 58 20
Width: 999
GlyphClass: 2
Flags: W
LayerCount: 2
Fore
SplineSet
71 0 m 1
 51.6669921875 0 35 7 21 21 c 0
 7 35 0 51.6669921875 0 71 c 0
 0 91 7 107.666992188 21 121 c 0
 35 135 51.6669921875 142.333007812 71 143 c 0
 91 143 107.666992188 135.666992188 121 121 c 0
 135 107 142.333007812 90.3330078125 143 71 c 0
 143 51.6669921875 135.666992188 35 121 21 c 0
 107 7 90.3330078125 0 71 0 c 1
 71 0 l 1
214 0 m 1
 194 0 177.333007812 7 164 21 c 0
 150 35 143 51.6669921875 143 71 c 0
 143 91 150 107.666992188 164 121 c 0
 178 135 194.666992188 142.333007812 214 143 c 0
 234 143 251 135.666992188 265 121 c 0
 279 107 286 90.3330078125 286 71 c 0
 286 51.6669921875 279 35 265 21 c 0
 251 7 234 0 214 0 c 1
 214 0 l 1
357 0 m 1
 337 0 320 7 306 21 c 0
 292 35 285.333007812 51.6669921875 286 71 c 0
 286 91 292.666992188 107.666992188 306 121 c 0
 320 135 337 142.333007812 357 143 c 0
 376.333007812 143 393 135.666992188 407 121 c 0
 421 107 428.333007812 90.3330078125 429 71 c 0
 429 51.6669921875 421.666992188 35 407 21 c 0
 393 7 376.333007812 0 357 0 c 1
 357 0 l 1
500 0 m 1
 480 0 463 7 449 21 c 0
 435 35 428.333007812 51.6669921875 429 71 c 0
 429 91 435.666992188 107.666992188 449 121 c 0
 463 135 480 142.333007812 500 143 c 0
 520 143 537 135.666992188 551 121 c 0
 565 107 571.666992188 90.3330078125 571 71 c 0
 571 51.6669921875 564.333007812 35 551 21 c 0
 537 7 520 0 500 0 c 1
 500 0 l 1
643 0 m 1
 623 0 606 7 592 21 c 0
 578 35 571 51.6669921875 571 71 c 0
 571 91 578 107.666992188 592 121 c 0
 606 135 623 142.333007812 643 143 c 0
 662.333007812 143 679.333007812 135.666992188 694 121 c 0
 708 107 714.666992188 90.3330078125 714 71 c 0
 714 51.6669921875 707.333007812 35 694 21 c 0
 680 7 663 0 643 0 c 1
 643 0 l 1
500 143 m 1
 480 143 463 150 449 164 c 0
 435 178 428.333007812 194.666992188 429 214 c 0
 429 234 435.666992188 251 449 265 c 0
 463 279 480 286 500 286 c 0
 520 286 537 279 551 265 c 0
 565 251 571.666992188 234 571 214 c 0
 571 194 564.333007812 177.333007812 551 164 c 0
 537 150 520 143 500 143 c 1
 500 143 l 1
357 286 m 1
 337 286 320 292.666992188 306 306 c 0
 292 320 285.333007812 337 286 357 c 0
 286 376.333007812 292.666992188 393 306 407 c 0
 320 421 337 428.333007812 357 429 c 0
 376.333007812 429 393 421.666992188 407 407 c 0
 421 393 428.333007812 376.333007812 429 357 c 0
 429 337 421.666992188 320 407 306 c 0
 393 292 376.333007812 285.333007812 357 286 c 1
 357 286 l 1
214 429 m 1
 194 429 177.333007812 435.666992188 164 449 c 0
 150 463 143 480 143 500 c 0
 143 520 150 537 164 551 c 0
 178 565 194.666992188 571.666992188 214 571 c 0
 234 571 251 564.333007812 265 551 c 0
 279 537 286 520 286 500 c 0
 286 480 279 463 265 449 c 0
 251 435 234 428.333007812 214 429 c 1
 214 429 l 1
71 571 m 1
 51.6669921875 571 35 578 21 592 c 0
 7 606 0 623 0 643 c 0
 0 662.333007812 7 679.333007812 21 694 c 0
 35 708 51.6669921875 714.666992188 71 714 c 0
 91 714 107.666992188 707.333007812 121 694 c 0
 135 680 142.333007812 663 143 643 c 0
 143 623 135.666992188 606 121 592 c 0
 107 578 90.3330078125 571 71 571 c 1
 71 571 l 1
EndSplineSet
Validated: 524325
EndChar

StartChar: semicolon
Encoding: 59 59 21
Width: 999
GlyphClass: 2
Flags: W
LayerCount: 2
Fore
SplineSet
357 0 m 1
 337 0 320 7 306 21 c 0
 292 35 285.333007812 51.6669921875 286 71 c 0
 286 91 292.666992188 107.666992188 306 121 c 0
 320 135 337 142.333007812 357 143 c 0
 376.333007812 143 393 135.666992188 407 121 c 0
 421 107 428.333007812 90.3330078125 429 71 c 0
 429 51.6669921875 421.666992188 35 407 21 c 0
 393 7 376.333007812 0 357 0 c 1
 357 0 l 1
357 143 m 1
 337 143 320 150 306 164 c 0
 292 178 285.333007812 194.666992188 286 214 c 0
 286 234 292.666992188 251 306 265 c 0
 320 279 337 286 357 286 c 0
 376.333007812 286 393 279 407 265 c 0
 421 251 428.333007812 234 429 214 c 0
 429 194 421.666992188 177.333007812 407 164 c 0
 393 150 376.333007812 143 357 143 c 1
 357 143 l 1
357 286 m 1
 337 286 320 292.666992188 306 306 c 0
 292 320 285.333007812 337 286 357 c 0
 286 376.333007812 292.666992188 393 306 407 c 0
 320 421 337 428.333007812 357 429 c 0
 376.333007812 429 393 421.666992188 407 407 c 0
 421 393 428.333007812 376.333007812 429 357 c 0
 429 337 421.666992188 320 407 306 c 0
 393 292 376.333007812 285.333007812 357 286 c 1
 357 286 l 1
357 429 m 1
 337 429 320 435.666992188 306 449 c 0
 292 463 285.333007812 480 286 500 c 0
 286 520 292.666992188 537 306 551 c 0
 320 565 337 571.666992188 357 571 c 0
 376.333007812 571 393 564.333007812 407 551 c 0
 421 537 428.333007812 520 429 500 c 0
 429 480 421.666992188 463 407 449 c 0
 393 435 376.333007812 428.333007812 357 429 c 1
 357 429 l 1
357 571 m 1
 337 571 320 578 306 592 c 0
 292 606 285.333007812 623 286 643 c 0
 286 662.333007812 292.666992188 679.333007812 306 694 c 0
 320 708 337 714.666992188 357 714 c 0
 376.333007812 714 393 707.333007812 407 694 c 0
 421 680 428.333007812 663 429 643 c 0
 429 623 421.666992188 606 407 592 c 0
 393 578 376.333007812 571 357 571 c 1
 357 571 l 1
357 714 m 1
 337 714 320 721 306 735 c 0
 292 749 285.333007812 766 286 786 c 0
 286 806 292.666992188 822.666992188 306 836 c 0
 320 850 337 857 357 857 c 0
 376.333007812 857 393 850 407 836 c 0
 421 822 428.333007812 805.333007812 429 786 c 0
 429 766.666992188 421.666992188 749.666992188 407 735 c 0
 393 721 376.333007812 714 357 714 c 1
 357 714 l 1
357 857 m 1
 337 857 320 864 306 878 c 0
 292 892 285.333007812 909 286 929 c 0
 286 949 292.666992188 965.666992188 306 979 c 0
 320 993 337 1000 357 1000 c 0
 376.333007812 1000 393 993 407 979 c 0
 421 965 428.333007812 948.333007812 429 929 c 0
 429 909 421.666992188 892 407 878 c 0
 393 864 376.333007812 857 357 857 c 1
 357 857 l 1
EndSplineSet
Validated: 524325
EndChar

StartChar: question
Encoding: 63 63 22
Width: 999
GlyphClass: 2
Flags: W
LayerCount: 2
Fore
SplineSet
357 0 m 1
 337 0 320 7 306 21 c 0
 292 35 285.333007812 51.6669921875 286 71 c 0
 286 91 292.666992188 107.666992188 306 121 c 0
 320 135 337 142.333007812 357 143 c 0
 376.333007812 143 393 135.666992188 407 121 c 0
 421 107 428.333007812 90.3330078125 429 71 c 0
 429 51.6669921875 421.666992188 35 407 21 c 0
 393 7 376.333007812 0 357 0 c 1
 357 0 l 1
500 143 m 1
 480 143 463 150 449 164 c 0
 435 178 428.333007812 194.666992188 429 214 c 0
 429 234 435.666992188 251 449 265 c 0
 463 279 480 286 500 286 c 0
 520 286 537 279 551 265 c 0
 565 251 571.666992188 234 571 214 c 0
 571 194 564.333007812 177.333007812 551 164 c 0
 537 150 520 143 500 143 c 1
 500 143 l 1
643 286 m 1
 623 286 606 292.666992188 592 306 c 0
 578 320 571 337 571 357 c 0
 571 376.333007812 578 393 592 407 c 0
 606 421 623 428.333007812 643 429 c 0
 662.333007812 429 679.333007812 421.666992188 694 407 c 0
 708 393 714.666992188 376.333007812 714 357 c 0
 714 337 707.333007812 320 694 306 c 0
 680 292 663 285.333007812 643 286 c 1
 643 286 l 1
643 429 m 1
 623 429 606 435.666992188 592 449 c 0
 578 463 571 480 571 500 c 0
 571 520 578 537 592 551 c 0
 606 565 623 571.666992188 643 571 c 0
 662.333007812 571 679.333007812 564.333007812 694 551 c 0
 708 537 714.666992188 520 714 500 c 0
 714 480 707.333007812 463 694 449 c 0
 680 435 663 428.333007812 643 429 c 1
 643 429 l 1
214 571 m 1
 194 571 177.333007812 578 164 592 c 0
 150 606 143 623 143 643 c 0
 143 662.333007812 150 679.333007812 164 694 c 0
 178 708 194.666992188 714.666992188 214 714 c 0
 234 714 251 707.333007812 265 694 c 0
 279 680 286 663 286 643 c 0
 286 623 279 606 265 592 c 0
 251 578 234 571 214 571 c 1
 214 571 l 1
643 571 m 1
 623 571 606 578 592 592 c 0
 578 606 571 623 571 643 c 0
 571 662.333007812 578 679.333007812 592 694 c 0
 606 708 623 714.666992188 643 714 c 0
 662.333007812 714 679.333007812 707.333007812 694 694 c 0
 708 680 714.666992188 663 714 643 c 0
 714 623 707.333007812 606 694 592 c 0
 680 578 663 571 643 571 c 1
 643 571 l 1
214 714 m 1
 194 714 177.333007812 721 164 735 c 0
 150 749 143 766 143 786 c 0
 143 806 150 822.666992188 164 836 c 0
 178 850 194.666992188 857 214 857 c 0
 234 857 251 850 265 836 c 0
 279 822 286 805.333007812 286 786 c 0
 286 766.666992188 279 749.666992188 265 735 c 0
 251 721 234 714 214 714 c 1
 214 714 l 1
643 714 m 1
 623 714 606 721 592 735 c 0
 578 749 571 766 571 786 c 0
 571 806 578 822.666992188 592 836 c 0
 606 850 623 857 643 857 c 0
 662.333007812 857 679.333007812 850 694 836 c 0
 708 822 714.666992188 805.333007812 714 786 c 0
 714 766.666992188 707.333007812 749.666992188 694 735 c 0
 680 721 663 714 643 714 c 1
 643 714 l 1
357 857 m 1
 337 857 320 864 306 878 c 0
 292 892 285.333007812 909 286 929 c 0
 286 949 292.666992188 965.666992188 306 979 c 0
 320 993 337 1000 357 1000 c 0
 376.333007812 1000 393 993 407 979 c 0
 421 965 428.333007812 948.333007812 429 929 c 0
 429 909 421.666992188 892 407 878 c 0
 393 864 376.333007812 857 357 857 c 1
 357 857 l 1
500 857 m 1
 480 857 463 864 449 878 c 0
 435 892 428.333007812 909 429 929 c 0
 429 949 435.666992188 965.666992188 449 979 c 0
 463 993 480 1000 500 1000 c 0
 520 1000 537 993 551 979 c 0
 565 965 571.666992188 948.333007812 571 929 c 0
 571 909 564.333007812 892 551 878 c 0
 537 864 520 857 500 857 c 1
 500 857 l 1
EndSplineSet
Validated: 524325
EndChar

StartChar: A
Encoding: 65 65 23
Width: 999
GlyphClass: 2
Flags: W
LayerCount: 2
Fore
SplineSet
71 0 m 1
 51.6669921875 0 35 7 21 21 c 0
 7 35 0 51.6669921875 0 71 c 0
 0 91 7 107.666992188 21 121 c 0
 35 135 51.6669921875 142.333007812 71 143 c 0
 91 143 107.666992188 135.666992188 121 121 c 0
 135 107 142.333007812 90.3330078125 143 71 c 0
 143 51.6669921875 135.666992188 35 121 21 c 0
 107 7 90.3330078125 0 71 0 c 1
 71 0 l 1
786 0 m 1
 766.666992188 0 749.666992188 7 735 21 c 0
 721 35 714 51.6669921875 714 71 c 0
 714 91 721 107.666992188 735 121 c 0
 749 135 766 142.333007812 786 143 c 0
 806 143 822.666992188 135.666992188 836 121 c 0
 850 107 857 90.3330078125 857 71 c 0
 857 51.6669921875 850 35 836 21 c 0
 822 7 805.333007812 0 786 0 c 1
 786 0 l 1
71 143 m 1
 51.6669921875 143 35 150 21 164 c 0
 7 178 0 194.666992188 0 214 c 0
 0 234 7 251 21 265 c 0
 35 279 51.6669921875 286 71 286 c 0
 91 286 107.666992188 279 121 265 c 0
 135 251 142.333007812 234 143 214 c 0
 143 194 135.666992188 177.333007812 121 164 c 0
 107 150 90.3330078125 143 71 143 c 1
 71 143 l 1
643 143 m 1
 623 143 606 150 592 164 c 0
 578 178 571 194.666992188 571 214 c 0
 571 234 578 251 592 265 c 0
 606 279 623 286 643 286 c 0
 662.333007812 286 679.333007812 279 694 265 c 0
 708 251 714.666992188 234 714 214 c 0
 714 194 707.333007812 177.333007812 694 164 c 0
 680 150 663 143 643 143 c 1
 643 143 l 1
71 286 m 1
 51.6669921875 286 35 292.666992188 21 306 c 0
 7 320 0 337 0 357 c 0
 0 376.333007812 7 393 21 407 c 0
 35 421 51.6669921875 428.333007812 71 429 c 0
 91 429 107.666992188 421.666992188 121 407 c 0
 135 393 142.333007812 376.333007812 143 357 c 0
 143 337 135.666992188 320 121 306 c 0
 107 292 90.3330078125 285.333007812 71 286 c 1
 71 286 l 1
214 286 m 1
 194 286 177.333007812 292.666992188 164 306 c 0
 150 320 143 337 143 357 c 0
 143 376.333007812 150 393 164 407 c 0
 178 421 194.666992188 428.333007812 214 429 c 0
 234 429 251 421.666992188 265 407 c 0
 279 393 286 376.333007812 286 357 c 0
 286 337 279 320 265 306 c 0
 251 292 234 285.333007812 214 286 c 1
 214 286 l 1
357 286 m 1
 337 286 320 292.666992188 306 306 c 0
 292 320 285.333007812 337 286 357 c 0
 286 376.333007812 292.666992188 393 306 407 c 0
 320 421 337 428.333007812 357 429 c 0
 376.333007812 429 393 421.666992188 407 407 c 0
 421 393 428.333007812 376.333007812 429 357 c 0
 429 337 421.666992188 320 407 306 c 0
 393 292 376.333007812 285.333007812 357 286 c 1
 357 286 l 1
500 286 m 1
 480 286 463 292.666992188 449 306 c 0
 435 320 428.333007812 337 429 357 c 0
 429 376.333007812 435.666992188 393 449 407 c 0
 463 421 480 428.333007812 500 429 c 0
 520 429 537 421.666992188 551 407 c 0
 565 393 571.666992188 376.333007812 571 357 c 0
 571 337 564.333007812 320 551 306 c 0
 537 292 520 285.333007812 500 286 c 1
 500 286 l 1
71 571 m 1
 51.6669921875 571 35 578 21 592 c 0
 7 606 0 623 0 643 c 0
 0 662.333007812 7 679.333007812 21 694 c 0
 35 708 51.6669921875 714.666992188 71 714 c 0
 91 714 107.666992188 707.333007812 121 694 c 0
 135 680 142.333007812 663 143 643 c 0
 143 623 135.666992188 606 121 592 c 0
 107 578 90.3330078125 571 71 571 c 1
 71 571 l 1
214 571 m 1
 194 571 177.333007812 578 164 592 c 0
 150 606 143 623 143 643 c 0
 143 662.333007812 150 679.333007812 164 694 c 0
 178 708 194.666992188 714.666992188 214 714 c 0
 234 714 251 707.333007812 265 694 c 0
 279 680 286 663 286 643 c 0
 286 623 279 606 265 592 c 0
 251 578 234 571 214 571 c 1
 214 571 l 1
357 571 m 1
 337 571 320 578 306 592 c 0
 292 606 285.333007812 623 286 643 c 0
 286 662.333007812 292.666992188 679.333007812 306 694 c 0
 320 708 337 714.666992188 357 714 c 0
 376.333007812 714 393 707.333007812 407 694 c 0
 421 680 428.333007812 663 429 643 c 0
 429 623 421.666992188 606 407 592 c 0
 393 578 376.333007812 571 357 571 c 1
 357 571 l 1
500 571 m 1
 480 571 463 578 449 592 c 0
 435 606 428.333007812 623 429 643 c 0
 429 662.333007812 435.666992188 679.333007812 449 694 c 0
 463 708 480 714.666992188 500 714 c 0
 520 714 537 707.333007812 551 694 c 0
 565 680 571.666992188 663 571 643 c 0
 571 623 564.333007812 606 551 592 c 0
 537 578 520 571 500 571 c 1
 500 571 l 1
71 714 m 1
 51.6669921875 714 35 721 21 735 c 0
 7 749 0 766 0 786 c 0
 0 806 7 822.666992188 21 836 c 0
 35 850 51.6669921875 857 71 857 c 0
 91 857 107.666992188 850 121 836 c 0
 135 822 142.333007812 805.333007812 143 786 c 0
 143 766.666992188 135.666992188 749.666992188 121 735 c 0
 107 721 90.3330078125 714 71 714 c 1
 71 714 l 1
643 714 m 1
 623 714 606 721 592 735 c 0
 578 749 571 766 571 786 c 0
 571 806 578 822.666992188 592 836 c 0
 606 850 623 857 643 857 c 0
 662.333007812 857 679.333007812 850 694 836 c 0
 708 822 714.666992188 805.333007812 714 786 c 0
 714 766.666992188 707.333007812 749.666992188 694 735 c 0
 680 721 663 714 643 714 c 1
 643 714 l 1
71 857 m 1
 51.6669921875 857 35 864 21 878 c 0
 7 892 0 909 0 929 c 0
 0 949 7 965.666992188 21 979 c 0
 35 993 51.6669921875 1000 71 1000 c 0
 91 1000 107.666992188 993 121 979 c 0
 135 965 142.333007812 948.333007812 143 929 c 0
 143 909 135.666992188 892 121 878 c 0
 107 864 90.3330078125 857 71 857 c 1
 71 857 l 1
786 857 m 1
 766.666992188 857 749.666992188 864 735 878 c 0
 721 892 714 909 714 929 c 0
 714 949 721 965.666992188 735 979 c 0
 749 993 766 1000 786 1000 c 0
 806 1000 822.666992188 993 836 979 c 0
 850 965 857 948.333007812 857 929 c 0
 857 909 850 892 836 878 c 0
 822 864 805.333007812 857 786 857 c 1
 786 857 l 1
EndSplineSet
Validated: 524325
EndChar

StartChar: B
Encoding: 66 66 24
Width: 999
GlyphClass: 2
Flags: W
LayerCount: 2
Fore
SplineSet
214 0 m 1
 194 0 177.333007812 7 164 21 c 0
 150 35 143 51.6669921875 143 71 c 0
 143 91 150 107.666992188 164 121 c 0
 178 135 194.666992188 142.333007812 214 143 c 0
 234 143 251 135.666992188 265 121 c 0
 279 107 286 90.3330078125 286 71 c 0
 286 51.6669921875 279 35 265 21 c 0
 251 7 234 0 214 0 c 1
 214 0 l 1
357 0 m 1
 337 0 320 7 306 21 c 0
 292 35 285.333007812 51.6669921875 286 71 c 0
 286 91 292.666992188 107.666992188 306 121 c 0
 320 135 337 142.333007812 357 143 c 0
 376.333007812 143 393 135.666992188 407 121 c 0
 421 107 428.333007812 90.3330078125 429 71 c 0
 429 51.6669921875 421.666992188 35 407 21 c 0
 393 7 376.333007812 0 357 0 c 1
 357 0 l 1
500 0 m 1
 480 0 463 7 449 21 c 0
 435 35 428.333007812 51.6669921875 429 71 c 0
 429 91 435.666992188 107.666992188 449 121 c 0
 463 135 480 142.333007812 500 143 c 0
 520 143 537 135.666992188 551 121 c 0
 565 107 571.666992188 90.3330078125 571 71 c 0
 571 51.6669921875 564.333007812 35 551 21 c 0
 537 7 520 0 500 0 c 1
 500 0 l 1
643 0 m 1
 623 0 606 7 592 21 c 0
 578 35 571 51.6669921875 571 71 c 0
 571 91 578 107.666992188 592 121 c 0
 606 135 623 142.333007812 643 143 c 0
 662.333007812 143 679.333007812 135.666992188 694 121 c 0
 708 107 714.666992188 90.3330078125 714 71 c 0
 714 51.6669921875 707.333007812 35 694 21 c 0
 680 7 663 0 643 0 c 1
 643 0 l 1
71 143 m 1
 51.6669921875 143 35 150 21 164 c 0
 7 178 0 194.666992188 0 214 c 0
 0 234 7 251 21 265 c 0
 35 279 51.6669921875 286 71 286 c 0
 91 286 107.666992188 279 121 265 c 0
 135 251 142.333007812 234 143 214 c 0
 143 194 135.666992188 177.333007812 121 164 c 0
 107 150 90.3330078125 143 71 143 c 1
 71 143 l 1
786 143 m 1
 766.666992188 143 749.666992188 150 735 164 c 0
 721 178 714 194.666992188 714 214 c 0
 714 234 721 251 735 265 c 0
 749 279 766 286 786 286 c 0
 806 286 822.666992188 279 836 265 c 0
 850 251 857 234 857 214 c 0
 857 194 850 177.333007812 836 164 c 0
 822 150 805.333007812 143 786 143 c 1
 786 143 l 1
214 429 m 1
 194 429 177.333007812 435.666992188 164 449 c 0
 150 463 143 480 143 500 c 0
 143 520 150 537 164 551 c 0
 178 565 194.666992188 571.666992188 214 571 c 0
 234 571 251 564.333007812 265 551 c 0
 279 537 286 520 286 500 c 0
 286 480 279 463 265 449 c 0
 251 435 234 428.333007812 214 429 c 1
 214 429 l 1
357 429 m 1
 337 429 320 435.666992188 306 449 c 0
 292 463 285.333007812 480 286 500 c 0
 286 520 292.666992188 537 306 551 c 0
 320 565 337 571.666992188 357 571 c 0
 376.333007812 571 393 564.333007812 407 551 c 0
 421 537 428.333007812 520 429 500 c 0
 429 480 421.666992188 463 407 449 c 0
 393 435 376.333007812 428.333007812 357 429 c 1
 357 429 l 1
500 429 m 1
 480 429 463 435.666992188 449 449 c 0
 435 463 428.333007812 480 429 500 c 0
 429 520 435.666992188 537 449 551 c 0
 463 565 480 571.666992188 500 571 c 0
 520 571 537 564.333007812 551 551 c 0
 565 537 571.666992188 520 571 500 c 0
 571 480 564.333007812 463 551 449 c 0
 537 435 520 428.333007812 500 429 c 1
 500 429 l 1
643 429 m 1
 623 429 606 435.666992188 592 449 c 0
 578 463 571 480 571 500 c 0
 571 520 578 537 592 551 c 0
 606 565 623 571.666992188 643 571 c 0
 662.333007812 571 679.333007812 564.333007812 694 551 c 0
 708 537 714.666992188 520 714 500 c 0
 714 480 707.333007812 463 694 449 c 0
 680 435 663 428.333007812 643 429 c 1
 643 429 l 1
71 714 m 1
 51.6669921875 714 35 721 21 735 c 0
 7 749 0 766 0 786 c 0
 0 806 7 822.666992188 21 836 c 0
 35 850 51.6669921875 857 71 857 c 0
 91 857 107.666992188 850 121 836 c 0
 135 822 142.333007812 805.333007812 143 786 c 0
 143 766.666992188 135.666992188 749.666992188 121 735 c 0
 107 721 90.3330078125 714 71 714 c 1
 71 714 l 1
786 714 m 1
 766.666992188 714 749.666992188 721 735 735 c 0
 721 749 714 766 714 786 c 0
 714 806 721 822.666992188 735 836 c 0
 749 850 766 857 786 857 c 0
 806 857 822.666992188 850 836 836 c 0
 850 822 857 805.333007812 857 786 c 0
 857 766.666992188 850 749.666992188 836 735 c 0
 822 721 805.333007812 714 786 714 c 1
 786 714 l 1
214 857 m 1
 194 857 177.333007812 864 164 878 c 0
 150 892 143 909 143 929 c 0
 143 949 150 965.666992188 164 979 c 0
 178 993 194.666992188 1000 214 1000 c 0
 234 1000 251 993 265 979 c 0
 279 965 286 948.333007812 286 929 c 0
 286 909 279 892 265 878 c 0
 251 864 234 857 214 857 c 1
 214 857 l 1
357 857 m 1
 337 857 320 864 306 878 c 0
 292 892 285.333007812 909 286 929 c 0
 286 949 292.666992188 965.666992188 306 979 c 0
 320 993 337 1000 357 1000 c 0
 376.333007812 1000 393 993 407 979 c 0
 421 965 428.333007812 948.333007812 429 929 c 0
 429 909 421.666992188 892 407 878 c 0
 393 864 376.333007812 857 357 857 c 1
 357 857 l 1
500 857 m 1
 480 857 463 864 449 878 c 0
 435 892 428.333007812 909 429 929 c 0
 429 949 435.666992188 965.666992188 449 979 c 0
 463 993 480 1000 500 1000 c 0
 520 1000 537 993 551 979 c 0
 565 965 571.666992188 948.333007812 571 929 c 0
 571 909 564.333007812 892 551 878 c 0
 537 864 520 857 500 857 c 1
 500 857 l 1
643 857 m 1
 623 857 606 864 592 878 c 0
 578 892 571 909 571 929 c 0
 571 949 578 965.666992188 592 979 c 0
 606 993 623 1000 643 1000 c 0
 662.333007812 1000 679.333007812 993 694 979 c 0
 708 965 714.666992188 948.333007812 714 929 c 0
 714 909 707.333007812 892 694 878 c 0
 680 864 663 857 643 857 c 1
 643 857 l 1
EndSplineSet
Validated: 524325
EndChar

StartChar: C
Encoding: 67 67 25
Width: 999
GlyphClass: 2
Flags: W
LayerCount: 2
Fore
SplineSet
786 0 m 1
 766.666992188 0 749.666992188 7 735 21 c 0
 721 35 714 51.6669921875 714 71 c 0
 714 91 721 107.666992188 735 121 c 0
 749 135 766 142.333007812 786 143 c 0
 806 143 822.666992188 135.666992188 836 121 c 0
 850 107 857 90.3330078125 857 71 c 0
 857 51.6669921875 850 35 836 21 c 0
 822 7 805.333007812 0 786 0 c 1
 786 0 l 1
786 143 m 1
 766.666992188 143 749.666992188 150 735 164 c 0
 721 178 714 194.666992188 714 214 c 0
 714 234 721 251 735 265 c 0
 749 279 766 286 786 286 c 0
 806 286 822.666992188 279 836 265 c 0
 850 251 857 234 857 214 c 0
 857 194 850 177.333007812 836 164 c 0
 822 150 805.333007812 143 786 143 c 1
 786 143 l 1
214 286 m 1
 194 286 177.333007812 292.666992188 164 306 c 0
 150 320 143 337 143 357 c 0
 143 376.333007812 150 393 164 407 c 0
 178 421 194.666992188 428.333007812 214 429 c 0
 234 429 251 421.666992188 265 407 c 0
 279 393 286 376.333007812 286 357 c 0
 286 337 279 320 265 306 c 0
 251 292 234 285.333007812 214 286 c 1
 214 286 l 1
500 286 m 1
 480 286 463 292.666992188 449 306 c 0
 435 320 428.333007812 337 429 357 c 0
 429 376.333007812 435.666992188 393 449 407 c 0
 463 421 480 428.333007812 500 429 c 0
 520 429 537 421.666992188 551 407 c 0
 565 393 571.666992188 376.333007812 571 357 c 0
 571 337 564.333007812 320 551 306 c 0
 537 292 520 285.333007812 500 286 c 1
 500 286 l 1
786 286 m 1
 766.666992188 286 749.666992188 292.666992188 735 306 c 0
 721 320 714 337 714 357 c 0
 714 376.333007812 721 393 735 407 c 0
 749 421 766 428.333007812 786 429 c 0
 806 429 822.666992188 421.666992188 836 407 c 0
 850 393 857 376.333007812 857 357 c 0
 857 337 850 320 836 306 c 0
 822 292 805.333007812 285.333007812 786 286 c 1
 786 286 l 1
214 429 m 1
 194 429 177.333007812 435.666992188 164 449 c 0
 150 463 143 480 143 500 c 0
 143 520 150 537 164 551 c 0
 178 565 194.666992188 571.666992188 214 571 c 0
 234 571 251 564.333007812 265 551 c 0
 279 537 286 520 286 500 c 0
 286 480 279 463 265 449 c 0
 251 435 234 428.333007812 214 429 c 1
 214 429 l 1
500 429 m 1
 480 429 463 435.666992188 449 449 c 0
 435 463 428.333007812 480 429 500 c 0
 429 520 435.666992188 537 449 551 c 0
 463 565 480 571.666992188 500 571 c 0
 520 571 537 564.333007812 551 551 c 0
 565 537 571.666992188 520 571 500 c 0
 571 480 564.333007812 463 551 449 c 0
 537 435 520 428.333007812 500 429 c 1
 500 429 l 1
786 429 m 1
 766.666992188 429 749.666992188 435.666992188 735 449 c 0
 721 463 714 480 714 500 c 0
 714 520 721 537 735 551 c 0
 749 565 766 571.666992188 786 571 c 0
 806 571 822.666992188 564.333007812 836 551 c 0
 850 537 857 520 857 500 c 0
 857 480 850 463 836 449 c 0
 822 435 805.333007812 428.333007812 786 429 c 1
 786 429 l 1
214 571 m 1
 194 571 177.333007812 578 164 592 c 0
 150 606 143 623 143 643 c 0
 143 662.333007812 150 679.333007812 164 694 c 0
 178 708 194.666992188 714.666992188 214 714 c 0
 234 714 251 707.333007812 265 694 c 0
 279 680 286 663 286 643 c 0
 286 623 279 606 265 592 c 0
 251 578 234 571 214 571 c 1
 214 571 l 1
500 571 m 1
 480 571 463 578 449 592 c 0
 435 606 428.333007812 623 429 643 c 0
 429 662.333007812 435.666992188 679.333007812 449 694 c 0
 463 708 480 714.666992188 500 714 c 0
 520 714 537 707.333007812 551 694 c 0
 565 680 571.666992188 663 571 643 c 0
 571 623 564.333007812 606 551 592 c 0
 537 578 520 571 500 571 c 1
 500 571 l 1
786 571 m 1
 766.666992188 571 749.666992188 578 735 592 c 0
 721 606 714 623 714 643 c 0
 714 662.333007812 721 679.333007812 735 694 c 0
 749 708 766 714.666992188 786 714 c 0
 806 714 822.666992188 707.333007812 836 694 c 0
 850 680 857 663 857 643 c 0
 857 623 850 606 836 592 c 0
 822 578 805.333007812 571 786 571 c 1
 786 571 l 1
214 714 m 1
 194 714 177.333007812 721 164 735 c 0
 150 749 143 766 143 786 c 0
 143 806 150 822.666992188 164 836 c 0
 178 850 194.666992188 857 214 857 c 0
 234 857 251 850 265 836 c 0
 279 822 286 805.333007812 286 786 c 0
 286 766.666992188 279 749.666992188 265 735 c 0
 251 721 234 714 214 714 c 1
 214 714 l 1
71 857 m 1
 51.6669921875 857 35 864 21 878 c 0
 7 892 0 909 0 929 c 0
 0 949 7 965.666992188 21 979 c 0
 35 993 51.6669921875 1000 71 1000 c 0
 91 1000 107.666992188 993 121 979 c 0
 135 965 142.333007812 948.333007812 143 929 c 0
 143 909 135.666992188 892 121 878 c 0
 107 864 90.3330078125 857 71 857 c 1
 71 857 l 1
214 857 m 1
 194 857 177.333007812 864 164 878 c 0
 150 892 143 909 143 929 c 0
 143 949 150 965.666992188 164 979 c 0
 178 993 194.666992188 1000 214 1000 c 0
 234 1000 251 993 265 979 c 0
 279 965 286 948.333007812 286 929 c 0
 286 909 279 892 265 878 c 0
 251 864 234 857 214 857 c 1
 214 857 l 1
EndSplineSet
Validated: 524325
EndChar

StartChar: D
Encoding: 68 68 26
Width: 999
GlyphClass: 2
Flags: W
LayerCount: 2
Fore
SplineSet
357 0 m 1
 337 0 320 7 306 21 c 0
 292 35 285.333007812 51.6669921875 286 71 c 0
 286 91 292.666992188 107.666992188 306 121 c 0
 320 135 337 142.333007812 357 143 c 0
 376.333007812 143 393 135.666992188 407 121 c 0
 421 107 428.333007812 90.3330078125 429 71 c 0
 429 51.6669921875 421.666992188 35 407 21 c 0
 393 7 376.333007812 0 357 0 c 1
 357 0 l 1
357 143 m 1
 337 143 320 150 306 164 c 0
 292 178 285.333007812 194.666992188 286 214 c 0
 286 234 292.666992188 251 306 265 c 0
 320 279 337 286 357 286 c 0
 376.333007812 286 393 279 407 265 c 0
 421 251 428.333007812 234 429 214 c 0
 429 194 421.666992188 177.333007812 407 164 c 0
 393 150 376.333007812 143 357 143 c 1
 357 143 l 1
500 286 m 1
 480 286 463 292.666992188 449 306 c 0
 435 320 428.333007812 337 429 357 c 0
 429 376.333007812 435.666992188 393 449 407 c 0
 463 421 480 428.333007812 500 429 c 0
 520 429 537 421.666992188 551 407 c 0
 565 393 571.666992188 376.333007812 571 357 c 0
 571 337 564.333007812 320 551 306 c 0
 537 292 520 285.333007812 500 286 c 1
 500 286 l 1
214 429 m 1
 194 429 177.333007812 435.666992188 164 449 c 0
 150 463 143 480 143 500 c 0
 143 520 150 537 164 551 c 0
 178 565 194.666992188 571.666992188 214 571 c 0
 234 571 251 564.333007812 265 551 c 0
 279 537 286 520 286 500 c 0
 286 480 279 463 265 449 c 0
 251 435 234 428.333007812 214 429 c 1
 214 429 l 1
357 429 m 1
 337 429 320 435.666992188 306 449 c 0
 292 463 285.333007812 480 286 500 c 0
 286 520 292.666992188 537 306 551 c 0
 320 565 337 571.666992188 357 571 c 0
 376.333007812 571 393 564.333007812 407 551 c 0
 421 537 428.333007812 520 429 500 c 0
 429 480 421.666992188 463 407 449 c 0
 393 435 376.333007812 428.333007812 357 429 c 1
 357 429 l 1
500 429 m 1
 480 429 463 435.666992188 449 449 c 0
 435 463 428.333007812 480 429 500 c 0
 429 520 435.666992188 537 449 551 c 0
 463 565 480 571.666992188 500 571 c 0
 520 571 537 564.333007812 551 551 c 0
 565 537 571.666992188 520 571 500 c 0
 571 480 564.333007812 463 551 449 c 0
 537 435 520 428.333007812 500 429 c 1
 500 429 l 1
643 571 m 1
 623 571 606 578 592 592 c 0
 578 606 571 623 571 643 c 0
 571 662.333007812 578 679.333007812 592 694 c 0
 606 708 623 714.666992188 643 714 c 0
 662.333007812 714 679.333007812 707.333007812 694 694 c 0
 708 680 714.666992188 663 714 643 c 0
 714 623 707.333007812 606 694 592 c 0
 680 578 663 571 643 571 c 1
 643 571 l 1
643 714 m 1
 623 714 606 721 592 735 c 0
 578 749 571 766 571 786 c 0
 571 806 578 822.666992188 592 836 c 0
 606 850 623 857 643 857 c 0
 662.333007812 857 679.333007812 850 694 836 c 0
 708 822 714.666992188 805.333007812 714 786 c 0
 714 766.666992188 707.333007812 749.666992188 694 735 c 0
 680 721 663 714 643 714 c 1
 643 714 l 1
71 857 m 1
 51.6669921875 857 35 864 21 878 c 0
 7 892 0 909 0 929 c 0
 0 949 7 965.666992188 21 979 c 0
 35 993 51.6669921875 1000 71 1000 c 0
 91 1000 107.666992188 993 121 979 c 0
 135 965 142.333007812 948.333007812 143 929 c 0
 143 909 135.666992188 892 121 878 c 0
 107 864 90.3330078125 857 71 857 c 1
 71 857 l 1
214 857 m 1
 194 857 177.333007812 864 164 878 c 0
 150 892 143 909 143 929 c 0
 143 949 150 965.666992188 164 979 c 0
 178 993 194.666992188 1000 214 1000 c 0
 234 1000 251 993 265 979 c 0
 279 965 286 948.333007812 286 929 c 0
 286 909 279 892 265 878 c 0
 251 864 234 857 214 857 c 1
 214 857 l 1
357 857 m 1
 337 857 320 864 306 878 c 0
 292 892 285.333007812 909 286 929 c 0
 286 949 292.666992188 965.666992188 306 979 c 0
 320 993 337 1000 357 1000 c 0
 376.333007812 1000 393 993 407 979 c 0
 421 965 428.333007812 948.333007812 429 929 c 0
 429 909 421.666992188 892 407 878 c 0
 393 864 376.333007812 857 357 857 c 1
 357 857 l 1
500 857 m 1
 480 857 463 864 449 878 c 0
 435 892 428.333007812 909 429 929 c 0
 429 949 435.666992188 965.666992188 449 979 c 0
 463 993 480 1000 500 1000 c 0
 520 1000 537 993 551 979 c 0
 565 965 571.666992188 948.333007812 571 929 c 0
 571 909 564.333007812 892 551 878 c 0
 537 864 520 857 500 857 c 1
 500 857 l 1
643 857 m 1
 623 857 606 864 592 878 c 0
 578 892 571 909 571 929 c 0
 571 949 578 965.666992188 592 979 c 0
 606 993 623 1000 643 1000 c 0
 662.333007812 1000 679.333007812 993 694 979 c 0
 708 965 714.666992188 948.333007812 714 929 c 0
 714 909 707.333007812 892 694 878 c 0
 680 864 663 857 643 857 c 1
 643 857 l 1
786 857 m 1
 766.666992188 857 749.666992188 864 735 878 c 0
 721 892 714 909 714 929 c 0
 714 949 721 965.666992188 735 979 c 0
 749 993 766 1000 786 1000 c 0
 806 1000 822.666992188 993 836 979 c 0
 850 965 857 948.333007812 857 929 c 0
 857 909 850 892 836 878 c 0
 822 864 805.333007812 857 786 857 c 1
 786 857 l 1
EndSplineSet
Validated: 524325
EndChar

StartChar: E
Encoding: 69 69 27
Width: 999
GlyphClass: 2
Flags: W
LayerCount: 2
Fore
SplineSet
214 0 m 1
 194 0 177.333007812 7 164 21 c 0
 150 35 143 51.6669921875 143 71 c 0
 143 91 150 107.666992188 164 121 c 0
 178 135 194.666992188 142.333007812 214 143 c 0
 234 143 251 135.666992188 265 121 c 0
 279 107 286 90.3330078125 286 71 c 0
 286 51.6669921875 279 35 265 21 c 0
 251 7 234 0 214 0 c 1
 214 0 l 1
643 0 m 1
 623 0 606 7 592 21 c 0
 578 35 571 51.6669921875 571 71 c 0
 571 91 578 107.666992188 592 121 c 0
 606 135 623 142.333007812 643 143 c 0
 662.333007812 143 679.333007812 135.666992188 694 121 c 0
 708 107 714.666992188 90.3330078125 714 71 c 0
 714 51.6669921875 707.333007812 35 694 21 c 0
 680 7 663 0 643 0 c 1
 643 0 l 1
214 143 m 1
 194 143 177.333007812 150 164 164 c 0
 150 178 143 194.666992188 143 214 c 0
 143 234 150 251 164 265 c 0
 178 279 194.666992188 286 214 286 c 0
 234 286 251 279 265 265 c 0
 279 251 286 234 286 214 c 0
 286 194 279 177.333007812 265 164 c 0
 251 150 234 143 214 143 c 1
 214 143 l 1
643 143 m 1
 623 143 606 150 592 164 c 0
 578 178 571 194.666992188 571 214 c 0
 571 234 578 251 592 265 c 0
 606 279 623 286 643 286 c 0
 662.333007812 286 679.333007812 279 694 265 c 0
 708 251 714.666992188 234 714 214 c 0
 714 194 707.333007812 177.333007812 694 164 c 0
 680 150 663 143 643 143 c 1
 643 143 l 1
71 286 m 1
 51.6669921875 286 35 292.666992188 21 306 c 0
 7 320 0 337 0 357 c 0
 0 376.333007812 7 393 21 407 c 0
 35 421 51.6669921875 428.333007812 71 429 c 0
 91 429 107.666992188 421.666992188 121 407 c 0
 135 393 142.333007812 376.333007812 143 357 c 0
 143 337 135.666992188 320 121 306 c 0
 107 292 90.3330078125 285.333007812 71 286 c 1
 71 286 l 1
357 286 m 1
 337 286 320 292.666992188 306 306 c 0
 292 320 285.333007812 337 286 357 c 0
 286 376.333007812 292.666992188 393 306 407 c 0
 320 421 337 428.333007812 357 429 c 0
 376.333007812 429 393 421.666992188 407 407 c 0
 421 393 428.333007812 376.333007812 429 357 c 0
 429 337 421.666992188 320 407 306 c 0
 393 292 376.333007812 285.333007812 357 286 c 1
 357 286 l 1
643 286 m 1
 623 286 606 292.666992188 592 306 c 0
 578 320 571 337 571 357 c 0
 571 376.333007812 578 393 592 407 c 0
 606 421 623 428.333007812 643 429 c 0
 662.333007812 429 679.333007812 421.666992188 694 407 c 0
 708 393 714.666992188 376.333007812 714 357 c 0
 714 337 707.333007812 320 694 306 c 0
 680 292 663 285.333007812 643 286 c 1
 643 286 l 1
71 429 m 1
 51.6669921875 429 35 435.666992188 21 449 c 0
 7 463 0 480 0 500 c 0
 0 520 7 537 21 551 c 0
 35 565 51.6669921875 571.666992188 71 571 c 0
 91 571 107.666992188 564.333007812 121 551 c 0
 135 537 142.333007812 520 143 500 c 0
 143 480 135.666992188 463 121 449 c 0
 107 435 90.3330078125 428.333007812 71 429 c 1
 71 429 l 1
357 429 m 1
 337 429 320 435.666992188 306 449 c 0
 292 463 285.333007812 480 286 500 c 0
 286 520 292.666992188 537 306 551 c 0
 320 565 337 571.666992188 357 571 c 0
 376.333007812 571 393 564.333007812 407 551 c 0
 421 537 428.333007812 520 429 500 c 0
 429 480 421.666992188 463 407 449 c 0
 393 435 376.333007812 428.333007812 357 429 c 1
 357 429 l 1
643 429 m 1
 623 429 606 435.666992188 592 449 c 0
 578 463 571 480 571 500 c 0
 571 520 578 537 592 551 c 0
 606 565 623 571.666992188 643 571 c 0
 662.333007812 571 679.333007812 564.333007812 694 551 c 0
 708 537 714.666992188 520 714 500 c 0
 714 480 707.333007812 463 694 449 c 0
 680 435 663 428.333007812 643 429 c 1
 643 429 l 1
71 571 m 1
 51.6669921875 571 35 578 21 592 c 0
 7 606 0 623 0 643 c 0
 0 662.333007812 7 679.333007812 21 694 c 0
 35 708 51.6669921875 714.666992188 71 714 c 0
 91 714 107.666992188 707.333007812 121 694 c 0
 135 680 142.333007812 663 143 643 c 0
 143 623 135.666992188 606 121 592 c 0
 107 578 90.3330078125 571 71 571 c 1
 71 571 l 1
357 571 m 1
 337 571 320 578 306 592 c 0
 292 606 285.333007812 623 286 643 c 0
 286 662.333007812 292.666992188 679.333007812 306 694 c 0
 320 708 337 714.666992188 357 714 c 0
 376.333007812 714 393 707.333007812 407 694 c 0
 421 680 428.333007812 663 429 643 c 0
 429 623 421.666992188 606 407 592 c 0
 393 578 376.333007812 571 357 571 c 1
 357 571 l 1
643 571 m 1
 623 571 606 578 592 592 c 0
 578 606 571 623 571 643 c 0
 571 662.333007812 578 679.333007812 592 694 c 0
 606 708 623 714.666992188 643 714 c 0
 662.333007812 714 679.333007812 707.333007812 694 694 c 0
 708 680 714.666992188 663 714 643 c 0
 714 623 707.333007812 606 694 592 c 0
 680 578 663 571 643 571 c 1
 643 571 l 1
71 714 m 1
 51.6669921875 714 35 721 21 735 c 0
 7 749 0 766 0 786 c 0
 0 806 7 822.666992188 21 836 c 0
 35 850 51.6669921875 857 71 857 c 0
 91 857 107.666992188 850 121 836 c 0
 135 822 142.333007812 805.333007812 143 786 c 0
 143 766.666992188 135.666992188 749.666992188 121 735 c 0
 107 721 90.3330078125 714 71 714 c 1
 71 714 l 1
357 714 m 1
 337 714 320 721 306 735 c 0
 292 749 285.333007812 766 286 786 c 0
 286 806 292.666992188 822.666992188 306 836 c 0
 320 850 337 857 357 857 c 0
 376.333007812 857 393 850 407 836 c 0
 421 822 428.333007812 805.333007812 429 786 c 0
 429 766.666992188 421.666992188 749.666992188 407 735 c 0
 393 721 376.333007812 714 357 714 c 1
 357 714 l 1
643 714 m 1
 623 714 606 721 592 735 c 0
 578 749 571 766 571 786 c 0
 571 806 578 822.666992188 592 836 c 0
 606 850 623 857 643 857 c 0
 662.333007812 857 679.333007812 850 694 836 c 0
 708 822 714.666992188 805.333007812 714 786 c 0
 714 766.666992188 707.333007812 749.666992188 694 735 c 0
 680 721 663 714 643 714 c 1
 643 714 l 1
71 857 m 1
 51.6669921875 857 35 864 21 878 c 0
 7 892 0 909 0 929 c 0
 0 949 7 965.666992188 21 979 c 0
 35 993 51.6669921875 1000 71 1000 c 0
 91 1000 107.666992188 993 121 979 c 0
 135 965 142.333007812 948.333007812 143 929 c 0
 143 909 135.666992188 892 121 878 c 0
 107 864 90.3330078125 857 71 857 c 1
 71 857 l 1
357 857 m 1
 337 857 320 864 306 878 c 0
 292 892 285.333007812 909 286 929 c 0
 286 949 292.666992188 965.666992188 306 979 c 0
 320 993 337 1000 357 1000 c 0
 376.333007812 1000 393 993 407 979 c 0
 421 965 428.333007812 948.333007812 429 929 c 0
 429 909 421.666992188 892 407 878 c 0
 393 864 376.333007812 857 357 857 c 1
 357 857 l 1
500 857 m 1
 480 857 463 864 449 878 c 0
 435 892 428.333007812 909 429 929 c 0
 429 949 435.666992188 965.666992188 449 979 c 0
 463 993 480 1000 500 1000 c 0
 520 1000 537 993 551 979 c 0
 565 965 571.666992188 948.333007812 571 929 c 0
 571 909 564.333007812 892 551 878 c 0
 537 864 520 857 500 857 c 1
 500 857 l 1
643 857 m 1
 623 857 606 864 592 878 c 0
 578 892 571 909 571 929 c 0
 571 949 578 965.666992188 592 979 c 0
 606 993 623 1000 643 1000 c 0
 662.333007812 1000 679.333007812 993 694 979 c 0
 708 965 714.666992188 948.333007812 714 929 c 0
 714 909 707.333007812 892 694 878 c 0
 680 864 663 857 643 857 c 1
 643 857 l 1
786 857 m 1
 766.666992188 857 749.666992188 864 735 878 c 0
 721 892 714 909 714 929 c 0
 714 949 721 965.666992188 735 979 c 0
 749 993 766 1000 786 1000 c 0
 806 1000 822.666992188 993 836 979 c 0
 850 965 857 948.333007812 857 929 c 0
 857 909 850 892 836 878 c 0
 822 864 805.333007812 857 786 857 c 1
 786 857 l 1
EndSplineSet
Validated: 524325
EndChar

StartChar: F
Encoding: 70 70 28
Width: 999
GlyphClass: 2
Flags: W
LayerCount: 2
Fore
SplineSet
214 0 m 1
 194 0 177.333007812 7 164 21 c 0
 150 35 143 51.6669921875 143 71 c 0
 143 91 150 107.666992188 164 121 c 0
 178 135 194.666992188 142.333007812 214 143 c 0
 234 143 251 135.666992188 265 121 c 0
 279 107 286 90.3330078125 286 71 c 0
 286 51.6669921875 279 35 265 21 c 0
 251 7 234 0 214 0 c 1
 214 0 l 1
357 0 m 1
 337 0 320 7 306 21 c 0
 292 35 285.333007812 51.6669921875 286 71 c 0
 286 91 292.666992188 107.666992188 306 121 c 0
 320 135 337 142.333007812 357 143 c 0
 376.333007812 143 393 135.666992188 407 121 c 0
 421 107 428.333007812 90.3330078125 429 71 c 0
 429 51.6669921875 421.666992188 35 407 21 c 0
 393 7 376.333007812 0 357 0 c 1
 357 0 l 1
643 0 m 1
 623 0 606 7 592 21 c 0
 578 35 571 51.6669921875 571 71 c 0
 571 91 578 107.666992188 592 121 c 0
 606 135 623 142.333007812 643 143 c 0
 662.333007812 143 679.333007812 135.666992188 694 121 c 0
 708 107 714.666992188 90.3330078125 714 71 c 0
 714 51.6669921875 707.333007812 35 694 21 c 0
 680 7 663 0 643 0 c 1
 643 0 l 1
786 0 m 1
 766.666992188 0 749.666992188 7 735 21 c 0
 721 35 714 51.6669921875 714 71 c 0
 714 91 721 107.666992188 735 121 c 0
 749 135 766 142.333007812 786 143 c 0
 806 143 822.666992188 135.666992188 836 121 c 0
 850 107 857 90.3330078125 857 71 c 0
 857 51.6669921875 850 35 836 21 c 0
 822 7 805.333007812 0 786 0 c 1
 786 0 l 1
71 143 m 1
 51.6669921875 143 35 150 21 164 c 0
 7 178 0 194.666992188 0 214 c 0
 0 234 7 251 21 265 c 0
 35 279 51.6669921875 286 71 286 c 0
 91 286 107.666992188 279 121 265 c 0
 135 251 142.333007812 234 143 214 c 0
 143 194 135.666992188 177.333007812 121 164 c 0
 107 150 90.3330078125 143 71 143 c 1
 71 143 l 1
500 143 m 1
 480 143 463 150 449 164 c 0
 435 178 428.333007812 194.666992188 429 214 c 0
 429 234 435.666992188 251 449 265 c 0
 463 279 480 286 500 286 c 0
 520 286 537 279 551 265 c 0
 565 251 571.666992188 234 571 214 c 0
 571 194 564.333007812 177.333007812 551 164 c 0
 537 150 520 143 500 143 c 1
 500 143 l 1
71 286 m 1
 51.6669921875 286 35 292.666992188 21 306 c 0
 7 320 0 337 0 357 c 0
 0 376.333007812 7 393 21 407 c 0
 35 421 51.6669921875 428.333007812 71 429 c 0
 91 429 107.666992188 421.666992188 121 407 c 0
 135 393 142.333007812 376.333007812 143 357 c 0
 143 337 135.666992188 320 121 306 c 0
 107 292 90.3330078125 285.333007812 71 286 c 1
 71 286 l 1
500 286 m 1
 480 286 463 292.666992188 449 306 c 0
 435 320 428.333007812 337 429 357 c 0
 429 376.333007812 435.666992188 393 449 407 c 0
 463 421 480 428.333007812 500 429 c 0
 520 429 537 421.666992188 551 407 c 0
 565 393 571.666992188 376.333007812 571 357 c 0
 571 337 564.333007812 320 551 306 c 0
 537 292 520 285.333007812 500 286 c 1
 500 286 l 1
71 429 m 1
 51.6669921875 429 35 435.666992188 21 449 c 0
 7 463 0 480 0 500 c 0
 0 520 7 537 21 551 c 0
 35 565 51.6669921875 571.666992188 71 571 c 0
 91 571 107.666992188 564.333007812 121 551 c 0
 135 537 142.333007812 520 143 500 c 0
 143 480 135.666992188 463 121 449 c 0
 107 435 90.3330078125 428.333007812 71 429 c 1
 71 429 l 1
214 429 m 1
 194 429 177.333007812 435.666992188 164 449 c 0
 150 463 143 480 143 500 c 0
 143 520 150 537 164 551 c 0
 178 565 194.666992188 571.666992188 214 571 c 0
 234 571 251 564.333007812 265 551 c 0
 279 537 286 520 286 500 c 0
 286 480 279 463 265 449 c 0
 251 435 234 428.333007812 214 429 c 1
 214 429 l 1
357 429 m 1
 337 429 320 435.666992188 306 449 c 0
 292 463 285.333007812 480 286 500 c 0
 286 520 292.666992188 537 306 551 c 0
 320 565 337 571.666992188 357 571 c 0
 376.333007812 571 393 564.333007812 407 551 c 0
 421 537 428.333007812 520 429 500 c 0
 429 480 421.666992188 463 407 449 c 0
 393 435 376.333007812 428.333007812 357 429 c 1
 357 429 l 1
500 429 m 1
 480 429 463 435.666992188 449 449 c 0
 435 463 428.333007812 480 429 500 c 0
 429 520 435.666992188 537 449 551 c 0
 463 565 480 571.666992188 500 571 c 0
 520 571 537 564.333007812 551 551 c 0
 565 537 571.666992188 520 571 500 c 0
 571 480 564.333007812 463 551 449 c 0
 537 435 520 428.333007812 500 429 c 1
 500 429 l 1
643 429 m 1
 623 429 606 435.666992188 592 449 c 0
 578 463 571 480 571 500 c 0
 571 520 578 537 592 551 c 0
 606 565 623 571.666992188 643 571 c 0
 662.333007812 571 679.333007812 564.333007812 694 551 c 0
 708 537 714.666992188 520 714 500 c 0
 714 480 707.333007812 463 694 449 c 0
 680 435 663 428.333007812 643 429 c 1
 643 429 l 1
500 571 m 1
 480 571 463 578 449 592 c 0
 435 606 428.333007812 623 429 643 c 0
 429 662.333007812 435.666992188 679.333007812 449 694 c 0
 463 708 480 714.666992188 500 714 c 0
 520 714 537 707.333007812 551 694 c 0
 565 680 571.666992188 663 571 643 c 0
 571 623 564.333007812 606 551 592 c 0
 537 578 520 571 500 571 c 1
 500 571 l 1
786 571 m 1
 766.666992188 571 749.666992188 578 735 592 c 0
 721 606 714 623 714 643 c 0
 714 662.333007812 721 679.333007812 735 694 c 0
 749 708 766 714.666992188 786 714 c 0
 806 714 822.666992188 707.333007812 836 694 c 0
 850 680 857 663 857 643 c 0
 857 623 850 606 836 592 c 0
 822 578 805.333007812 571 786 571 c 1
 786 571 l 1
500 714 m 1
 480 714 463 721 449 735 c 0
 435 749 428.333007812 766 429 786 c 0
 429 806 435.666992188 822.666992188 449 836 c 0
 463 850 480 857 500 857 c 0
 520 857 537 850 551 836 c 0
 565 822 571.666992188 805.333007812 571 786 c 0
 571 766.666992188 564.333007812 749.666992188 551 735 c 0
 537 721 520 714 500 714 c 1
 500 714 l 1
500 857 m 1
 480 857 463 864 449 878 c 0
 435 892 428.333007812 909 429 929 c 0
 429 949 435.666992188 965.666992188 449 979 c 0
 463 993 480 1000 500 1000 c 0
 520 1000 537 993 551 979 c 0
 565 965 571.666992188 948.333007812 571 929 c 0
 571 909 564.333007812 892 551 878 c 0
 537 864 520 857 500 857 c 1
 500 857 l 1
EndSplineSet
Validated: 524325
EndChar

StartChar: G
Encoding: 71 71 29
Width: 999
GlyphClass: 2
Flags: W
LayerCount: 2
Fore
SplineSet
71 0 m 1
 51.6669921875 0 35 7 21 21 c 0
 7 35 0 51.6669921875 0 71 c 0
 0 91 7 107.666992188 21 121 c 0
 35 135 51.6669921875 142.333007812 71 143 c 0
 91 143 107.666992188 135.666992188 121 121 c 0
 135 107 142.333007812 90.3330078125 143 71 c 0
 143 51.6669921875 135.666992188 35 121 21 c 0
 107 7 90.3330078125 0 71 0 c 1
 71 0 l 1
214 0 m 1
 194 0 177.333007812 7 164 21 c 0
 150 35 143 51.6669921875 143 71 c 0
 143 91 150 107.666992188 164 121 c 0
 178 135 194.666992188 142.333007812 214 143 c 0
 234 143 251 135.666992188 265 121 c 0
 279 107 286 90.3330078125 286 71 c 0
 286 51.6669921875 279 35 265 21 c 0
 251 7 234 0 214 0 c 1
 214 0 l 1
357 0 m 1
 337 0 320 7 306 21 c 0
 292 35 285.333007812 51.6669921875 286 71 c 0
 286 91 292.666992188 107.666992188 306 121 c 0
 320 135 337 142.333007812 357 143 c 0
 376.333007812 143 393 135.666992188 407 121 c 0
 421 107 428.333007812 90.3330078125 429 71 c 0
 429 51.6669921875 421.666992188 35 407 21 c 0
 393 7 376.333007812 0 357 0 c 1
 357 0 l 1
71 143 m 1
 51.6669921875 143 35 150 21 164 c 0
 7 178 0 194.666992188 0 214 c 0
 0 234 7 251 21 265 c 0
 35 279 51.6669921875 286 71 286 c 0
 91 286 107.666992188 279 121 265 c 0
 135 251 142.333007812 234 143 214 c 0
 143 194 135.666992188 177.333007812 121 164 c 0
 107 150 90.3330078125 143 71 143 c 1
 71 143 l 1
500 143 m 1
 480 143 463 150 449 164 c 0
 435 178 428.333007812 194.666992188 429 214 c 0
 429 234 435.666992188 251 449 265 c 0
 463 279 480 286 500 286 c 0
 520 286 537 279 551 265 c 0
 565 251 571.666992188 234 571 214 c 0
 571 194 564.333007812 177.333007812 551 164 c 0
 537 150 520 143 500 143 c 1
 500 143 l 1
71 286 m 1
 51.6669921875 286 35 292.666992188 21 306 c 0
 7 320 0 337 0 357 c 0
 0 376.333007812 7 393 21 407 c 0
 35 421 51.6669921875 428.333007812 71 429 c 0
 91 429 107.666992188 421.666992188 121 407 c 0
 135 393 142.333007812 376.333007812 143 357 c 0
 143 337 135.666992188 320 121 306 c 0
 107 292 90.3330078125 285.333007812 71 286 c 1
 71 286 l 1
643 286 m 1
 623 286 606 292.666992188 592 306 c 0
 578 320 571 337 571 357 c 0
 571 376.333007812 578 393 592 407 c 0
 606 421 623 428.333007812 643 429 c 0
 662.333007812 429 679.333007812 421.666992188 694 407 c 0
 708 393 714.666992188 376.333007812 714 357 c 0
 714 337 707.333007812 320 694 306 c 0
 680 292 663 285.333007812 643 286 c 1
 643 286 l 1
71 429 m 1
 51.6669921875 429 35 435.666992188 21 449 c 0
 7 463 0 480 0 500 c 0
 0 520 7 537 21 551 c 0
 35 565 51.6669921875 571.666992188 71 571 c 0
 91 571 107.666992188 564.333007812 121 551 c 0
 135 537 142.333007812 520 143 500 c 0
 143 480 135.666992188 463 121 449 c 0
 107 435 90.3330078125 428.333007812 71 429 c 1
 71 429 l 1
786 429 m 1
 766.666992188 429 749.666992188 435.666992188 735 449 c 0
 721 463 714 480 714 500 c 0
 714 520 721 537 735 551 c 0
 749 565 766 571.666992188 786 571 c 0
 806 571 822.666992188 564.333007812 836 551 c 0
 850 537 857 520 857 500 c 0
 857 480 850 463 836 449 c 0
 822 435 805.333007812 428.333007812 786 429 c 1
 786 429 l 1
71 571 m 1
 51.6669921875 571 35 578 21 592 c 0
 7 606 0 623 0 643 c 0
 0 662.333007812 7 679.333007812 21 694 c 0
 35 708 51.6669921875 714.666992188 71 714 c 0
 91 714 107.666992188 707.333007812 121 694 c 0
 135 680 142.333007812 663 143 643 c 0
 143 623 135.666992188 606 121 592 c 0
 107 578 90.3330078125 571 71 571 c 1
 71 571 l 1
357 571 m 1
 337 571 320 578 306 592 c 0
 292 606 285.333007812 623 286 643 c 0
 286 662.333007812 292.666992188 679.333007812 306 694 c 0
 320 708 337 714.666992188 357 714 c 0
 376.333007812 714 393 707.333007812 407 694 c 0
 421 680 428.333007812 663 429 643 c 0
 429 623 421.666992188 606 407 592 c 0
 393 578 376.333007812 571 357 571 c 1
 357 571 l 1
786 571 m 1
 766.666992188 571 749.666992188 578 735 592 c 0
 721 606 714 623 714 643 c 0
 714 662.333007812 721 679.333007812 735 694 c 0
 749 708 766 714.666992188 786 714 c 0
 806 714 822.666992188 707.333007812 836 694 c 0
 850 680 857 663 857 643 c 0
 857 623 850 606 836 592 c 0
 822 578 805.333007812 571 786 571 c 1
 786 571 l 1
71 714 m 1
 51.6669921875 714 35 721 21 735 c 0
 7 749 0 766 0 786 c 0
 0 806 7 822.666992188 21 836 c 0
 35 850 51.6669921875 857 71 857 c 0
 91 857 107.666992188 850 121 836 c 0
 135 822 142.333007812 805.333007812 143 786 c 0
 143 766.666992188 135.666992188 749.666992188 121 735 c 0
 107 721 90.3330078125 714 71 714 c 1
 71 714 l 1
357 714 m 1
 337 714 320 721 306 735 c 0
 292 749 285.333007812 766 286 786 c 0
 286 806 292.666992188 822.666992188 306 836 c 0
 320 850 337 857 357 857 c 0
 376.333007812 857 393 850 407 836 c 0
 421 822 428.333007812 805.333007812 429 786 c 0
 429 766.666992188 421.666992188 749.666992188 407 735 c 0
 393 721 376.333007812 714 357 714 c 1
 357 714 l 1
786 714 m 1
 766.666992188 714 749.666992188 721 735 735 c 0
 721 749 714 766 714 786 c 0
 714 806 721 822.666992188 735 836 c 0
 749 850 766 857 786 857 c 0
 806 857 822.666992188 850 836 836 c 0
 850 822 857 805.333007812 857 786 c 0
 857 766.666992188 850 749.666992188 836 735 c 0
 822 721 805.333007812 714 786 714 c 1
 786 714 l 1
71 857 m 1
 51.6669921875 857 35 864 21 878 c 0
 7 892 0 909 0 929 c 0
 0 949 7 965.666992188 21 979 c 0
 35 993 51.6669921875 1000 71 1000 c 0
 91 1000 107.666992188 993 121 979 c 0
 135 965 142.333007812 948.333007812 143 929 c 0
 143 909 135.666992188 892 121 878 c 0
 107 864 90.3330078125 857 71 857 c 1
 71 857 l 1
357 857 m 1
 337 857 320 864 306 878 c 0
 292 892 285.333007812 909 286 929 c 0
 286 949 292.666992188 965.666992188 306 979 c 0
 320 993 337 1000 357 1000 c 0
 376.333007812 1000 393 993 407 979 c 0
 421 965 428.333007812 948.333007812 429 929 c 0
 429 909 421.666992188 892 407 878 c 0
 393 864 376.333007812 857 357 857 c 1
 357 857 l 1
500 857 m 1
 480 857 463 864 449 878 c 0
 435 892 428.333007812 909 429 929 c 0
 429 949 435.666992188 965.666992188 449 979 c 0
 463 993 480 1000 500 1000 c 0
 520 1000 537 993 551 979 c 0
 565 965 571.666992188 948.333007812 571 929 c 0
 571 909 564.333007812 892 551 878 c 0
 537 864 520 857 500 857 c 1
 500 857 l 1
643 857 m 1
 623 857 606 864 592 878 c 0
 578 892 571 909 571 929 c 0
 571 949 578 965.666992188 592 979 c 0
 606 993 623 1000 643 1000 c 0
 662.333007812 1000 679.333007812 993 694 979 c 0
 708 965 714.666992188 948.333007812 714 929 c 0
 714 909 707.333007812 892 694 878 c 0
 680 864 663 857 643 857 c 1
 643 857 l 1
786 857 m 1
 766.666992188 857 749.666992188 864 735 878 c 0
 721 892 714 909 714 929 c 0
 714 949 721 965.666992188 735 979 c 0
 749 993 766 1000 786 1000 c 0
 806 1000 822.666992188 993 836 979 c 0
 850 965 857 948.333007812 857 929 c 0
 857 909 850 892 836 878 c 0
 822 864 805.333007812 857 786 857 c 1
 786 857 l 1
EndSplineSet
Validated: 524325
EndChar

StartChar: H
Encoding: 72 72 30
Width: 999
GlyphClass: 2
Flags: W
LayerCount: 2
Fore
SplineSet
71 0 m 1
 51.6669921875 0 35 7 21 21 c 0
 7 35 0 51.6669921875 0 71 c 0
 0 91 7 107.666992188 21 121 c 0
 35 135 51.6669921875 142.333007812 71 143 c 0
 91 143 107.666992188 135.666992188 121 121 c 0
 135 107 142.333007812 90.3330078125 143 71 c 0
 143 51.6669921875 135.666992188 35 121 21 c 0
 107 7 90.3330078125 0 71 0 c 1
 71 0 l 1
214 0 m 1
 194 0 177.333007812 7 164 21 c 0
 150 35 143 51.6669921875 143 71 c 0
 143 91 150 107.666992188 164 121 c 0
 178 135 194.666992188 142.333007812 214 143 c 0
 234 143 251 135.666992188 265 121 c 0
 279 107 286 90.3330078125 286 71 c 0
 286 51.6669921875 279 35 265 21 c 0
 251 7 234 0 214 0 c 1
 214 0 l 1
357 0 m 1
 337 0 320 7 306 21 c 0
 292 35 285.333007812 51.6669921875 286 71 c 0
 286 91 292.666992188 107.666992188 306 121 c 0
 320 135 337 142.333007812 357 143 c 0
 376.333007812 143 393 135.666992188 407 121 c 0
 421 107 428.333007812 90.3330078125 429 71 c 0
 429 51.6669921875 421.666992188 35 407 21 c 0
 393 7 376.333007812 0 357 0 c 1
 357 0 l 1
500 0 m 1
 480 0 463 7 449 21 c 0
 435 35 428.333007812 51.6669921875 429 71 c 0
 429 91 435.666992188 107.666992188 449 121 c 0
 463 135 480 142.333007812 500 143 c 0
 520 143 537 135.666992188 551 121 c 0
 565 107 571.666992188 90.3330078125 571 71 c 0
 571 51.6669921875 564.333007812 35 551 21 c 0
 537 7 520 0 500 0 c 1
 500 0 l 1
643 0 m 1
 623 0 606 7 592 21 c 0
 578 35 571 51.6669921875 571 71 c 0
 571 91 578 107.666992188 592 121 c 0
 606 135 623 142.333007812 643 143 c 0
 662.333007812 143 679.333007812 135.666992188 694 121 c 0
 708 107 714.666992188 90.3330078125 714 71 c 0
 714 51.6669921875 707.333007812 35 694 21 c 0
 680 7 663 0 643 0 c 1
 643 0 l 1
786 0 m 1
 766.666992188 0 749.666992188 7 735 21 c 0
 721 35 714 51.6669921875 714 71 c 0
 714 91 721 107.666992188 735 121 c 0
 749 135 766 142.333007812 786 143 c 0
 806 143 822.666992188 135.666992188 836 121 c 0
 850 107 857 90.3330078125 857 71 c 0
 857 51.6669921875 850 35 836 21 c 0
 822 7 805.333007812 0 786 0 c 1
 786 0 l 1
214 429 m 1
 194 429 177.333007812 435.666992188 164 449 c 0
 150 463 143 480 143 500 c 0
 143 520 150 537 164 551 c 0
 178 565 194.666992188 571.666992188 214 571 c 0
 234 571 251 564.333007812 265 551 c 0
 279 537 286 520 286 500 c 0
 286 480 279 463 265 449 c 0
 251 435 234 428.333007812 214 429 c 1
 214 429 l 1
357 429 m 1
 337 429 320 435.666992188 306 449 c 0
 292 463 285.333007812 480 286 500 c 0
 286 520 292.666992188 537 306 551 c 0
 320 565 337 571.666992188 357 571 c 0
 376.333007812 571 393 564.333007812 407 551 c 0
 421 537 428.333007812 520 429 500 c 0
 429 480 421.666992188 463 407 449 c 0
 393 435 376.333007812 428.333007812 357 429 c 1
 357 429 l 1
500 429 m 1
 480 429 463 435.666992188 449 449 c 0
 435 463 428.333007812 480 429 500 c 0
 429 520 435.666992188 537 449 551 c 0
 463 565 480 571.666992188 500 571 c 0
 520 571 537 564.333007812 551 551 c 0
 565 537 571.666992188 520 571 500 c 0
 571 480 564.333007812 463 551 449 c 0
 537 435 520 428.333007812 500 429 c 1
 500 429 l 1
643 429 m 1
 623 429 606 435.666992188 592 449 c 0
 578 463 571 480 571 500 c 0
 571 520 578 537 592 551 c 0
 606 565 623 571.666992188 643 571 c 0
 662.333007812 571 679.333007812 564.333007812 694 551 c 0
 708 537 714.666992188 520 714 500 c 0
 714 480 707.333007812 463 694 449 c 0
 680 435 663 428.333007812 643 429 c 1
 643 429 l 1
71 857 m 1
 51.6669921875 857 35 864 21 878 c 0
 7 892 0 909 0 929 c 0
 0 949 7 965.666992188 21 979 c 0
 35 993 51.6669921875 1000 71 1000 c 0
 91 1000 107.666992188 993 121 979 c 0
 135 965 142.333007812 948.333007812 143 929 c 0
 143 909 135.666992188 892 121 878 c 0
 107 864 90.3330078125 857 71 857 c 1
 71 857 l 1
214 857 m 1
 194 857 177.333007812 864 164 878 c 0
 150 892 143 909 143 929 c 0
 143 949 150 965.666992188 164 979 c 0
 178 993 194.666992188 1000 214 1000 c 0
 234 1000 251 993 265 979 c 0
 279 965 286 948.333007812 286 929 c 0
 286 909 279 892 265 878 c 0
 251 864 234 857 214 857 c 1
 214 857 l 1
357 857 m 1
 337 857 320 864 306 878 c 0
 292 892 285.333007812 909 286 929 c 0
 286 949 292.666992188 965.666992188 306 979 c 0
 320 993 337 1000 357 1000 c 0
 376.333007812 1000 393 993 407 979 c 0
 421 965 428.333007812 948.333007812 429 929 c 0
 429 909 421.666992188 892 407 878 c 0
 393 864 376.333007812 857 357 857 c 1
 357 857 l 1
500 857 m 1
 480 857 463 864 449 878 c 0
 435 892 428.333007812 909 429 929 c 0
 429 949 435.666992188 965.666992188 449 979 c 0
 463 993 480 1000 500 1000 c 0
 520 1000 537 993 551 979 c 0
 565 965 571.666992188 948.333007812 571 929 c 0
 571 909 564.333007812 892 551 878 c 0
 537 864 520 857 500 857 c 1
 500 857 l 1
643 857 m 1
 623 857 606 864 592 878 c 0
 578 892 571 909 571 929 c 0
 571 949 578 965.666992188 592 979 c 0
 606 993 623 1000 643 1000 c 0
 662.333007812 1000 679.333007812 993 694 979 c 0
 708 965 714.666992188 948.333007812 714 929 c 0
 714 909 707.333007812 892 694 878 c 0
 680 864 663 857 643 857 c 1
 643 857 l 1
786 857 m 1
 766.666992188 857 749.666992188 864 735 878 c 0
 721 892 714 909 714 929 c 0
 714 949 721 965.666992188 735 979 c 0
 749 993 766 1000 786 1000 c 0
 806 1000 822.666992188 993 836 979 c 0
 850 965 857 948.333007812 857 929 c 0
 857 909 850 892 836 878 c 0
 822 864 805.333007812 857 786 857 c 1
 786 857 l 1
EndSplineSet
Validated: 524325
EndChar

StartChar: I
Encoding: 73 73 31
Width: 999
GlyphClass: 2
Flags: W
LayerCount: 2
Fore
SplineSet
500 0 m 1
 480 0 463 7 449 21 c 0
 435 35 428.333007812 51.6669921875 429 71 c 0
 429 91 435.666992188 107.666992188 449 121 c 0
 463 135 480 142.333007812 500 143 c 0
 520 143 537 135.666992188 551 121 c 0
 565 107 571.666992188 90.3330078125 571 71 c 0
 571 51.6669921875 564.333007812 35 551 21 c 0
 537 7 520 0 500 0 c 1
 500 0 l 1
500 143 m 1
 480 143 463 150 449 164 c 0
 435 178 428.333007812 194.666992188 429 214 c 0
 429 234 435.666992188 251 449 265 c 0
 463 279 480 286 500 286 c 0
 520 286 537 279 551 265 c 0
 565 251 571.666992188 234 571 214 c 0
 571 194 564.333007812 177.333007812 551 164 c 0
 537 150 520 143 500 143 c 1
 500 143 l 1
500 286 m 1
 480 286 463 292.666992188 449 306 c 0
 435 320 428.333007812 337 429 357 c 0
 429 376.333007812 435.666992188 393 449 407 c 0
 463 421 480 428.333007812 500 429 c 0
 520 429 537 421.666992188 551 407 c 0
 565 393 571.666992188 376.333007812 571 357 c 0
 571 337 564.333007812 320 551 306 c 0
 537 292 520 285.333007812 500 286 c 1
 500 286 l 1
500 429 m 1
 480 429 463 435.666992188 449 449 c 0
 435 463 428.333007812 480 429 500 c 0
 429 520 435.666992188 537 449 551 c 0
 463 565 480 571.666992188 500 571 c 0
 520 571 537 564.333007812 551 551 c 0
 565 537 571.666992188 520 571 500 c 0
 571 480 564.333007812 463 551 449 c 0
 537 435 520 428.333007812 500 429 c 1
 500 429 l 1
71 571 m 1
 51.6669921875 571 35 578 21 592 c 0
 7 606 0 623 0 643 c 0
 0 662.333007812 7 679.333007812 21 694 c 0
 35 708 51.6669921875 714.666992188 71 714 c 0
 91 714 107.666992188 707.333007812 121 694 c 0
 135 680 142.333007812 663 143 643 c 0
 143 623 135.666992188 606 121 592 c 0
 107 578 90.3330078125 571 71 571 c 1
 71 571 l 1
500 571 m 1
 480 571 463 578 449 592 c 0
 435 606 428.333007812 623 429 643 c 0
 429 662.333007812 435.666992188 679.333007812 449 694 c 0
 463 708 480 714.666992188 500 714 c 0
 520 714 537 707.333007812 551 694 c 0
 565 680 571.666992188 663 571 643 c 0
 571 623 564.333007812 606 551 592 c 0
 537 578 520 571 500 571 c 1
 500 571 l 1
214 714 m 1
 194 714 177.333007812 721 164 735 c 0
 150 749 143 766 143 786 c 0
 143 806 150 822.666992188 164 836 c 0
 178 850 194.666992188 857 214 857 c 0
 234 857 251 850 265 836 c 0
 279 822 286 805.333007812 286 786 c 0
 286 766.666992188 279 749.666992188 265 735 c 0
 251 721 234 714 214 714 c 1
 214 714 l 1
500 714 m 1
 480 714 463 721 449 735 c 0
 435 749 428.333007812 766 429 786 c 0
 429 806 435.666992188 822.666992188 449 836 c 0
 463 850 480 857 500 857 c 0
 520 857 537 850 551 836 c 0
 565 822 571.666992188 805.333007812 571 786 c 0
 571 766.666992188 564.333007812 749.666992188 551 735 c 0
 537 721 520 714 500 714 c 1
 500 714 l 1
357 857 m 1
 337 857 320 864 306 878 c 0
 292 892 285.333007812 909 286 929 c 0
 286 949 292.666992188 965.666992188 306 979 c 0
 320 993 337 1000 357 1000 c 0
 376.333007812 1000 393 993 407 979 c 0
 421 965 428.333007812 948.333007812 429 929 c 0
 429 909 421.666992188 892 407 878 c 0
 393 864 376.333007812 857 357 857 c 1
 357 857 l 1
500 857 m 1
 480 857 463 864 449 878 c 0
 435 892 428.333007812 909 429 929 c 0
 429 949 435.666992188 965.666992188 449 979 c 0
 463 993 480 1000 500 1000 c 0
 520 1000 537 993 551 979 c 0
 565 965 571.666992188 948.333007812 571 929 c 0
 571 909 564.333007812 892 551 878 c 0
 537 864 520 857 500 857 c 1
 500 857 l 1
EndSplineSet
Validated: 524325
EndChar

StartChar: J
Encoding: 74 74 32
Width: 999
GlyphClass: 2
Flags: W
LayerCount: 2
Fore
SplineSet
71 0 m 1
 51.6669921875 0 35 7 21 21 c 0
 7 35 0 51.6669921875 0 71 c 0
 0 91 7 107.666992188 21 121 c 0
 35 135 51.6669921875 142.333007812 71 143 c 0
 91 143 107.666992188 135.666992188 121 121 c 0
 135 107 142.333007812 90.3330078125 143 71 c 0
 143 51.6669921875 135.666992188 35 121 21 c 0
 107 7 90.3330078125 0 71 0 c 1
 71 0 l 1
214 0 m 1
 194 0 177.333007812 7 164 21 c 0
 150 35 143 51.6669921875 143 71 c 0
 143 91 150 107.666992188 164 121 c 0
 178 135 194.666992188 142.333007812 214 143 c 0
 234 143 251 135.666992188 265 121 c 0
 279 107 286 90.3330078125 286 71 c 0
 286 51.6669921875 279 35 265 21 c 0
 251 7 234 0 214 0 c 1
 214 0 l 1
357 0 m 1
 337 0 320 7 306 21 c 0
 292 35 285.333007812 51.6669921875 286 71 c 0
 286 91 292.666992188 107.666992188 306 121 c 0
 320 135 337 142.333007812 357 143 c 0
 376.333007812 143 393 135.666992188 407 121 c 0
 421 107 428.333007812 90.3330078125 429 71 c 0
 429 51.6669921875 421.666992188 35 407 21 c 0
 393 7 376.333007812 0 357 0 c 1
 357 0 l 1
500 0 m 1
 480 0 463 7 449 21 c 0
 435 35 428.333007812 51.6669921875 429 71 c 0
 429 91 435.666992188 107.666992188 449 121 c 0
 463 135 480 142.333007812 500 143 c 0
 520 143 537 135.666992188 551 121 c 0
 565 107 571.666992188 90.3330078125 571 71 c 0
 571 51.6669921875 564.333007812 35 551 21 c 0
 537 7 520 0 500 0 c 1
 500 0 l 1
643 143 m 1
 623 143 606 150 592 164 c 0
 578 178 571 194.666992188 571 214 c 0
 571 234 578 251 592 265 c 0
 606 279 623 286 643 286 c 0
 662.333007812 286 679.333007812 279 694 265 c 0
 708 251 714.666992188 234 714 214 c 0
 714 194 707.333007812 177.333007812 694 164 c 0
 680 150 663 143 643 143 c 1
 643 143 l 1
786 286 m 1
 766.666992188 286 749.666992188 292.666992188 735 306 c 0
 721 320 714 337 714 357 c 0
 714 376.333007812 721 393 735 407 c 0
 749 421 766 428.333007812 786 429 c 0
 806 429 822.666992188 421.666992188 836 407 c 0
 850 393 857 376.333007812 857 357 c 0
 857 337 850 320 836 306 c 0
 822 292 805.333007812 285.333007812 786 286 c 1
 786 286 l 1
786 429 m 1
 766.666992188 429 749.666992188 435.666992188 735 449 c 0
 721 463 714 480 714 500 c 0
 714 520 721 537 735 551 c 0
 749 565 766 571.666992188 786 571 c 0
 806 571 822.666992188 564.333007812 836 551 c 0
 850 537 857 520 857 500 c 0
 857 480 850 463 836 449 c 0
 822 435 805.333007812 428.333007812 786 429 c 1
 786 429 l 1
71 571 m 1
 51.6669921875 571 35 578 21 592 c 0
 7 606 0 623 0 643 c 0
 0 662.333007812 7 679.333007812 21 694 c 0
 35 708 51.6669921875 714.666992188 71 714 c 0
 91 714 107.666992188 707.333007812 121 694 c 0
 135 680 142.333007812 663 143 643 c 0
 143 623 135.666992188 606 121 592 c 0
 107 578 90.3330078125 571 71 571 c 1
 71 571 l 1
214 571 m 1
 194 571 177.333007812 578 164 592 c 0
 150 606 143 623 143 643 c 0
 143 662.333007812 150 679.333007812 164 694 c 0
 178 708 194.666992188 714.666992188 214 714 c 0
 234 714 251 707.333007812 265 694 c 0
 279 680 286 663 286 643 c 0
 286 623 279 606 265 592 c 0
 251 578 234 571 214 571 c 1
 214 571 l 1
357 571 m 1
 337 571 320 578 306 592 c 0
 292 606 285.333007812 623 286 643 c 0
 286 662.333007812 292.666992188 679.333007812 306 694 c 0
 320 708 337 714.666992188 357 714 c 0
 376.333007812 714 393 707.333007812 407 694 c 0
 421 680 428.333007812 663 429 643 c 0
 429 623 421.666992188 606 407 592 c 0
 393 578 376.333007812 571 357 571 c 1
 357 571 l 1
500 571 m 1
 480 571 463 578 449 592 c 0
 435 606 428.333007812 623 429 643 c 0
 429 662.333007812 435.666992188 679.333007812 449 694 c 0
 463 708 480 714.666992188 500 714 c 0
 520 714 537 707.333007812 551 694 c 0
 565 680 571.666992188 663 571 643 c 0
 571 623 564.333007812 606 551 592 c 0
 537 578 520 571 500 571 c 1
 500 571 l 1
786 571 m 1
 766.666992188 571 749.666992188 578 735 592 c 0
 721 606 714 623 714 643 c 0
 714 662.333007812 721 679.333007812 735 694 c 0
 749 708 766 714.666992188 786 714 c 0
 806 714 822.666992188 707.333007812 836 694 c 0
 850 680 857 663 857 643 c 0
 857 623 850 606 836 592 c 0
 822 578 805.333007812 571 786 571 c 1
 786 571 l 1
643 714 m 1
 623 714 606 721 592 735 c 0
 578 749 571 766 571 786 c 0
 571 806 578 822.666992188 592 836 c 0
 606 850 623 857 643 857 c 0
 662.333007812 857 679.333007812 850 694 836 c 0
 708 822 714.666992188 805.333007812 714 786 c 0
 714 766.666992188 707.333007812 749.666992188 694 735 c 0
 680 721 663 714 643 714 c 1
 643 714 l 1
786 714 m 1
 766.666992188 714 749.666992188 721 735 735 c 0
 721 749 714 766 714 786 c 0
 714 806 721 822.666992188 735 836 c 0
 749 850 766 857 786 857 c 0
 806 857 822.666992188 850 836 836 c 0
 850 822 857 805.333007812 857 786 c 0
 857 766.666992188 850 749.666992188 836 735 c 0
 822 721 805.333007812 714 786 714 c 1
 786 714 l 1
786 857 m 1
 766.666992188 857 749.666992188 864 735 878 c 0
 721 892 714 909 714 929 c 0
 714 949 721 965.666992188 735 979 c 0
 749 993 766 1000 786 1000 c 0
 806 1000 822.666992188 993 836 979 c 0
 850 965 857 948.333007812 857 929 c 0
 857 909 850 892 836 878 c 0
 822 864 805.333007812 857 786 857 c 1
 786 857 l 1
EndSplineSet
Validated: 524325
EndChar

StartChar: K
Encoding: 75 75 33
Width: 999
GlyphClass: 2
Flags: W
LayerCount: 2
Fore
SplineSet
71 0 m 1
 51.6669921875 0 35 7 21 21 c 0
 7 35 0 51.6669921875 0 71 c 0
 0 91 7 107.666992188 21 121 c 0
 35 135 51.6669921875 142.333007812 71 143 c 0
 91 143 107.666992188 135.666992188 121 121 c 0
 135 107 142.333007812 90.3330078125 143 71 c 0
 143 51.6669921875 135.666992188 35 121 21 c 0
 107 7 90.3330078125 0 71 0 c 1
 71 0 l 1
214 0 m 1
 194 0 177.333007812 7 164 21 c 0
 150 35 143 51.6669921875 143 71 c 0
 143 91 150 107.666992188 164 121 c 0
 178 135 194.666992188 142.333007812 214 143 c 0
 234 143 251 135.666992188 265 121 c 0
 279 107 286 90.3330078125 286 71 c 0
 286 51.6669921875 279 35 265 21 c 0
 251 7 234 0 214 0 c 1
 214 0 l 1
357 0 m 1
 337 0 320 7 306 21 c 0
 292 35 285.333007812 51.6669921875 286 71 c 0
 286 91 292.666992188 107.666992188 306 121 c 0
 320 135 337 142.333007812 357 143 c 0
 376.333007812 143 393 135.666992188 407 121 c 0
 421 107 428.333007812 90.3330078125 429 71 c 0
 429 51.6669921875 421.666992188 35 407 21 c 0
 393 7 376.333007812 0 357 0 c 1
 357 0 l 1
500 0 m 1
 480 0 463 7 449 21 c 0
 435 35 428.333007812 51.6669921875 429 71 c 0
 429 91 435.666992188 107.666992188 449 121 c 0
 463 135 480 142.333007812 500 143 c 0
 520 143 537 135.666992188 551 121 c 0
 565 107 571.666992188 90.3330078125 571 71 c 0
 571 51.6669921875 564.333007812 35 551 21 c 0
 537 7 520 0 500 0 c 1
 500 0 l 1
643 0 m 1
 623 0 606 7 592 21 c 0
 578 35 571 51.6669921875 571 71 c 0
 571 91 578 107.666992188 592 121 c 0
 606 135 623 142.333007812 643 143 c 0
 662.333007812 143 679.333007812 135.666992188 694 121 c 0
 708 107 714.666992188 90.3330078125 714 71 c 0
 714 51.6669921875 707.333007812 35 694 21 c 0
 680 7 663 0 643 0 c 1
 643 0 l 1
786 0 m 1
 766.666992188 0 749.666992188 7 735 21 c 0
 721 35 714 51.6669921875 714 71 c 0
 714 91 721 107.666992188 735 121 c 0
 749 135 766 142.333007812 786 143 c 0
 806 143 822.666992188 135.666992188 836 121 c 0
 850 107 857 90.3330078125 857 71 c 0
 857 51.6669921875 850 35 836 21 c 0
 822 7 805.333007812 0 786 0 c 1
 786 0 l 1
786 143 m 1
 766.666992188 143 749.666992188 150 735 164 c 0
 721 178 714 194.666992188 714 214 c 0
 714 234 721 251 735 265 c 0
 749 279 766 286 786 286 c 0
 806 286 822.666992188 279 836 265 c 0
 850 251 857 234 857 214 c 0
 857 194 850 177.333007812 836 164 c 0
 822 150 805.333007812 143 786 143 c 1
 786 143 l 1
786 286 m 1
 766.666992188 286 749.666992188 292.666992188 735 306 c 0
 721 320 714 337 714 357 c 0
 714 376.333007812 721 393 735 407 c 0
 749 421 766 428.333007812 786 429 c 0
 806 429 822.666992188 421.666992188 836 407 c 0
 850 393 857 376.333007812 857 357 c 0
 857 337 850 320 836 306 c 0
 822 292 805.333007812 285.333007812 786 286 c 1
 786 286 l 1
786 429 m 1
 766.666992188 429 749.666992188 435.666992188 735 449 c 0
 721 463 714 480 714 500 c 0
 714 520 721 537 735 551 c 0
 749 565 766 571.666992188 786 571 c 0
 806 571 822.666992188 564.333007812 836 551 c 0
 850 537 857 520 857 500 c 0
 857 480 850 463 836 449 c 0
 822 435 805.333007812 428.333007812 786 429 c 1
 786 429 l 1
786 571 m 1
 766.666992188 571 749.666992188 578 735 592 c 0
 721 606 714 623 714 643 c 0
 714 662.333007812 721 679.333007812 735 694 c 0
 749 708 766 714.666992188 786 714 c 0
 806 714 822.666992188 707.333007812 836 694 c 0
 850 680 857 663 857 643 c 0
 857 623 850 606 836 592 c 0
 822 578 805.333007812 571 786 571 c 1
 786 571 l 1
786 714 m 1
 766.666992188 714 749.666992188 721 735 735 c 0
 721 749 714 766 714 786 c 0
 714 806 721 822.666992188 735 836 c 0
 749 850 766 857 786 857 c 0
 806 857 822.666992188 850 836 836 c 0
 850 822 857 805.333007812 857 786 c 0
 857 766.666992188 850 749.666992188 836 735 c 0
 822 721 805.333007812 714 786 714 c 1
 786 714 l 1
71 857 m 1
 51.6669921875 857 35 864 21 878 c 0
 7 892 0 909 0 929 c 0
 0 949 7 965.666992188 21 979 c 0
 35 993 51.6669921875 1000 71 1000 c 0
 91 1000 107.666992188 993 121 979 c 0
 135 965 142.333007812 948.333007812 143 929 c 0
 143 909 135.666992188 892 121 878 c 0
 107 864 90.3330078125 857 71 857 c 1
 71 857 l 1
214 857 m 1
 194 857 177.333007812 864 164 878 c 0
 150 892 143 909 143 929 c 0
 143 949 150 965.666992188 164 979 c 0
 178 993 194.666992188 1000 214 1000 c 0
 234 1000 251 993 265 979 c 0
 279 965 286 948.333007812 286 929 c 0
 286 909 279 892 265 878 c 0
 251 864 234 857 214 857 c 1
 214 857 l 1
357 857 m 1
 337 857 320 864 306 878 c 0
 292 892 285.333007812 909 286 929 c 0
 286 949 292.666992188 965.666992188 306 979 c 0
 320 993 337 1000 357 1000 c 0
 376.333007812 1000 393 993 407 979 c 0
 421 965 428.333007812 948.333007812 429 929 c 0
 429 909 421.666992188 892 407 878 c 0
 393 864 376.333007812 857 357 857 c 1
 357 857 l 1
500 857 m 1
 480 857 463 864 449 878 c 0
 435 892 428.333007812 909 429 929 c 0
 429 949 435.666992188 965.666992188 449 979 c 0
 463 993 480 1000 500 1000 c 0
 520 1000 537 993 551 979 c 0
 565 965 571.666992188 948.333007812 571 929 c 0
 571 909 564.333007812 892 551 878 c 0
 537 864 520 857 500 857 c 1
 500 857 l 1
643 857 m 1
 623 857 606 864 592 878 c 0
 578 892 571 909 571 929 c 0
 571 949 578 965.666992188 592 979 c 0
 606 993 623 1000 643 1000 c 0
 662.333007812 1000 679.333007812 993 694 979 c 0
 708 965 714.666992188 948.333007812 714 929 c 0
 714 909 707.333007812 892 694 878 c 0
 680 864 663 857 643 857 c 1
 643 857 l 1
786 857 m 1
 766.666992188 857 749.666992188 864 735 878 c 0
 721 892 714 909 714 929 c 0
 714 949 721 965.666992188 735 979 c 0
 749 993 766 1000 786 1000 c 0
 806 1000 822.666992188 993 836 979 c 0
 850 965 857 948.333007812 857 929 c 0
 857 909 850 892 836 878 c 0
 822 864 805.333007812 857 786 857 c 1
 786 857 l 1
EndSplineSet
Validated: 524325
EndChar

StartChar: L
Encoding: 76 76 34
Width: 999
GlyphClass: 2
Flags: W
LayerCount: 2
Fore
SplineSet
500 0 m 1
 480 0 463 7 449 21 c 0
 435 35 428.333007812 51.6669921875 429 71 c 0
 429 91 435.666992188 107.666992188 449 121 c 0
 463 135 480 142.333007812 500 143 c 0
 520 143 537 135.666992188 551 121 c 0
 565 107 571.666992188 90.3330078125 571 71 c 0
 571 51.6669921875 564.333007812 35 551 21 c 0
 537 7 520 0 500 0 c 1
 500 0 l 1
643 0 m 1
 623 0 606 7 592 21 c 0
 578 35 571 51.6669921875 571 71 c 0
 571 91 578 107.666992188 592 121 c 0
 606 135 623 142.333007812 643 143 c 0
 662.333007812 143 679.333007812 135.666992188 694 121 c 0
 708 107 714.666992188 90.3330078125 714 71 c 0
 714 51.6669921875 707.333007812 35 694 21 c 0
 680 7 663 0 643 0 c 1
 643 0 l 1
357 143 m 1
 337 143 320 150 306 164 c 0
 292 178 285.333007812 194.666992188 286 214 c 0
 286 234 292.666992188 251 306 265 c 0
 320 279 337 286 357 286 c 0
 376.333007812 286 393 279 407 265 c 0
 421 251 428.333007812 234 429 214 c 0
 429 194 421.666992188 177.333007812 407 164 c 0
 393 150 376.333007812 143 357 143 c 1
 357 143 l 1
643 143 m 1
 623 143 606 150 592 164 c 0
 578 178 571 194.666992188 571 214 c 0
 571 234 578 251 592 265 c 0
 606 279 623 286 643 286 c 0
 662.333007812 286 679.333007812 279 694 265 c 0
 708 251 714.666992188 234 714 214 c 0
 714 194 707.333007812 177.333007812 694 164 c 0
 680 150 663 143 643 143 c 1
 643 143 l 1
214 286 m 1
 194 286 177.333007812 292.666992188 164 306 c 0
 150 320 143 337 143 357 c 0
 143 376.333007812 150 393 164 407 c 0
 178 421 194.666992188 428.333007812 214 429 c 0
 234 429 251 421.666992188 265 407 c 0
 279 393 286 376.333007812 286 357 c 0
 286 337 279 320 265 306 c 0
 251 292 234 285.333007812 214 286 c 1
 214 286 l 1
643 286 m 1
 623 286 606 292.666992188 592 306 c 0
 578 320 571 337 571 357 c 0
 571 376.333007812 578 393 592 407 c 0
 606 421 623 428.333007812 643 429 c 0
 662.333007812 429 679.333007812 421.666992188 694 407 c 0
 708 393 714.666992188 376.333007812 714 357 c 0
 714 337 707.333007812 320 694 306 c 0
 680 292 663 285.333007812 643 286 c 1
 643 286 l 1
71 429 m 1
 51.6669921875 429 35 435.666992188 21 449 c 0
 7 463 0 480 0 500 c 0
 0 520 7 537 21 551 c 0
 35 565 51.6669921875 571.666992188 71 571 c 0
 91 571 107.666992188 564.333007812 121 551 c 0
 135 537 142.333007812 520 143 500 c 0
 143 480 135.666992188 463 121 449 c 0
 107 435 90.3330078125 428.333007812 71 429 c 1
 71 429 l 1
643 429 m 1
 623 429 606 435.666992188 592 449 c 0
 578 463 571 480 571 500 c 0
 571 520 578 537 592 551 c 0
 606 565 623 571.666992188 643 571 c 0
 662.333007812 571 679.333007812 564.333007812 694 551 c 0
 708 537 714.666992188 520 714 500 c 0
 714 480 707.333007812 463 694 449 c 0
 680 435 663 428.333007812 643 429 c 1
 643 429 l 1
643 571 m 1
 623 571 606 578 592 592 c 0
 578 606 571 623 571 643 c 0
 571 662.333007812 578 679.333007812 592 694 c 0
 606 708 623 714.666992188 643 714 c 0
 662.333007812 714 679.333007812 707.333007812 694 694 c 0
 708 680 714.666992188 663 714 643 c 0
 714 623 707.333007812 606 694 592 c 0
 680 578 663 571 643 571 c 1
 643 571 l 1
643 714 m 1
 623 714 606 721 592 735 c 0
 578 749 571 766 571 786 c 0
 571 806 578 822.666992188 592 836 c 0
 606 850 623 857 643 857 c 0
 662.333007812 857 679.333007812 850 694 836 c 0
 708 822 714.666992188 805.333007812 714 786 c 0
 714 766.666992188 707.333007812 749.666992188 694 735 c 0
 680 721 663 714 643 714 c 1
 643 714 l 1
643 857 m 1
 623 857 606 864 592 878 c 0
 578 892 571 909 571 929 c 0
 571 949 578 965.666992188 592 979 c 0
 606 993 623 1000 643 1000 c 0
 662.333007812 1000 679.333007812 993 694 979 c 0
 708 965 714.666992188 948.333007812 714 929 c 0
 714 909 707.333007812 892 694 878 c 0
 680 864 663 857 643 857 c 1
 643 857 l 1
786 857 m 1
 766.666992188 857 749.666992188 864 735 878 c 0
 721 892 714 909 714 929 c 0
 714 949 721 965.666992188 735 979 c 0
 749 993 766 1000 786 1000 c 0
 806 1000 822.666992188 993 836 979 c 0
 850 965 857 948.333007812 857 929 c 0
 857 909 850 892 836 878 c 0
 822 864 805.333007812 857 786 857 c 1
 786 857 l 1
EndSplineSet
Validated: 524325
EndChar

StartChar: M
Encoding: 77 77 35
Width: 999
GlyphClass: 2
Flags: W
LayerCount: 2
Fore
SplineSet
71 0 m 1
 51.6669921875 0 35 7 21 21 c 0
 7 35 0 51.6669921875 0 71 c 0
 0 91 7 107.666992188 21 121 c 0
 35 135 51.6669921875 142.333007812 71 143 c 0
 91 143 107.666992188 135.666992188 121 121 c 0
 135 107 142.333007812 90.3330078125 143 71 c 0
 143 51.6669921875 135.666992188 35 121 21 c 0
 107 7 90.3330078125 0 71 0 c 1
 71 0 l 1
214 0 m 1
 194 0 177.333007812 7 164 21 c 0
 150 35 143 51.6669921875 143 71 c 0
 143 91 150 107.666992188 164 121 c 0
 178 135 194.666992188 142.333007812 214 143 c 0
 234 143 251 135.666992188 265 121 c 0
 279 107 286 90.3330078125 286 71 c 0
 286 51.6669921875 279 35 265 21 c 0
 251 7 234 0 214 0 c 1
 214 0 l 1
357 0 m 1
 337 0 320 7 306 21 c 0
 292 35 285.333007812 51.6669921875 286 71 c 0
 286 91 292.666992188 107.666992188 306 121 c 0
 320 135 337 142.333007812 357 143 c 0
 376.333007812 143 393 135.666992188 407 121 c 0
 421 107 428.333007812 90.3330078125 429 71 c 0
 429 51.6669921875 421.666992188 35 407 21 c 0
 393 7 376.333007812 0 357 0 c 1
 357 0 l 1
500 0 m 1
 480 0 463 7 449 21 c 0
 435 35 428.333007812 51.6669921875 429 71 c 0
 429 91 435.666992188 107.666992188 449 121 c 0
 463 135 480 142.333007812 500 143 c 0
 520 143 537 135.666992188 551 121 c 0
 565 107 571.666992188 90.3330078125 571 71 c 0
 571 51.6669921875 564.333007812 35 551 21 c 0
 537 7 520 0 500 0 c 1
 500 0 l 1
643 0 m 1
 623 0 606 7 592 21 c 0
 578 35 571 51.6669921875 571 71 c 0
 571 91 578 107.666992188 592 121 c 0
 606 135 623 142.333007812 643 143 c 0
 662.333007812 143 679.333007812 135.666992188 694 121 c 0
 708 107 714.666992188 90.3330078125 714 71 c 0
 714 51.6669921875 707.333007812 35 694 21 c 0
 680 7 663 0 643 0 c 1
 643 0 l 1
786 0 m 1
 766.666992188 0 749.666992188 7 735 21 c 0
 721 35 714 51.6669921875 714 71 c 0
 714 91 721 107.666992188 735 121 c 0
 749 135 766 142.333007812 786 143 c 0
 806 143 822.666992188 135.666992188 836 121 c 0
 850 107 857 90.3330078125 857 71 c 0
 857 51.6669921875 850 35 836 21 c 0
 822 7 805.333007812 0 786 0 c 1
 786 0 l 1
214 143 m 1
 194 143 177.333007812 150 164 164 c 0
 150 178 143 194.666992188 143 214 c 0
 143 234 150 251 164 265 c 0
 178 279 194.666992188 286 214 286 c 0
 234 286 251 279 265 265 c 0
 279 251 286 234 286 214 c 0
 286 194 279 177.333007812 265 164 c 0
 251 150 234 143 214 143 c 1
 214 143 l 1
214 286 m 1
 194 286 177.333007812 292.666992188 164 306 c 0
 150 320 143 337 143 357 c 0
 143 376.333007812 150 393 164 407 c 0
 178 421 194.666992188 428.333007812 214 429 c 0
 234 429 251 421.666992188 265 407 c 0
 279 393 286 376.333007812 286 357 c 0
 286 337 279 320 265 306 c 0
 251 292 234 285.333007812 214 286 c 1
 214 286 l 1
214 429 m 1
 194 429 177.333007812 435.666992188 164 449 c 0
 150 463 143 480 143 500 c 0
 143 520 150 537 164 551 c 0
 178 565 194.666992188 571.666992188 214 571 c 0
 234 571 251 564.333007812 265 551 c 0
 279 537 286 520 286 500 c 0
 286 480 279 463 265 449 c 0
 251 435 234 428.333007812 214 429 c 1
 214 429 l 1
357 571 m 1
 337 571 320 578 306 592 c 0
 292 606 285.333007812 623 286 643 c 0
 286 662.333007812 292.666992188 679.333007812 306 694 c 0
 320 708 337 714.666992188 357 714 c 0
 376.333007812 714 393 707.333007812 407 694 c 0
 421 680 428.333007812 663 429 643 c 0
 429 623 421.666992188 606 407 592 c 0
 393 578 376.333007812 571 357 571 c 1
 357 571 l 1
500 714 m 1
 480 714 463 721 449 735 c 0
 435 749 428.333007812 766 429 786 c 0
 429 806 435.666992188 822.666992188 449 836 c 0
 463 850 480 857 500 857 c 0
 520 857 537 850 551 836 c 0
 565 822 571.666992188 805.333007812 571 786 c 0
 571 766.666992188 564.333007812 749.666992188 551 735 c 0
 537 721 520 714 500 714 c 1
 500 714 l 1
643 857 m 1
 623 857 606 864 592 878 c 0
 578 892 571 909 571 929 c 0
 571 949 578 965.666992188 592 979 c 0
 606 993 623 1000 643 1000 c 0
 662.333007812 1000 679.333007812 993 694 979 c 0
 708 965 714.666992188 948.333007812 714 929 c 0
 714 909 707.333007812 892 694 878 c 0
 680 864 663 857 643 857 c 1
 643 857 l 1
786 857 m 1
 766.666992188 857 749.666992188 864 735 878 c 0
 721 892 714 909 714 929 c 0
 714 949 721 965.666992188 735 979 c 0
 749 993 766 1000 786 1000 c 0
 806 1000 822.666992188 993 836 979 c 0
 850 965 857 948.333007812 857 929 c 0
 857 909 850 892 836 878 c 0
 822 864 805.333007812 857 786 857 c 1
 786 857 l 1
EndSplineSet
Validated: 524325
EndChar

StartChar: N
Encoding: 78 78 36
Width: 999
GlyphClass: 2
Flags: W
LayerCount: 2
Fore
SplineSet
214 0 m 1
 194 0 177.333007812 7 164 21 c 0
 150 35 143 51.6669921875 143 71 c 0
 143 91 150 107.666992188 164 121 c 0
 178 135 194.666992188 142.333007812 214 143 c 0
 234 143 251 135.666992188 265 121 c 0
 279 107 286 90.3330078125 286 71 c 0
 286 51.6669921875 279 35 265 21 c 0
 251 7 234 0 214 0 c 1
 214 0 l 1
786 0 m 1
 766.666992188 0 749.666992188 7 735 21 c 0
 721 35 714 51.6669921875 714 71 c 0
 714 91 721 107.666992188 735 121 c 0
 749 135 766 142.333007812 786 143 c 0
 806 143 822.666992188 135.666992188 836 121 c 0
 850 107 857 90.3330078125 857 71 c 0
 857 51.6669921875 850 35 836 21 c 0
 822 7 805.333007812 0 786 0 c 1
 786 0 l 1
71 143 m 1
 51.6669921875 143 35 150 21 164 c 0
 7 178 0 194.666992188 0 214 c 0
 0 234 7 251 21 265 c 0
 35 279 51.6669921875 286 71 286 c 0
 91 286 107.666992188 279 121 265 c 0
 135 251 142.333007812 234 143 214 c 0
 143 194 135.666992188 177.333007812 121 164 c 0
 107 150 90.3330078125 143 71 143 c 1
 71 143 l 1
357 143 m 1
 337 143 320 150 306 164 c 0
 292 178 285.333007812 194.666992188 286 214 c 0
 286 234 292.666992188 251 306 265 c 0
 320 279 337 286 357 286 c 0
 376.333007812 286 393 279 407 265 c 0
 421 251 428.333007812 234 429 214 c 0
 429 194 421.666992188 177.333007812 407 164 c 0
 393 150 376.333007812 143 357 143 c 1
 357 143 l 1
786 143 m 1
 766.666992188 143 749.666992188 150 735 164 c 0
 721 178 714 194.666992188 714 214 c 0
 714 234 721 251 735 265 c 0
 749 279 766 286 786 286 c 0
 806 286 822.666992188 279 836 265 c 0
 850 251 857 234 857 214 c 0
 857 194 850 177.333007812 836 164 c 0
 822 150 805.333007812 143 786 143 c 1
 786 143 l 1
71 286 m 1
 51.6669921875 286 35 292.666992188 21 306 c 0
 7 320 0 337 0 357 c 0
 0 376.333007812 7 393 21 407 c 0
 35 421 51.6669921875 428.333007812 71 429 c 0
 91 429 107.666992188 421.666992188 121 407 c 0
 135 393 142.333007812 376.333007812 143 357 c 0
 143 337 135.666992188 320 121 306 c 0
 107 292 90.3330078125 285.333007812 71 286 c 1
 71 286 l 1
357 286 m 1
 337 286 320 292.666992188 306 306 c 0
 292 320 285.333007812 337 286 357 c 0
 286 376.333007812 292.666992188 393 306 407 c 0
 320 421 337 428.333007812 357 429 c 0
 376.333007812 429 393 421.666992188 407 407 c 0
 421 393 428.333007812 376.333007812 429 357 c 0
 429 337 421.666992188 320 407 306 c 0
 393 292 376.333007812 285.333007812 357 286 c 1
 357 286 l 1
786 286 m 1
 766.666992188 286 749.666992188 292.666992188 735 306 c 0
 721 320 714 337 714 357 c 0
 714 376.333007812 721 393 735 407 c 0
 749 421 766 428.333007812 786 429 c 0
 806 429 822.666992188 421.666992188 836 407 c 0
 850 393 857 376.333007812 857 357 c 0
 857 337 850 320 836 306 c 0
 822 292 805.333007812 285.333007812 786 286 c 1
 786 286 l 1
71 429 m 1
 51.6669921875 429 35 435.666992188 21 449 c 0
 7 463 0 480 0 500 c 0
 0 520 7 537 21 551 c 0
 35 565 51.6669921875 571.666992188 71 571 c 0
 91 571 107.666992188 564.333007812 121 551 c 0
 135 537 142.333007812 520 143 500 c 0
 143 480 135.666992188 463 121 449 c 0
 107 435 90.3330078125 428.333007812 71 429 c 1
 71 429 l 1
357 429 m 1
 337 429 320 435.666992188 306 449 c 0
 292 463 285.333007812 480 286 500 c 0
 286 520 292.666992188 537 306 551 c 0
 320 565 337 571.666992188 357 571 c 0
 376.333007812 571 393 564.333007812 407 551 c 0
 421 537 428.333007812 520 429 500 c 0
 429 480 421.666992188 463 407 449 c 0
 393 435 376.333007812 428.333007812 357 429 c 1
 357 429 l 1
786 429 m 1
 766.666992188 429 749.666992188 435.666992188 735 449 c 0
 721 463 714 480 714 500 c 0
 714 520 721 537 735 551 c 0
 749 565 766 571.666992188 786 571 c 0
 806 571 822.666992188 564.333007812 836 551 c 0
 850 537 857 520 857 500 c 0
 857 480 850 463 836 449 c 0
 822 435 805.333007812 428.333007812 786 429 c 1
 786 429 l 1
71 571 m 1
 51.6669921875 571 35 578 21 592 c 0
 7 606 0 623 0 643 c 0
 0 662.333007812 7 679.333007812 21 694 c 0
 35 708 51.6669921875 714.666992188 71 714 c 0
 91 714 107.666992188 707.333007812 121 694 c 0
 135 680 142.333007812 663 143 643 c 0
 143 623 135.666992188 606 121 592 c 0
 107 578 90.3330078125 571 71 571 c 1
 71 571 l 1
500 571 m 1
 480 571 463 578 449 592 c 0
 435 606 428.333007812 623 429 643 c 0
 429 662.333007812 435.666992188 679.333007812 449 694 c 0
 463 708 480 714.666992188 500 714 c 0
 520 714 537 707.333007812 551 694 c 0
 565 680 571.666992188 663 571 643 c 0
 571 623 564.333007812 606 551 592 c 0
 537 578 520 571 500 571 c 1
 500 571 l 1
786 571 m 1
 766.666992188 571 749.666992188 578 735 592 c 0
 721 606 714 623 714 643 c 0
 714 662.333007812 721 679.333007812 735 694 c 0
 749 708 766 714.666992188 786 714 c 0
 806 714 822.666992188 707.333007812 836 694 c 0
 850 680 857 663 857 643 c 0
 857 623 850 606 836 592 c 0
 822 578 805.333007812 571 786 571 c 1
 786 571 l 1
71 714 m 1
 51.6669921875 714 35 721 21 735 c 0
 7 749 0 766 0 786 c 0
 0 806 7 822.666992188 21 836 c 0
 35 850 51.6669921875 857 71 857 c 0
 91 857 107.666992188 850 121 836 c 0
 135 822 142.333007812 805.333007812 143 786 c 0
 143 766.666992188 135.666992188 749.666992188 121 735 c 0
 107 721 90.3330078125 714 71 714 c 1
 71 714 l 1
643 714 m 1
 623 714 606 721 592 735 c 0
 578 749 571 766 571 786 c 0
 571 806 578 822.666992188 592 836 c 0
 606 850 623 857 643 857 c 0
 662.333007812 857 679.333007812 850 694 836 c 0
 708 822 714.666992188 805.333007812 714 786 c 0
 714 766.666992188 707.333007812 749.666992188 694 735 c 0
 680 721 663 714 643 714 c 1
 643 714 l 1
214 857 m 1
 194 857 177.333007812 864 164 878 c 0
 150 892 143 909 143 929 c 0
 143 949 150 965.666992188 164 979 c 0
 178 993 194.666992188 1000 214 1000 c 0
 234 1000 251 993 265 979 c 0
 279 965 286 948.333007812 286 929 c 0
 286 909 279 892 265 878 c 0
 251 864 234 857 214 857 c 1
 214 857 l 1
643 857 m 1
 623 857 606 864 592 878 c 0
 578 892 571 909 571 929 c 0
 571 949 578 965.666992188 592 979 c 0
 606 993 623 1000 643 1000 c 0
 662.333007812 1000 679.333007812 993 694 979 c 0
 708 965 714.666992188 948.333007812 714 929 c 0
 714 909 707.333007812 892 694 878 c 0
 680 864 663 857 643 857 c 1
 643 857 l 1
EndSplineSet
Validated: 524325
EndChar

StartChar: O
Encoding: 79 79 37
Width: 999
GlyphClass: 2
Flags: W
LayerCount: 2
Fore
SplineSet
71 0 m 1
 51.6669921875 0 35 7 21 21 c 0
 7 35 0 51.6669921875 0 71 c 0
 0 91 7 107.666992188 21 121 c 0
 35 135 51.6669921875 142.333007812 71 143 c 0
 91 143 107.666992188 135.666992188 121 121 c 0
 135 107 142.333007812 90.3330078125 143 71 c 0
 143 51.6669921875 135.666992188 35 121 21 c 0
 107 7 90.3330078125 0 71 0 c 1
 71 0 l 1
214 0 m 1
 194 0 177.333007812 7 164 21 c 0
 150 35 143 51.6669921875 143 71 c 0
 143 91 150 107.666992188 164 121 c 0
 178 135 194.666992188 142.333007812 214 143 c 0
 234 143 251 135.666992188 265 121 c 0
 279 107 286 90.3330078125 286 71 c 0
 286 51.6669921875 279 35 265 21 c 0
 251 7 234 0 214 0 c 1
 214 0 l 1
357 0 m 1
 337 0 320 7 306 21 c 0
 292 35 285.333007812 51.6669921875 286 71 c 0
 286 91 292.666992188 107.666992188 306 121 c 0
 320 135 337 142.333007812 357 143 c 0
 376.333007812 143 393 135.666992188 407 121 c 0
 421 107 428.333007812 90.3330078125 429 71 c 0
 429 51.6669921875 421.666992188 35 407 21 c 0
 393 7 376.333007812 0 357 0 c 1
 357 0 l 1
500 0 m 1
 480 0 463 7 449 21 c 0
 435 35 428.333007812 51.6669921875 429 71 c 0
 429 91 435.666992188 107.666992188 449 121 c 0
 463 135 480 142.333007812 500 143 c 0
 520 143 537 135.666992188 551 121 c 0
 565 107 571.666992188 90.3330078125 571 71 c 0
 571 51.6669921875 564.333007812 35 551 21 c 0
 537 7 520 0 500 0 c 1
 500 0 l 1
643 0 m 1
 623 0 606 7 592 21 c 0
 578 35 571 51.6669921875 571 71 c 0
 571 91 578 107.666992188 592 121 c 0
 606 135 623 142.333007812 643 143 c 0
 662.333007812 143 679.333007812 135.666992188 694 121 c 0
 708 107 714.666992188 90.3330078125 714 71 c 0
 714 51.6669921875 707.333007812 35 694 21 c 0
 680 7 663 0 643 0 c 1
 643 0 l 1
786 0 m 1
 766.666992188 0 749.666992188 7 735 21 c 0
 721 35 714 51.6669921875 714 71 c 0
 714 91 721 107.666992188 735 121 c 0
 749 135 766 142.333007812 786 143 c 0
 806 143 822.666992188 135.666992188 836 121 c 0
 850 107 857 90.3330078125 857 71 c 0
 857 51.6669921875 850 35 836 21 c 0
 822 7 805.333007812 0 786 0 c 1
 786 0 l 1
71 143 m 1
 51.6669921875 143 35 150 21 164 c 0
 7 178 0 194.666992188 0 214 c 0
 0 234 7 251 21 265 c 0
 35 279 51.6669921875 286 71 286 c 0
 91 286 107.666992188 279 121 265 c 0
 135 251 142.333007812 234 143 214 c 0
 143 194 135.666992188 177.333007812 121 164 c 0
 107 150 90.3330078125 143 71 143 c 1
 71 143 l 1
786 143 m 1
 766.666992188 143 749.666992188 150 735 164 c 0
 721 178 714 194.666992188 714 214 c 0
 714 234 721 251 735 265 c 0
 749 279 766 286 786 286 c 0
 806 286 822.666992188 279 836 265 c 0
 850 251 857 234 857 214 c 0
 857 194 850 177.333007812 836 164 c 0
 822 150 805.333007812 143 786 143 c 1
 786 143 l 1
71 286 m 1
 51.6669921875 286 35 292.666992188 21 306 c 0
 7 320 0 337 0 357 c 0
 0 376.333007812 7 393 21 407 c 0
 35 421 51.6669921875 428.333007812 71 429 c 0
 91 429 107.666992188 421.666992188 121 407 c 0
 135 393 142.333007812 376.333007812 143 357 c 0
 143 337 135.666992188 320 121 306 c 0
 107 292 90.3330078125 285.333007812 71 286 c 1
 71 286 l 1
786 286 m 1
 766.666992188 286 749.666992188 292.666992188 735 306 c 0
 721 320 714 337 714 357 c 0
 714 376.333007812 721 393 735 407 c 0
 749 421 766 428.333007812 786 429 c 0
 806 429 822.666992188 421.666992188 836 407 c 0
 850 393 857 376.333007812 857 357 c 0
 857 337 850 320 836 306 c 0
 822 292 805.333007812 285.333007812 786 286 c 1
 786 286 l 1
71 429 m 1
 51.6669921875 429 35 435.666992188 21 449 c 0
 7 463 0 480 0 500 c 0
 0 520 7 537 21 551 c 0
 35 565 51.6669921875 571.666992188 71 571 c 0
 91 571 107.666992188 564.333007812 121 551 c 0
 135 537 142.333007812 520 143 500 c 0
 143 480 135.666992188 463 121 449 c 0
 107 435 90.3330078125 428.333007812 71 429 c 1
 71 429 l 1
786 429 m 1
 766.666992188 429 749.666992188 435.666992188 735 449 c 0
 721 463 714 480 714 500 c 0
 714 520 721 537 735 551 c 0
 749 565 766 571.666992188 786 571 c 0
 806 571 822.666992188 564.333007812 836 551 c 0
 850 537 857 520 857 500 c 0
 857 480 850 463 836 449 c 0
 822 435 805.333007812 428.333007812 786 429 c 1
 786 429 l 1
71 571 m 1
 51.6669921875 571 35 578 21 592 c 0
 7 606 0 623 0 643 c 0
 0 662.333007812 7 679.333007812 21 694 c 0
 35 708 51.6669921875 714.666992188 71 714 c 0
 91 714 107.666992188 707.333007812 121 694 c 0
 135 680 142.333007812 663 143 643 c 0
 143 623 135.666992188 606 121 592 c 0
 107 578 90.3330078125 571 71 571 c 1
 71 571 l 1
786 571 m 1
 766.666992188 571 749.666992188 578 735 592 c 0
 721 606 714 623 714 643 c 0
 714 662.333007812 721 679.333007812 735 694 c 0
 749 708 766 714.666992188 786 714 c 0
 806 714 822.666992188 707.333007812 836 694 c 0
 850 680 857 663 857 643 c 0
 857 623 850 606 836 592 c 0
 822 578 805.333007812 571 786 571 c 1
 786 571 l 1
214 714 m 1
 194 714 177.333007812 721 164 735 c 0
 150 749 143 766 143 786 c 0
 143 806 150 822.666992188 164 836 c 0
 178 850 194.666992188 857 214 857 c 0
 234 857 251 850 265 836 c 0
 279 822 286 805.333007812 286 786 c 0
 286 766.666992188 279 749.666992188 265 735 c 0
 251 721 234 714 214 714 c 1
 214 714 l 1
643 714 m 1
 623 714 606 721 592 735 c 0
 578 749 571 766 571 786 c 0
 571 806 578 822.666992188 592 836 c 0
 606 850 623 857 643 857 c 0
 662.333007812 857 679.333007812 850 694 836 c 0
 708 822 714.666992188 805.333007812 714 786 c 0
 714 766.666992188 707.333007812 749.666992188 694 735 c 0
 680 721 663 714 643 714 c 1
 643 714 l 1
357 857 m 1
 337 857 320 864 306 878 c 0
 292 892 285.333007812 909 286 929 c 0
 286 949 292.666992188 965.666992188 306 979 c 0
 320 993 337 1000 357 1000 c 0
 376.333007812 1000 393 993 407 979 c 0
 421 965 428.333007812 948.333007812 429 929 c 0
 429 909 421.666992188 892 407 878 c 0
 393 864 376.333007812 857 357 857 c 1
 357 857 l 1
500 857 m 1
 480 857 463 864 449 878 c 0
 435 892 428.333007812 909 429 929 c 0
 429 949 435.666992188 965.666992188 449 979 c 0
 463 993 480 1000 500 1000 c 0
 520 1000 537 993 551 979 c 0
 565 965 571.666992188 948.333007812 571 929 c 0
 571 909 564.333007812 892 551 878 c 0
 537 864 520 857 500 857 c 1
 500 857 l 1
EndSplineSet
Validated: 524325
EndChar

StartChar: P
Encoding: 80 80 38
Width: 999
GlyphClass: 2
Flags: W
LayerCount: 2
Fore
SplineSet
214 0 m 1
 194 0 177.333007812 7 164 21 c 0
 150 35 143 51.6669921875 143 71 c 0
 143 91 150 107.666992188 164 121 c 0
 178 135 194.666992188 142.333007812 214 143 c 0
 234 143 251 135.666992188 265 121 c 0
 279 107 286 90.3330078125 286 71 c 0
 286 51.6669921875 279 35 265 21 c 0
 251 7 234 0 214 0 c 1
 214 0 l 1
357 0 m 1
 337 0 320 7 306 21 c 0
 292 35 285.333007812 51.6669921875 286 71 c 0
 286 91 292.666992188 107.666992188 306 121 c 0
 320 135 337 142.333007812 357 143 c 0
 376.333007812 143 393 135.666992188 407 121 c 0
 421 107 428.333007812 90.3330078125 429 71 c 0
 429 51.6669921875 421.666992188 35 407 21 c 0
 393 7 376.333007812 0 357 0 c 1
 357 0 l 1
500 0 m 1
 480 0 463 7 449 21 c 0
 435 35 428.333007812 51.6669921875 429 71 c 0
 429 91 435.666992188 107.666992188 449 121 c 0
 463 135 480 142.333007812 500 143 c 0
 520 143 537 135.666992188 551 121 c 0
 565 107 571.666992188 90.3330078125 571 71 c 0
 571 51.6669921875 564.333007812 35 551 21 c 0
 537 7 520 0 500 0 c 1
 500 0 l 1
643 0 m 1
 623 0 606 7 592 21 c 0
 578 35 571 51.6669921875 571 71 c 0
 571 91 578 107.666992188 592 121 c 0
 606 135 623 142.333007812 643 143 c 0
 662.333007812 143 679.333007812 135.666992188 694 121 c 0
 708 107 714.666992188 90.3330078125 714 71 c 0
 714 51.6669921875 707.333007812 35 694 21 c 0
 680 7 663 0 643 0 c 1
 643 0 l 1
71 143 m 1
 51.6669921875 143 35 150 21 164 c 0
 7 178 0 194.666992188 0 214 c 0
 0 234 7 251 21 265 c 0
 35 279 51.6669921875 286 71 286 c 0
 91 286 107.666992188 279 121 265 c 0
 135 251 142.333007812 234 143 214 c 0
 143 194 135.666992188 177.333007812 121 164 c 0
 107 150 90.3330078125 143 71 143 c 1
 71 143 l 1
643 143 m 1
 623 143 606 150 592 164 c 0
 578 178 571 194.666992188 571 214 c 0
 571 234 578 251 592 265 c 0
 606 279 623 286 643 286 c 0
 662.333007812 286 679.333007812 279 694 265 c 0
 708 251 714.666992188 234 714 214 c 0
 714 194 707.333007812 177.333007812 694 164 c 0
 680 150 663 143 643 143 c 1
 643 143 l 1
71 286 m 1
 51.6669921875 286 35 292.666992188 21 306 c 0
 7 320 0 337 0 357 c 0
 0 376.333007812 7 393 21 407 c 0
 35 421 51.6669921875 428.333007812 71 429 c 0
 91 429 107.666992188 421.666992188 121 407 c 0
 135 393 142.333007812 376.333007812 143 357 c 0
 143 337 135.666992188 320 121 306 c 0
 107 292 90.3330078125 285.333007812 71 286 c 1
 71 286 l 1
643 286 m 1
 623 286 606 292.666992188 592 306 c 0
 578 320 571 337 571 357 c 0
 571 376.333007812 578 393 592 407 c 0
 606 421 623 428.333007812 643 429 c 0
 662.333007812 429 679.333007812 421.666992188 694 407 c 0
 708 393 714.666992188 376.333007812 714 357 c 0
 714 337 707.333007812 320 694 306 c 0
 680 292 663 285.333007812 643 286 c 1
 643 286 l 1
71 429 m 1
 51.6669921875 429 35 435.666992188 21 449 c 0
 7 463 0 480 0 500 c 0
 0 520 7 537 21 551 c 0
 35 565 51.6669921875 571.666992188 71 571 c 0
 91 571 107.666992188 564.333007812 121 551 c 0
 135 537 142.333007812 520 143 500 c 0
 143 480 135.666992188 463 121 449 c 0
 107 435 90.3330078125 428.333007812 71 429 c 1
 71 429 l 1
643 429 m 1
 623 429 606 435.666992188 592 449 c 0
 578 463 571 480 571 500 c 0
 571 520 578 537 592 551 c 0
 606 565 623 571.666992188 643 571 c 0
 662.333007812 571 679.333007812 564.333007812 694 551 c 0
 708 537 714.666992188 520 714 500 c 0
 714 480 707.333007812 463 694 449 c 0
 680 435 663 428.333007812 643 429 c 1
 643 429 l 1
71 571 m 1
 51.6669921875 571 35 578 21 592 c 0
 7 606 0 623 0 643 c 0
 0 662.333007812 7 679.333007812 21 694 c 0
 35 708 51.6669921875 714.666992188 71 714 c 0
 91 714 107.666992188 707.333007812 121 694 c 0
 135 680 142.333007812 663 143 643 c 0
 143 623 135.666992188 606 121 592 c 0
 107 578 90.3330078125 571 71 571 c 1
 71 571 l 1
357 571 m 1
 337 571 320 578 306 592 c 0
 292 606 285.333007812 623 286 643 c 0
 286 662.333007812 292.666992188 679.333007812 306 694 c 0
 320 708 337 714.666992188 357 714 c 0
 376.333007812 714 393 707.333007812 407 694 c 0
 421 680 428.333007812 663 429 643 c 0
 429 623 421.666992188 606 407 592 c 0
 393 578 376.333007812 571 357 571 c 1
 357 571 l 1
643 571 m 1
 623 571 606 578 592 592 c 0
 578 606 571 623 571 643 c 0
 571 662.333007812 578 679.333007812 592 694 c 0
 606 708 623 714.666992188 643 714 c 0
 662.333007812 714 679.333007812 707.333007812 694 694 c 0
 708 680 714.666992188 663 714 643 c 0
 714 623 707.333007812 606 694 592 c 0
 680 578 663 571 643 571 c 1
 643 571 l 1
71 714 m 1
 51.6669921875 714 35 721 21 735 c 0
 7 749 0 766 0 786 c 0
 0 806 7 822.666992188 21 836 c 0
 35 850 51.6669921875 857 71 857 c 0
 91 857 107.666992188 850 121 836 c 0
 135 822 142.333007812 805.333007812 143 786 c 0
 143 766.666992188 135.666992188 749.666992188 121 735 c 0
 107 721 90.3330078125 714 71 714 c 1
 71 714 l 1
357 714 m 1
 337 714 320 721 306 735 c 0
 292 749 285.333007812 766 286 786 c 0
 286 806 292.666992188 822.666992188 306 836 c 0
 320 850 337 857 357 857 c 0
 376.333007812 857 393 850 407 836 c 0
 421 822 428.333007812 805.333007812 429 786 c 0
 429 766.666992188 421.666992188 749.666992188 407 735 c 0
 393 721 376.333007812 714 357 714 c 1
 357 714 l 1
643 714 m 1
 623 714 606 721 592 735 c 0
 578 749 571 766 571 786 c 0
 571 806 578 822.666992188 592 836 c 0
 606 850 623 857 643 857 c 0
 662.333007812 857 679.333007812 850 694 836 c 0
 708 822 714.666992188 805.333007812 714 786 c 0
 714 766.666992188 707.333007812 749.666992188 694 735 c 0
 680 721 663 714 643 714 c 1
 643 714 l 1
214 857 m 1
 194 857 177.333007812 864 164 878 c 0
 150 892 143 909 143 929 c 0
 143 949 150 965.666992188 164 979 c 0
 178 993 194.666992188 1000 214 1000 c 0
 234 1000 251 993 265 979 c 0
 279 965 286 948.333007812 286 929 c 0
 286 909 279 892 265 878 c 0
 251 864 234 857 214 857 c 1
 214 857 l 1
357 857 m 1
 337 857 320 864 306 878 c 0
 292 892 285.333007812 909 286 929 c 0
 286 949 292.666992188 965.666992188 306 979 c 0
 320 993 337 1000 357 1000 c 0
 376.333007812 1000 393 993 407 979 c 0
 421 965 428.333007812 948.333007812 429 929 c 0
 429 909 421.666992188 892 407 878 c 0
 393 864 376.333007812 857 357 857 c 1
 357 857 l 1
643 857 m 1
 623 857 606 864 592 878 c 0
 578 892 571 909 571 929 c 0
 571 949 578 965.666992188 592 979 c 0
 606 993 623 1000 643 1000 c 0
 662.333007812 1000 679.333007812 993 694 979 c 0
 708 965 714.666992188 948.333007812 714 929 c 0
 714 909 707.333007812 892 694 878 c 0
 680 864 663 857 643 857 c 1
 643 857 l 1
786 857 m 1
 766.666992188 857 749.666992188 864 735 878 c 0
 721 892 714 909 714 929 c 0
 714 949 721 965.666992188 735 979 c 0
 749 993 766 1000 786 1000 c 0
 806 1000 822.666992188 993 836 979 c 0
 850 965 857 948.333007812 857 929 c 0
 857 909 850 892 836 878 c 0
 822 864 805.333007812 857 786 857 c 1
 786 857 l 1
EndSplineSet
Validated: 524325
EndChar

StartChar: Q
Encoding: 81 81 39
Width: 999
GlyphClass: 2
Flags: W
LayerCount: 2
Fore
SplineSet
71 0 m 1
 51.6669921875 0 35 7 21 21 c 0
 7 35 0 51.6669921875 0 71 c 0
 0 91 7 107.666992188 21 121 c 0
 35 135 51.6669921875 142.333007812 71 143 c 0
 91 143 107.666992188 135.666992188 121 121 c 0
 135 107 142.333007812 90.3330078125 143 71 c 0
 143 51.6669921875 135.666992188 35 121 21 c 0
 107 7 90.3330078125 0 71 0 c 1
 71 0 l 1
214 0 m 1
 194 0 177.333007812 7 164 21 c 0
 150 35 143 51.6669921875 143 71 c 0
 143 91 150 107.666992188 164 121 c 0
 178 135 194.666992188 142.333007812 214 143 c 0
 234 143 251 135.666992188 265 121 c 0
 279 107 286 90.3330078125 286 71 c 0
 286 51.6669921875 279 35 265 21 c 0
 251 7 234 0 214 0 c 1
 214 0 l 1
357 0 m 1
 337 0 320 7 306 21 c 0
 292 35 285.333007812 51.6669921875 286 71 c 0
 286 91 292.666992188 107.666992188 306 121 c 0
 320 135 337 142.333007812 357 143 c 0
 376.333007812 143 393 135.666992188 407 121 c 0
 421 107 428.333007812 90.3330078125 429 71 c 0
 429 51.6669921875 421.666992188 35 407 21 c 0
 393 7 376.333007812 0 357 0 c 1
 357 0 l 1
500 0 m 1
 480 0 463 7 449 21 c 0
 435 35 428.333007812 51.6669921875 429 71 c 0
 429 91 435.666992188 107.666992188 449 121 c 0
 463 135 480 142.333007812 500 143 c 0
 520 143 537 135.666992188 551 121 c 0
 565 107 571.666992188 90.3330078125 571 71 c 0
 571 51.6669921875 564.333007812 35 551 21 c 0
 537 7 520 0 500 0 c 1
 500 0 l 1
71 143 m 1
 51.6669921875 143 35 150 21 164 c 0
 7 178 0 194.666992188 0 214 c 0
 0 234 7 251 21 265 c 0
 35 279 51.6669921875 286 71 286 c 0
 91 286 107.666992188 279 121 265 c 0
 135 251 142.333007812 234 143 214 c 0
 143 194 135.666992188 177.333007812 121 164 c 0
 107 150 90.3330078125 143 71 143 c 1
 71 143 l 1
71 286 m 1
 51.6669921875 286 35 292.666992188 21 306 c 0
 7 320 0 337 0 357 c 0
 0 376.333007812 7 393 21 407 c 0
 35 421 51.6669921875 428.333007812 71 429 c 0
 91 429 107.666992188 421.666992188 121 407 c 0
 135 393 142.333007812 376.333007812 143 357 c 0
 143 337 135.666992188 320 121 306 c 0
 107 292 90.3330078125 285.333007812 71 286 c 1
 71 286 l 1
71 429 m 1
 51.6669921875 429 35 435.666992188 21 449 c 0
 7 463 0 480 0 500 c 0
 0 520 7 537 21 551 c 0
 35 565 51.6669921875 571.666992188 71 571 c 0
 91 571 107.666992188 564.333007812 121 551 c 0
 135 537 142.333007812 520 143 500 c 0
 143 480 135.666992188 463 121 449 c 0
 107 435 90.3330078125 428.333007812 71 429 c 1
 71 429 l 1
786 429 m 1
 766.666992188 429 749.666992188 435.666992188 735 449 c 0
 721 463 714 480 714 500 c 0
 714 520 721 537 735 551 c 0
 749 565 766 571.666992188 786 571 c 0
 806 571 822.666992188 564.333007812 836 551 c 0
 850 537 857 520 857 500 c 0
 857 480 850 463 836 449 c 0
 822 435 805.333007812 428.333007812 786 429 c 1
 786 429 l 1
71 571 m 1
 51.6669921875 571 35 578 21 592 c 0
 7 606 0 623 0 643 c 0
 0 662.333007812 7 679.333007812 21 694 c 0
 35 708 51.6669921875 714.666992188 71 714 c 0
 91 714 107.666992188 707.333007812 121 694 c 0
 135 680 142.333007812 663 143 643 c 0
 143 623 135.666992188 606 121 592 c 0
 107 578 90.3330078125 571 71 571 c 1
 71 571 l 1
786 571 m 1
 766.666992188 571 749.666992188 578 735 592 c 0
 721 606 714 623 714 643 c 0
 714 662.333007812 721 679.333007812 735 694 c 0
 749 708 766 714.666992188 786 714 c 0
 806 714 822.666992188 707.333007812 836 694 c 0
 850 680 857 663 857 643 c 0
 857 623 850 606 836 592 c 0
 822 578 805.333007812 571 786 571 c 1
 786 571 l 1
71 714 m 1
 51.6669921875 714 35 721 21 735 c 0
 7 749 0 766 0 786 c 0
 0 806 7 822.666992188 21 836 c 0
 35 850 51.6669921875 857 71 857 c 0
 91 857 107.666992188 850 121 836 c 0
 135 822 142.333007812 805.333007812 143 786 c 0
 143 766.666992188 135.666992188 749.666992188 121 735 c 0
 107 721 90.3330078125 714 71 714 c 1
 71 714 l 1
786 714 m 1
 766.666992188 714 749.666992188 721 735 735 c 0
 721 749 714 766 714 786 c 0
 714 806 721 822.666992188 735 836 c 0
 749 850 766 857 786 857 c 0
 806 857 822.666992188 850 836 836 c 0
 850 822 857 805.333007812 857 786 c 0
 857 766.666992188 850 749.666992188 836 735 c 0
 822 721 805.333007812 714 786 714 c 1
 786 714 l 1
71 857 m 1
 51.6669921875 857 35 864 21 878 c 0
 7 892 0 909 0 929 c 0
 0 949 7 965.666992188 21 979 c 0
 35 993 51.6669921875 1000 71 1000 c 0
 91 1000 107.666992188 993 121 979 c 0
 135 965 142.333007812 948.333007812 143 929 c 0
 143 909 135.666992188 892 121 878 c 0
 107 864 90.3330078125 857 71 857 c 1
 71 857 l 1
214 857 m 1
 194 857 177.333007812 864 164 878 c 0
 150 892 143 909 143 929 c 0
 143 949 150 965.666992188 164 979 c 0
 178 993 194.666992188 1000 214 1000 c 0
 234 1000 251 993 265 979 c 0
 279 965 286 948.333007812 286 929 c 0
 286 909 279 892 265 878 c 0
 251 864 234 857 214 857 c 1
 214 857 l 1
357 857 m 1
 337 857 320 864 306 878 c 0
 292 892 285.333007812 909 286 929 c 0
 286 949 292.666992188 965.666992188 306 979 c 0
 320 993 337 1000 357 1000 c 0
 376.333007812 1000 393 993 407 979 c 0
 421 965 428.333007812 948.333007812 429 929 c 0
 429 909 421.666992188 892 407 878 c 0
 393 864 376.333007812 857 357 857 c 1
 357 857 l 1
500 857 m 1
 480 857 463 864 449 878 c 0
 435 892 428.333007812 909 429 929 c 0
 429 949 435.666992188 965.666992188 449 979 c 0
 463 993 480 1000 500 1000 c 0
 520 1000 537 993 551 979 c 0
 565 965 571.666992188 948.333007812 571 929 c 0
 571 909 564.333007812 892 551 878 c 0
 537 864 520 857 500 857 c 1
 500 857 l 1
643 857 m 1
 623 857 606 864 592 878 c 0
 578 892 571 909 571 929 c 0
 571 949 578 965.666992188 592 979 c 0
 606 993 623 1000 643 1000 c 0
 662.333007812 1000 679.333007812 993 694 979 c 0
 708 965 714.666992188 948.333007812 714 929 c 0
 714 909 707.333007812 892 694 878 c 0
 680 864 663 857 643 857 c 1
 643 857 l 1
786 857 m 1
 766.666992188 857 749.666992188 864 735 878 c 0
 721 892 714 909 714 929 c 0
 714 949 721 965.666992188 735 979 c 0
 749 993 766 1000 786 1000 c 0
 806 1000 822.666992188 993 836 979 c 0
 850 965 857 948.333007812 857 929 c 0
 857 909 850 892 836 878 c 0
 822 864 805.333007812 857 786 857 c 1
 786 857 l 1
EndSplineSet
Validated: 524325
EndChar

StartChar: R
Encoding: 82 82 40
Width: 999
GlyphClass: 2
Flags: W
LayerCount: 2
Fore
SplineSet
357 0 m 1
 337 0 320 7 306 21 c 0
 292 35 285.333007812 51.6669921875 286 71 c 0
 286 91 292.666992188 107.666992188 306 121 c 0
 320 135 337 142.333007812 357 143 c 0
 376.333007812 143 393 135.666992188 407 121 c 0
 421 107 428.333007812 90.3330078125 429 71 c 0
 429 51.6669921875 421.666992188 35 407 21 c 0
 393 7 376.333007812 0 357 0 c 1
 357 0 l 1
357 143 m 1
 337 143 320 150 306 164 c 0
 292 178 285.333007812 194.666992188 286 214 c 0
 286 234 292.666992188 251 306 265 c 0
 320 279 337 286 357 286 c 0
 376.333007812 286 393 279 407 265 c 0
 421 251 428.333007812 234 429 214 c 0
 429 194 421.666992188 177.333007812 407 164 c 0
 393 150 376.333007812 143 357 143 c 1
 357 143 l 1
500 286 m 1
 480 286 463 292.666992188 449 306 c 0
 435 320 428.333007812 337 429 357 c 0
 429 376.333007812 435.666992188 393 449 407 c 0
 463 421 480 428.333007812 500 429 c 0
 520 429 537 421.666992188 551 407 c 0
 565 393 571.666992188 376.333007812 571 357 c 0
 571 337 564.333007812 320 551 306 c 0
 537 292 520 285.333007812 500 286 c 1
 500 286 l 1
500 429 m 1
 480 429 463 435.666992188 449 449 c 0
 435 463 428.333007812 480 429 500 c 0
 429 520 435.666992188 537 449 551 c 0
 463 565 480 571.666992188 500 571 c 0
 520 571 537 564.333007812 551 551 c 0
 565 537 571.666992188 520 571 500 c 0
 571 480 564.333007812 463 551 449 c 0
 537 435 520 428.333007812 500 429 c 1
 500 429 l 1
643 571 m 1
 623 571 606 578 592 592 c 0
 578 606 571 623 571 643 c 0
 571 662.333007812 578 679.333007812 592 694 c 0
 606 708 623 714.666992188 643 714 c 0
 662.333007812 714 679.333007812 707.333007812 694 694 c 0
 708 680 714.666992188 663 714 643 c 0
 714 623 707.333007812 606 694 592 c 0
 680 578 663 571 643 571 c 1
 643 571 l 1
643 714 m 1
 623 714 606 721 592 735 c 0
 578 749 571 766 571 786 c 0
 571 806 578 822.666992188 592 836 c 0
 606 850 623 857 643 857 c 0
 662.333007812 857 679.333007812 850 694 836 c 0
 708 822 714.666992188 805.333007812 714 786 c 0
 714 766.666992188 707.333007812 749.666992188 694 735 c 0
 680 721 663 714 643 714 c 1
 643 714 l 1
71 857 m 1
 51.6669921875 857 35 864 21 878 c 0
 7 892 0 909 0 929 c 0
 0 949 7 965.666992188 21 979 c 0
 35 993 51.6669921875 1000 71 1000 c 0
 91 1000 107.666992188 993 121 979 c 0
 135 965 142.333007812 948.333007812 143 929 c 0
 143 909 135.666992188 892 121 878 c 0
 107 864 90.3330078125 857 71 857 c 1
 71 857 l 1
214 857 m 1
 194 857 177.333007812 864 164 878 c 0
 150 892 143 909 143 929 c 0
 143 949 150 965.666992188 164 979 c 0
 178 993 194.666992188 1000 214 1000 c 0
 234 1000 251 993 265 979 c 0
 279 965 286 948.333007812 286 929 c 0
 286 909 279 892 265 878 c 0
 251 864 234 857 214 857 c 1
 214 857 l 1
357 857 m 1
 337 857 320 864 306 878 c 0
 292 892 285.333007812 909 286 929 c 0
 286 949 292.666992188 965.666992188 306 979 c 0
 320 993 337 1000 357 1000 c 0
 376.333007812 1000 393 993 407 979 c 0
 421 965 428.333007812 948.333007812 429 929 c 0
 429 909 421.666992188 892 407 878 c 0
 393 864 376.333007812 857 357 857 c 1
 357 857 l 1
500 857 m 1
 480 857 463 864 449 878 c 0
 435 892 428.333007812 909 429 929 c 0
 429 949 435.666992188 965.666992188 449 979 c 0
 463 993 480 1000 500 1000 c 0
 520 1000 537 993 551 979 c 0
 565 965 571.666992188 948.333007812 571 929 c 0
 571 909 564.333007812 892 551 878 c 0
 537 864 520 857 500 857 c 1
 500 857 l 1
643 857 m 1
 623 857 606 864 592 878 c 0
 578 892 571 909 571 929 c 0
 571 949 578 965.666992188 592 979 c 0
 606 993 623 1000 643 1000 c 0
 662.333007812 1000 679.333007812 993 694 979 c 0
 708 965 714.666992188 948.333007812 714 929 c 0
 714 909 707.333007812 892 694 878 c 0
 680 864 663 857 643 857 c 1
 643 857 l 1
786 857 m 1
 766.666992188 857 749.666992188 864 735 878 c 0
 721 892 714 909 714 929 c 0
 714 949 721 965.666992188 735 979 c 0
 749 993 766 1000 786 1000 c 0
 806 1000 822.666992188 993 836 979 c 0
 850 965 857 948.333007812 857 929 c 0
 857 909 850 892 836 878 c 0
 822 864 805.333007812 857 786 857 c 1
 786 857 l 1
EndSplineSet
Validated: 524325
EndChar

StartChar: S
Encoding: 83 83 41
Width: 999
GlyphClass: 2
Flags: W
LayerCount: 2
Fore
SplineSet
357 0 m 1
 337 0 320 7 306 21 c 0
 292 35 285.333007812 51.6669921875 286 71 c 0
 286 91 292.666992188 107.666992188 306 121 c 0
 320 135 337 142.333007812 357 143 c 0
 376.333007812 143 393 135.666992188 407 121 c 0
 421 107 428.333007812 90.3330078125 429 71 c 0
 429 51.6669921875 421.666992188 35 407 21 c 0
 393 7 376.333007812 0 357 0 c 1
 357 0 l 1
500 0 m 1
 480 0 463 7 449 21 c 0
 435 35 428.333007812 51.6669921875 429 71 c 0
 429 91 435.666992188 107.666992188 449 121 c 0
 463 135 480 142.333007812 500 143 c 0
 520 143 537 135.666992188 551 121 c 0
 565 107 571.666992188 90.3330078125 571 71 c 0
 571 51.6669921875 564.333007812 35 551 21 c 0
 537 7 520 0 500 0 c 1
 500 0 l 1
786 0 m 1
 766.666992188 0 749.666992188 7 735 21 c 0
 721 35 714 51.6669921875 714 71 c 0
 714 91 721 107.666992188 735 121 c 0
 749 135 766 142.333007812 786 143 c 0
 806 143 822.666992188 135.666992188 836 121 c 0
 850 107 857 90.3330078125 857 71 c 0
 857 51.6669921875 850 35 836 21 c 0
 822 7 805.333007812 0 786 0 c 1
 786 0 l 1
71 143 m 1
 51.6669921875 143 35 150 21 164 c 0
 7 178 0 194.666992188 0 214 c 0
 0 234 7 251 21 265 c 0
 35 279 51.6669921875 286 71 286 c 0
 91 286 107.666992188 279 121 265 c 0
 135 251 142.333007812 234 143 214 c 0
 143 194 135.666992188 177.333007812 121 164 c 0
 107 150 90.3330078125 143 71 143 c 1
 71 143 l 1
214 143 m 1
 194 143 177.333007812 150 164 164 c 0
 150 178 143 194.666992188 143 214 c 0
 143 234 150 251 164 265 c 0
 178 279 194.666992188 286 214 286 c 0
 234 286 251 279 265 265 c 0
 279 251 286 234 286 214 c 0
 286 194 279 177.333007812 265 164 c 0
 251 150 234 143 214 143 c 1
 214 143 l 1
786 143 m 1
 766.666992188 143 749.666992188 150 735 164 c 0
 721 178 714 194.666992188 714 214 c 0
 714 234 721 251 735 265 c 0
 749 279 766 286 786 286 c 0
 806 286 822.666992188 279 836 265 c 0
 850 251 857 234 857 214 c 0
 857 194 850 177.333007812 836 164 c 0
 822 150 805.333007812 143 786 143 c 1
 786 143 l 1
643 286 m 1
 623 286 606 292.666992188 592 306 c 0
 578 320 571 337 571 357 c 0
 571 376.333007812 578 393 592 407 c 0
 606 421 623 428.333007812 643 429 c 0
 662.333007812 429 679.333007812 421.666992188 694 407 c 0
 708 393 714.666992188 376.333007812 714 357 c 0
 714 337 707.333007812 320 694 306 c 0
 680 292 663 285.333007812 643 286 c 1
 643 286 l 1
786 286 m 1
 766.666992188 286 749.666992188 292.666992188 735 306 c 0
 721 320 714 337 714 357 c 0
 714 376.333007812 721 393 735 407 c 0
 749 421 766 428.333007812 786 429 c 0
 806 429 822.666992188 421.666992188 836 407 c 0
 850 393 857 376.333007812 857 357 c 0
 857 337 850 320 836 306 c 0
 822 292 805.333007812 285.333007812 786 286 c 1
 786 286 l 1
500 429 m 1
 480 429 463 435.666992188 449 449 c 0
 435 463 428.333007812 480 429 500 c 0
 429 520 435.666992188 537 449 551 c 0
 463 565 480 571.666992188 500 571 c 0
 520 571 537 564.333007812 551 551 c 0
 565 537 571.666992188 520 571 500 c 0
 571 480 564.333007812 463 551 449 c 0
 537 435 520 428.333007812 500 429 c 1
 500 429 l 1
786 429 m 1
 766.666992188 429 749.666992188 435.666992188 735 449 c 0
 721 463 714 480 714 500 c 0
 714 520 721 537 735 551 c 0
 749 565 766 571.666992188 786 571 c 0
 806 571 822.666992188 564.333007812 836 551 c 0
 850 537 857 520 857 500 c 0
 857 480 850 463 836 449 c 0
 822 435 805.333007812 428.333007812 786 429 c 1
 786 429 l 1
357 571 m 1
 337 571 320 578 306 592 c 0
 292 606 285.333007812 623 286 643 c 0
 286 662.333007812 292.666992188 679.333007812 306 694 c 0
 320 708 337 714.666992188 357 714 c 0
 376.333007812 714 393 707.333007812 407 694 c 0
 421 680 428.333007812 663 429 643 c 0
 429 623 421.666992188 606 407 592 c 0
 393 578 376.333007812 571 357 571 c 1
 357 571 l 1
786 571 m 1
 766.666992188 571 749.666992188 578 735 592 c 0
 721 606 714 623 714 643 c 0
 714 662.333007812 721 679.333007812 735 694 c 0
 749 708 766 714.666992188 786 714 c 0
 806 714 822.666992188 707.333007812 836 694 c 0
 850 680 857 663 857 643 c 0
 857 623 850 606 836 592 c 0
 822 578 805.333007812 571 786 571 c 1
 786 571 l 1
214 714 m 1
 194 714 177.333007812 721 164 735 c 0
 150 749 143 766 143 786 c 0
 143 806 150 822.666992188 164 836 c 0
 178 850 194.666992188 857 214 857 c 0
 234 857 251 850 265 836 c 0
 279 822 286 805.333007812 286 786 c 0
 286 766.666992188 279 749.666992188 265 735 c 0
 251 721 234 714 214 714 c 1
 214 714 l 1
786 714 m 1
 766.666992188 714 749.666992188 721 735 735 c 0
 721 749 714 766 714 786 c 0
 714 806 721 822.666992188 735 836 c 0
 749 850 766 857 786 857 c 0
 806 857 822.666992188 850 836 836 c 0
 850 822 857 805.333007812 857 786 c 0
 857 766.666992188 850 749.666992188 836 735 c 0
 822 721 805.333007812 714 786 714 c 1
 786 714 l 1
71 857 m 1
 51.6669921875 857 35 864 21 878 c 0
 7 892 0 909 0 929 c 0
 0 949 7 965.666992188 21 979 c 0
 35 993 51.6669921875 1000 71 1000 c 0
 91 1000 107.666992188 993 121 979 c 0
 135 965 142.333007812 948.333007812 143 929 c 0
 143 909 135.666992188 892 121 878 c 0
 107 864 90.3330078125 857 71 857 c 1
 71 857 l 1
786 857 m 1
 766.666992188 857 749.666992188 864 735 878 c 0
 721 892 714 909 714 929 c 0
 714 949 721 965.666992188 735 979 c 0
 749 993 766 1000 786 1000 c 0
 806 1000 822.666992188 993 836 979 c 0
 850 965 857 948.333007812 857 929 c 0
 857 909 850 892 836 878 c 0
 822 864 805.333007812 857 786 857 c 1
 786 857 l 1
EndSplineSet
Validated: 524325
EndChar

StartChar: T
Encoding: 84 84 42
Width: 999
GlyphClass: 2
Flags: W
LayerCount: 2
Fore
SplineSet
214 0 m 1
 194 0 177.333007812 7 164 21 c 0
 150 35 143 51.6669921875 143 71 c 0
 143 91 150 107.666992188 164 121 c 0
 178 135 194.666992188 142.333007812 214 143 c 0
 234 143 251 135.666992188 265 121 c 0
 279 107 286 90.3330078125 286 71 c 0
 286 51.6669921875 279 35 265 21 c 0
 251 7 234 0 214 0 c 1
 214 0 l 1
357 0 m 1
 337 0 320 7 306 21 c 0
 292 35 285.333007812 51.6669921875 286 71 c 0
 286 91 292.666992188 107.666992188 306 121 c 0
 320 135 337 142.333007812 357 143 c 0
 376.333007812 143 393 135.666992188 407 121 c 0
 421 107 428.333007812 90.3330078125 429 71 c 0
 429 51.6669921875 421.666992188 35 407 21 c 0
 393 7 376.333007812 0 357 0 c 1
 357 0 l 1
500 0 m 1
 480 0 463 7 449 21 c 0
 435 35 428.333007812 51.6669921875 429 71 c 0
 429 91 435.666992188 107.666992188 449 121 c 0
 463 135 480 142.333007812 500 143 c 0
 520 143 537 135.666992188 551 121 c 0
 565 107 571.666992188 90.3330078125 571 71 c 0
 571 51.6669921875 564.333007812 35 551 21 c 0
 537 7 520 0 500 0 c 1
 500 0 l 1
71 143 m 1
 51.6669921875 143 35 150 21 164 c 0
 7 178 0 194.666992188 0 214 c 0
 0 234 7 251 21 265 c 0
 35 279 51.6669921875 286 71 286 c 0
 91 286 107.666992188 279 121 265 c 0
 135 251 142.333007812 234 143 214 c 0
 143 194 135.666992188 177.333007812 121 164 c 0
 107 150 90.3330078125 143 71 143 c 1
 71 143 l 1
357 143 m 1
 337 143 320 150 306 164 c 0
 292 178 285.333007812 194.666992188 286 214 c 0
 286 234 292.666992188 251 306 265 c 0
 320 279 337 286 357 286 c 0
 376.333007812 286 393 279 407 265 c 0
 421 251 428.333007812 234 429 214 c 0
 429 194 421.666992188 177.333007812 407 164 c 0
 393 150 376.333007812 143 357 143 c 1
 357 143 l 1
643 143 m 1
 623 143 606 150 592 164 c 0
 578 178 571 194.666992188 571 214 c 0
 571 234 578 251 592 265 c 0
 606 279 623 286 643 286 c 0
 662.333007812 286 679.333007812 279 694 265 c 0
 708 251 714.666992188 234 714 214 c 0
 714 194 707.333007812 177.333007812 694 164 c 0
 680 150 663 143 643 143 c 1
 643 143 l 1
71 286 m 1
 51.6669921875 286 35 292.666992188 21 306 c 0
 7 320 0 337 0 357 c 0
 0 376.333007812 7 393 21 407 c 0
 35 421 51.6669921875 428.333007812 71 429 c 0
 91 429 107.666992188 421.666992188 121 407 c 0
 135 393 142.333007812 376.333007812 143 357 c 0
 143 337 135.666992188 320 121 306 c 0
 107 292 90.3330078125 285.333007812 71 286 c 1
 71 286 l 1
357 286 m 1
 337 286 320 292.666992188 306 306 c 0
 292 320 285.333007812 337 286 357 c 0
 286 376.333007812 292.666992188 393 306 407 c 0
 320 421 337 428.333007812 357 429 c 0
 376.333007812 429 393 421.666992188 407 407 c 0
 421 393 428.333007812 376.333007812 429 357 c 0
 429 337 421.666992188 320 407 306 c 0
 393 292 376.333007812 285.333007812 357 286 c 1
 357 286 l 1
643 286 m 1
 623 286 606 292.666992188 592 306 c 0
 578 320 571 337 571 357 c 0
 571 376.333007812 578 393 592 407 c 0
 606 421 623 428.333007812 643 429 c 0
 662.333007812 429 679.333007812 421.666992188 694 407 c 0
 708 393 714.666992188 376.333007812 714 357 c 0
 714 337 707.333007812 320 694 306 c 0
 680 292 663 285.333007812 643 286 c 1
 643 286 l 1
357 429 m 1
 337 429 320 435.666992188 306 449 c 0
 292 463 285.333007812 480 286 500 c 0
 286 520 292.666992188 537 306 551 c 0
 320 565 337 571.666992188 357 571 c 0
 376.333007812 571 393 564.333007812 407 551 c 0
 421 537 428.333007812 520 429 500 c 0
 429 480 421.666992188 463 407 449 c 0
 393 435 376.333007812 428.333007812 357 429 c 1
 357 429 l 1
357 571 m 1
 337 571 320 578 306 592 c 0
 292 606 285.333007812 623 286 643 c 0
 286 662.333007812 292.666992188 679.333007812 306 694 c 0
 320 708 337 714.666992188 357 714 c 0
 376.333007812 714 393 707.333007812 407 694 c 0
 421 680 428.333007812 663 429 643 c 0
 429 623 421.666992188 606 407 592 c 0
 393 578 376.333007812 571 357 571 c 1
 357 571 l 1
357 714 m 1
 337 714 320 721 306 735 c 0
 292 749 285.333007812 766 286 786 c 0
 286 806 292.666992188 822.666992188 306 836 c 0
 320 850 337 857 357 857 c 0
 376.333007812 857 393 850 407 836 c 0
 421 822 428.333007812 805.333007812 429 786 c 0
 429 766.666992188 421.666992188 749.666992188 407 735 c 0
 393 721 376.333007812 714 357 714 c 1
 357 714 l 1
357 857 m 1
 337 857 320 864 306 878 c 0
 292 892 285.333007812 909 286 929 c 0
 286 949 292.666992188 965.666992188 306 979 c 0
 320 993 337 1000 357 1000 c 0
 376.333007812 1000 393 993 407 979 c 0
 421 965 428.333007812 948.333007812 429 929 c 0
 429 909 421.666992188 892 407 878 c 0
 393 864 376.333007812 857 357 857 c 1
 357 857 l 1
EndSplineSet
Validated: 524325
EndChar

StartChar: U
Encoding: 85 85 43
Width: 999
GlyphClass: 2
Flags: W
LayerCount: 2
Fore
SplineSet
71 0 m 1
 51.6669921875 0 35 7 21 21 c 0
 7 35 0 51.6669921875 0 71 c 0
 0 91 7 107.666992188 21 121 c 0
 35 135 51.6669921875 142.333007812 71 143 c 0
 91 143 107.666992188 135.666992188 121 121 c 0
 135 107 142.333007812 90.3330078125 143 71 c 0
 143 51.6669921875 135.666992188 35 121 21 c 0
 107 7 90.3330078125 0 71 0 c 1
 71 0 l 1
214 0 m 1
 194 0 177.333007812 7 164 21 c 0
 150 35 143 51.6669921875 143 71 c 0
 143 91 150 107.666992188 164 121 c 0
 178 135 194.666992188 142.333007812 214 143 c 0
 234 143 251 135.666992188 265 121 c 0
 279 107 286 90.3330078125 286 71 c 0
 286 51.6669921875 279 35 265 21 c 0
 251 7 234 0 214 0 c 1
 214 0 l 1
357 0 m 1
 337 0 320 7 306 21 c 0
 292 35 285.333007812 51.6669921875 286 71 c 0
 286 91 292.666992188 107.666992188 306 121 c 0
 320 135 337 142.333007812 357 143 c 0
 376.333007812 143 393 135.666992188 407 121 c 0
 421 107 428.333007812 90.3330078125 429 71 c 0
 429 51.6669921875 421.666992188 35 407 21 c 0
 393 7 376.333007812 0 357 0 c 1
 357 0 l 1
500 0 m 1
 480 0 463 7 449 21 c 0
 435 35 428.333007812 51.6669921875 429 71 c 0
 429 91 435.666992188 107.666992188 449 121 c 0
 463 135 480 142.333007812 500 143 c 0
 520 143 537 135.666992188 551 121 c 0
 565 107 571.666992188 90.3330078125 571 71 c 0
 571 51.6669921875 564.333007812 35 551 21 c 0
 537 7 520 0 500 0 c 1
 500 0 l 1
643 0 m 1
 623 0 606 7 592 21 c 0
 578 35 571 51.6669921875 571 71 c 0
 571 91 578 107.666992188 592 121 c 0
 606 135 623 142.333007812 643 143 c 0
 662.333007812 143 679.333007812 135.666992188 694 121 c 0
 708 107 714.666992188 90.3330078125 714 71 c 0
 714 51.6669921875 707.333007812 35 694 21 c 0
 680 7 663 0 643 0 c 1
 643 0 l 1
786 0 m 1
 766.666992188 0 749.666992188 7 735 21 c 0
 721 35 714 51.6669921875 714 71 c 0
 714 91 721 107.666992188 735 121 c 0
 749 135 766 142.333007812 786 143 c 0
 806 143 822.666992188 135.666992188 836 121 c 0
 850 107 857 90.3330078125 857 71 c 0
 857 51.6669921875 850 35 836 21 c 0
 822 7 805.333007812 0 786 0 c 1
 786 0 l 1
71 143 m 1
 51.6669921875 143 35 150 21 164 c 0
 7 178 0 194.666992188 0 214 c 0
 0 234 7 251 21 265 c 0
 35 279 51.6669921875 286 71 286 c 0
 91 286 107.666992188 279 121 265 c 0
 135 251 142.333007812 234 143 214 c 0
 143 194 135.666992188 177.333007812 121 164 c 0
 107 150 90.3330078125 143 71 143 c 1
 71 143 l 1
786 143 m 1
 766.666992188 143 749.666992188 150 735 164 c 0
 721 178 714 194.666992188 714 214 c 0
 714 234 721 251 735 265 c 0
 749 279 766 286 786 286 c 0
 806 286 822.666992188 279 836 265 c 0
 850 251 857 234 857 214 c 0
 857 194 850 177.333007812 836 164 c 0
 822 150 805.333007812 143 786 143 c 1
 786 143 l 1
71 286 m 1
 51.6669921875 286 35 292.666992188 21 306 c 0
 7 320 0 337 0 357 c 0
 0 376.333007812 7 393 21 407 c 0
 35 421 51.6669921875 428.333007812 71 429 c 0
 91 429 107.666992188 421.666992188 121 407 c 0
 135 393 142.333007812 376.333007812 143 357 c 0
 143 337 135.666992188 320 121 306 c 0
 107 292 90.3330078125 285.333007812 71 286 c 1
 71 286 l 1
786 286 m 1
 766.666992188 286 749.666992188 292.666992188 735 306 c 0
 721 320 714 337 714 357 c 0
 714 376.333007812 721 393 735 407 c 0
 749 421 766 428.333007812 786 429 c 0
 806 429 822.666992188 421.666992188 836 407 c 0
 850 393 857 376.333007812 857 357 c 0
 857 337 850 320 836 306 c 0
 822 292 805.333007812 285.333007812 786 286 c 1
 786 286 l 1
71 429 m 1
 51.6669921875 429 35 435.666992188 21 449 c 0
 7 463 0 480 0 500 c 0
 0 520 7 537 21 551 c 0
 35 565 51.6669921875 571.666992188 71 571 c 0
 91 571 107.666992188 564.333007812 121 551 c 0
 135 537 142.333007812 520 143 500 c 0
 143 480 135.666992188 463 121 449 c 0
 107 435 90.3330078125 428.333007812 71 429 c 1
 71 429 l 1
786 429 m 1
 766.666992188 429 749.666992188 435.666992188 735 449 c 0
 721 463 714 480 714 500 c 0
 714 520 721 537 735 551 c 0
 749 565 766 571.666992188 786 571 c 0
 806 571 822.666992188 564.333007812 836 551 c 0
 850 537 857 520 857 500 c 0
 857 480 850 463 836 449 c 0
 822 435 805.333007812 428.333007812 786 429 c 1
 786 429 l 1
71 571 m 1
 51.6669921875 571 35 578 21 592 c 0
 7 606 0 623 0 643 c 0
 0 662.333007812 7 679.333007812 21 694 c 0
 35 708 51.6669921875 714.666992188 71 714 c 0
 91 714 107.666992188 707.333007812 121 694 c 0
 135 680 142.333007812 663 143 643 c 0
 143 623 135.666992188 606 121 592 c 0
 107 578 90.3330078125 571 71 571 c 1
 71 571 l 1
357 571 m 1
 337 571 320 578 306 592 c 0
 292 606 285.333007812 623 286 643 c 0
 286 662.333007812 292.666992188 679.333007812 306 694 c 0
 320 708 337 714.666992188 357 714 c 0
 376.333007812 714 393 707.333007812 407 694 c 0
 421 680 428.333007812 663 429 643 c 0
 429 623 421.666992188 606 407 592 c 0
 393 578 376.333007812 571 357 571 c 1
 357 571 l 1
786 571 m 1
 766.666992188 571 749.666992188 578 735 592 c 0
 721 606 714 623 714 643 c 0
 714 662.333007812 721 679.333007812 735 694 c 0
 749 708 766 714.666992188 786 714 c 0
 806 714 822.666992188 707.333007812 836 694 c 0
 850 680 857 663 857 643 c 0
 857 623 850 606 836 592 c 0
 822 578 805.333007812 571 786 571 c 1
 786 571 l 1
71 714 m 1
 51.6669921875 714 35 721 21 735 c 0
 7 749 0 766 0 786 c 0
 0 806 7 822.666992188 21 836 c 0
 35 850 51.6669921875 857 71 857 c 0
 91 857 107.666992188 850 121 836 c 0
 135 822 142.333007812 805.333007812 143 786 c 0
 143 766.666992188 135.666992188 749.666992188 121 735 c 0
 107 721 90.3330078125 714 71 714 c 1
 71 714 l 1
500 714 m 1
 480 714 463 721 449 735 c 0
 435 749 428.333007812 766 429 786 c 0
 429 806 435.666992188 822.666992188 449 836 c 0
 463 850 480 857 500 857 c 0
 520 857 537 850 551 836 c 0
 565 822 571.666992188 805.333007812 571 786 c 0
 571 766.666992188 564.333007812 749.666992188 551 735 c 0
 537 721 520 714 500 714 c 1
 500 714 l 1
786 714 m 1
 766.666992188 714 749.666992188 721 735 735 c 0
 721 749 714 766 714 786 c 0
 714 806 721 822.666992188 735 836 c 0
 749 850 766 857 786 857 c 0
 806 857 822.666992188 850 836 836 c 0
 850 822 857 805.333007812 857 786 c 0
 857 766.666992188 850 749.666992188 836 735 c 0
 822 721 805.333007812 714 786 714 c 1
 786 714 l 1
71 857 m 1
 51.6669921875 857 35 864 21 878 c 0
 7 892 0 909 0 929 c 0
 0 949 7 965.666992188 21 979 c 0
 35 993 51.6669921875 1000 71 1000 c 0
 91 1000 107.666992188 993 121 979 c 0
 135 965 142.333007812 948.333007812 143 929 c 0
 143 909 135.666992188 892 121 878 c 0
 107 864 90.3330078125 857 71 857 c 1
 71 857 l 1
643 857 m 1
 623 857 606 864 592 878 c 0
 578 892 571 909 571 929 c 0
 571 949 578 965.666992188 592 979 c 0
 606 993 623 1000 643 1000 c 0
 662.333007812 1000 679.333007812 993 694 979 c 0
 708 965 714.666992188 948.333007812 714 929 c 0
 714 909 707.333007812 892 694 878 c 0
 680 864 663 857 643 857 c 1
 643 857 l 1
786 857 m 1
 766.666992188 857 749.666992188 864 735 878 c 0
 721 892 714 909 714 929 c 0
 714 949 721 965.666992188 735 979 c 0
 749 993 766 1000 786 1000 c 0
 806 1000 822.666992188 993 836 979 c 0
 850 965 857 948.333007812 857 929 c 0
 857 909 850 892 836 878 c 0
 822 864 805.333007812 857 786 857 c 1
 786 857 l 1
EndSplineSet
Validated: 524325
EndChar

StartChar: V
Encoding: 86 86 44
Width: 999
GlyphClass: 2
Flags: W
LayerCount: 2
Fore
SplineSet
357 0 m 1
 337 0 320 7 306 21 c 0
 292 35 285.333007812 51.6669921875 286 71 c 0
 286 91 292.666992188 107.666992188 306 121 c 0
 320 135 337 142.333007812 357 143 c 0
 376.333007812 143 393 135.666992188 407 121 c 0
 421 107 428.333007812 90.3330078125 429 71 c 0
 429 51.6669921875 421.666992188 35 407 21 c 0
 393 7 376.333007812 0 357 0 c 1
 357 0 l 1
357 143 m 1
 337 143 320 150 306 164 c 0
 292 178 285.333007812 194.666992188 286 214 c 0
 286 234 292.666992188 251 306 265 c 0
 320 279 337 286 357 286 c 0
 376.333007812 286 393 279 407 265 c 0
 421 251 428.333007812 234 429 214 c 0
 429 194 421.666992188 177.333007812 407 164 c 0
 393 150 376.333007812 143 357 143 c 1
 357 143 l 1
357 286 m 1
 337 286 320 292.666992188 306 306 c 0
 292 320 285.333007812 337 286 357 c 0
 286 376.333007812 292.666992188 393 306 407 c 0
 320 421 337 428.333007812 357 429 c 0
 376.333007812 429 393 421.666992188 407 407 c 0
 421 393 428.333007812 376.333007812 429 357 c 0
 429 337 421.666992188 320 407 306 c 0
 393 292 376.333007812 285.333007812 357 286 c 1
 357 286 l 1
357 429 m 1
 337 429 320 435.666992188 306 449 c 0
 292 463 285.333007812 480 286 500 c 0
 286 520 292.666992188 537 306 551 c 0
 320 565 337 571.666992188 357 571 c 0
 376.333007812 571 393 564.333007812 407 551 c 0
 421 537 428.333007812 520 429 500 c 0
 429 480 421.666992188 463 407 449 c 0
 393 435 376.333007812 428.333007812 357 429 c 1
 357 429 l 1
214 571 m 1
 194 571 177.333007812 578 164 592 c 0
 150 606 143 623 143 643 c 0
 143 662.333007812 150 679.333007812 164 694 c 0
 178 708 194.666992188 714.666992188 214 714 c 0
 234 714 251 707.333007812 265 694 c 0
 279 680 286 663 286 643 c 0
 286 623 279 606 265 592 c 0
 251 578 234 571 214 571 c 1
 214 571 l 1
500 571 m 1
 480 571 463 578 449 592 c 0
 435 606 428.333007812 623 429 643 c 0
 429 662.333007812 435.666992188 679.333007812 449 694 c 0
 463 708 480 714.666992188 500 714 c 0
 520 714 537 707.333007812 551 694 c 0
 565 680 571.666992188 663 571 643 c 0
 571 623 564.333007812 606 551 592 c 0
 537 578 520 571 500 571 c 1
 500 571 l 1
71 714 m 1
 51.6669921875 714 35 721 21 735 c 0
 7 749 0 766 0 786 c 0
 0 806 7 822.666992188 21 836 c 0
 35 850 51.6669921875 857 71 857 c 0
 91 857 107.666992188 850 121 836 c 0
 135 822 142.333007812 805.333007812 143 786 c 0
 143 766.666992188 135.666992188 749.666992188 121 735 c 0
 107 721 90.3330078125 714 71 714 c 1
 71 714 l 1
643 714 m 1
 623 714 606 721 592 735 c 0
 578 749 571 766 571 786 c 0
 571 806 578 822.666992188 592 836 c 0
 606 850 623 857 643 857 c 0
 662.333007812 857 679.333007812 850 694 836 c 0
 708 822 714.666992188 805.333007812 714 786 c 0
 714 766.666992188 707.333007812 749.666992188 694 735 c 0
 680 721 663 714 643 714 c 1
 643 714 l 1
71 857 m 1
 51.6669921875 857 35 864 21 878 c 0
 7 892 0 909 0 929 c 0
 0 949 7 965.666992188 21 979 c 0
 35 993 51.6669921875 1000 71 1000 c 0
 91 1000 107.666992188 993 121 979 c 0
 135 965 142.333007812 948.333007812 143 929 c 0
 143 909 135.666992188 892 121 878 c 0
 107 864 90.3330078125 857 71 857 c 1
 71 857 l 1
643 857 m 1
 623 857 606 864 592 878 c 0
 578 892 571 909 571 929 c 0
 571 949 578 965.666992188 592 979 c 0
 606 993 623 1000 643 1000 c 0
 662.333007812 1000 679.333007812 993 694 979 c 0
 708 965 714.666992188 948.333007812 714 929 c 0
 714 909 707.333007812 892 694 878 c 0
 680 864 663 857 643 857 c 1
 643 857 l 1
EndSplineSet
Validated: 524325
EndChar

StartChar: W
Encoding: 87 87 45
Width: 999
GlyphClass: 2
Flags: W
LayerCount: 2
Fore
SplineSet
71 0 m 1
 51.6669921875 0 35 7 21 21 c 0
 7 35 0 51.6669921875 0 71 c 0
 0 91 7 107.666992188 21 121 c 0
 35 135 51.6669921875 142.333007812 71 143 c 0
 91 143 107.666992188 135.666992188 121 121 c 0
 135 107 142.333007812 90.3330078125 143 71 c 0
 143 51.6669921875 135.666992188 35 121 21 c 0
 107 7 90.3330078125 0 71 0 c 1
 71 0 l 1
214 0 m 1
 194 0 177.333007812 7 164 21 c 0
 150 35 143 51.6669921875 143 71 c 0
 143 91 150 107.666992188 164 121 c 0
 178 135 194.666992188 142.333007812 214 143 c 0
 234 143 251 135.666992188 265 121 c 0
 279 107 286 90.3330078125 286 71 c 0
 286 51.6669921875 279 35 265 21 c 0
 251 7 234 0 214 0 c 1
 214 0 l 1
357 0 m 1
 337 0 320 7 306 21 c 0
 292 35 285.333007812 51.6669921875 286 71 c 0
 286 91 292.666992188 107.666992188 306 121 c 0
 320 135 337 142.333007812 357 143 c 0
 376.333007812 143 393 135.666992188 407 121 c 0
 421 107 428.333007812 90.3330078125 429 71 c 0
 429 51.6669921875 421.666992188 35 407 21 c 0
 393 7 376.333007812 0 357 0 c 1
 357 0 l 1
500 0 m 1
 480 0 463 7 449 21 c 0
 435 35 428.333007812 51.6669921875 429 71 c 0
 429 91 435.666992188 107.666992188 449 121 c 0
 463 135 480 142.333007812 500 143 c 0
 520 143 537 135.666992188 551 121 c 0
 565 107 571.666992188 90.3330078125 571 71 c 0
 571 51.6669921875 564.333007812 35 551 21 c 0
 537 7 520 0 500 0 c 1
 500 0 l 1
643 0 m 1
 623 0 606 7 592 21 c 0
 578 35 571 51.6669921875 571 71 c 0
 571 91 578 107.666992188 592 121 c 0
 606 135 623 142.333007812 643 143 c 0
 662.333007812 143 679.333007812 135.666992188 694 121 c 0
 708 107 714.666992188 90.3330078125 714 71 c 0
 714 51.6669921875 707.333007812 35 694 21 c 0
 680 7 663 0 643 0 c 1
 643 0 l 1
786 0 m 1
 766.666992188 0 749.666992188 7 735 21 c 0
 721 35 714 51.6669921875 714 71 c 0
 714 91 721 107.666992188 735 121 c 0
 749 135 766 142.333007812 786 143 c 0
 806 143 822.666992188 135.666992188 836 121 c 0
 850 107 857 90.3330078125 857 71 c 0
 857 51.6669921875 850 35 836 21 c 0
 822 7 805.333007812 0 786 0 c 1
 786 0 l 1
71 143 m 1
 51.6669921875 143 35 150 21 164 c 0
 7 178 0 194.666992188 0 214 c 0
 0 234 7 251 21 265 c 0
 35 279 51.6669921875 286 71 286 c 0
 91 286 107.666992188 279 121 265 c 0
 135 251 142.333007812 234 143 214 c 0
 143 194 135.666992188 177.333007812 121 164 c 0
 107 150 90.3330078125 143 71 143 c 1
 71 143 l 1
786 143 m 1
 766.666992188 143 749.666992188 150 735 164 c 0
 721 178 714 194.666992188 714 214 c 0
 714 234 721 251 735 265 c 0
 749 279 766 286 786 286 c 0
 806 286 822.666992188 279 836 265 c 0
 850 251 857 234 857 214 c 0
 857 194 850 177.333007812 836 164 c 0
 822 150 805.333007812 143 786 143 c 1
 786 143 l 1
71 286 m 1
 51.6669921875 286 35 292.666992188 21 306 c 0
 7 320 0 337 0 357 c 0
 0 376.333007812 7 393 21 407 c 0
 35 421 51.6669921875 428.333007812 71 429 c 0
 91 429 107.666992188 421.666992188 121 407 c 0
 135 393 142.333007812 376.333007812 143 357 c 0
 143 337 135.666992188 320 121 306 c 0
 107 292 90.3330078125 285.333007812 71 286 c 1
 71 286 l 1
786 286 m 1
 766.666992188 286 749.666992188 292.666992188 735 306 c 0
 721 320 714 337 714 357 c 0
 714 376.333007812 721 393 735 407 c 0
 749 421 766 428.333007812 786 429 c 0
 806 429 822.666992188 421.666992188 836 407 c 0
 850 393 857 376.333007812 857 357 c 0
 857 337 850 320 836 306 c 0
 822 292 805.333007812 285.333007812 786 286 c 1
 786 286 l 1
71 429 m 1
 51.6669921875 429 35 435.666992188 21 449 c 0
 7 463 0 480 0 500 c 0
 0 520 7 537 21 551 c 0
 35 565 51.6669921875 571.666992188 71 571 c 0
 91 571 107.666992188 564.333007812 121 551 c 0
 135 537 142.333007812 520 143 500 c 0
 143 480 135.666992188 463 121 449 c 0
 107 435 90.3330078125 428.333007812 71 429 c 1
 71 429 l 1
786 429 m 1
 766.666992188 429 749.666992188 435.666992188 735 449 c 0
 721 463 714 480 714 500 c 0
 714 520 721 537 735 551 c 0
 749 565 766 571.666992188 786 571 c 0
 806 571 822.666992188 564.333007812 836 551 c 0
 850 537 857 520 857 500 c 0
 857 480 850 463 836 449 c 0
 822 435 805.333007812 428.333007812 786 429 c 1
 786 429 l 1
71 571 m 1
 51.6669921875 571 35 578 21 592 c 0
 7 606 0 623 0 643 c 0
 0 662.333007812 7 679.333007812 21 694 c 0
 35 708 51.6669921875 714.666992188 71 714 c 0
 91 714 107.666992188 707.333007812 121 694 c 0
 135 680 142.333007812 663 143 643 c 0
 143 623 135.666992188 606 121 592 c 0
 107 578 90.3330078125 571 71 571 c 1
 71 571 l 1
786 571 m 1
 766.666992188 571 749.666992188 578 735 592 c 0
 721 606 714 623 714 643 c 0
 714 662.333007812 721 679.333007812 735 694 c 0
 749 708 766 714.666992188 786 714 c 0
 806 714 822.666992188 707.333007812 836 694 c 0
 850 680 857 663 857 643 c 0
 857 623 850 606 836 592 c 0
 822 578 805.333007812 571 786 571 c 1
 786 571 l 1
71 714 m 1
 51.6669921875 714 35 721 21 735 c 0
 7 749 0 766 0 786 c 0
 0 806 7 822.666992188 21 836 c 0
 35 850 51.6669921875 857 71 857 c 0
 91 857 107.666992188 850 121 836 c 0
 135 822 142.333007812 805.333007812 143 786 c 0
 143 766.666992188 135.666992188 749.666992188 121 735 c 0
 107 721 90.3330078125 714 71 714 c 1
 71 714 l 1
786 714 m 1
 766.666992188 714 749.666992188 721 735 735 c 0
 721 749 714 766 714 786 c 0
 714 806 721 822.666992188 735 836 c 0
 749 850 766 857 786 857 c 0
 806 857 822.666992188 850 836 836 c 0
 850 822 857 805.333007812 857 786 c 0
 857 766.666992188 850 749.666992188 836 735 c 0
 822 721 805.333007812 714 786 714 c 1
 786 714 l 1
71 857 m 1
 51.6669921875 857 35 864 21 878 c 0
 7 892 0 909 0 929 c 0
 0 949 7 965.666992188 21 979 c 0
 35 993 51.6669921875 1000 71 1000 c 0
 91 1000 107.666992188 993 121 979 c 0
 135 965 142.333007812 948.333007812 143 929 c 0
 143 909 135.666992188 892 121 878 c 0
 107 864 90.3330078125 857 71 857 c 1
 71 857 l 1
214 857 m 1
 194 857 177.333007812 864 164 878 c 0
 150 892 143 909 143 929 c 0
 143 949 150 965.666992188 164 979 c 0
 178 993 194.666992188 1000 214 1000 c 0
 234 1000 251 993 265 979 c 0
 279 965 286 948.333007812 286 929 c 0
 286 909 279 892 265 878 c 0
 251 864 234 857 214 857 c 1
 214 857 l 1
357 857 m 1
 337 857 320 864 306 878 c 0
 292 892 285.333007812 909 286 929 c 0
 286 949 292.666992188 965.666992188 306 979 c 0
 320 993 337 1000 357 1000 c 0
 376.333007812 1000 393 993 407 979 c 0
 421 965 428.333007812 948.333007812 429 929 c 0
 429 909 421.666992188 892 407 878 c 0
 393 864 376.333007812 857 357 857 c 1
 357 857 l 1
500 857 m 1
 480 857 463 864 449 878 c 0
 435 892 428.333007812 909 429 929 c 0
 429 949 435.666992188 965.666992188 449 979 c 0
 463 993 480 1000 500 1000 c 0
 520 1000 537 993 551 979 c 0
 565 965 571.666992188 948.333007812 571 929 c 0
 571 909 564.333007812 892 551 878 c 0
 537 864 520 857 500 857 c 1
 500 857 l 1
643 857 m 1
 623 857 606 864 592 878 c 0
 578 892 571 909 571 929 c 0
 571 949 578 965.666992188 592 979 c 0
 606 993 623 1000 643 1000 c 0
 662.333007812 1000 679.333007812 993 694 979 c 0
 708 965 714.666992188 948.333007812 714 929 c 0
 714 909 707.333007812 892 694 878 c 0
 680 864 663 857 643 857 c 1
 643 857 l 1
786 857 m 1
 766.666992188 857 749.666992188 864 735 878 c 0
 721 892 714 909 714 929 c 0
 714 949 721 965.666992188 735 979 c 0
 749 993 766 1000 786 1000 c 0
 806 1000 822.666992188 993 836 979 c 0
 850 965 857 948.333007812 857 929 c 0
 857 909 850 892 836 878 c 0
 822 864 805.333007812 857 786 857 c 1
 786 857 l 1
EndSplineSet
Validated: 524325
EndChar

StartChar: X
Encoding: 88 88 46
Width: 999
GlyphClass: 2
Flags: W
LayerCount: 2
Fore
SplineSet
71 0 m 1
 51.6669921875 0 35 7 21 21 c 0
 7 35 0 51.6669921875 0 71 c 0
 0 91 7 107.666992188 21 121 c 0
 35 135 51.6669921875 142.333007812 71 143 c 0
 91 143 107.666992188 135.666992188 121 121 c 0
 135 107 142.333007812 90.3330078125 143 71 c 0
 143 51.6669921875 135.666992188 35 121 21 c 0
 107 7 90.3330078125 0 71 0 c 1
 71 0 l 1
214 0 m 1
 194 0 177.333007812 7 164 21 c 0
 150 35 143 51.6669921875 143 71 c 0
 143 91 150 107.666992188 164 121 c 0
 178 135 194.666992188 142.333007812 214 143 c 0
 234 143 251 135.666992188 265 121 c 0
 279 107 286 90.3330078125 286 71 c 0
 286 51.6669921875 279 35 265 21 c 0
 251 7 234 0 214 0 c 1
 214 0 l 1
357 0 m 1
 337 0 320 7 306 21 c 0
 292 35 285.333007812 51.6669921875 286 71 c 0
 286 91 292.666992188 107.666992188 306 121 c 0
 320 135 337 142.333007812 357 143 c 0
 376.333007812 143 393 135.666992188 407 121 c 0
 421 107 428.333007812 90.3330078125 429 71 c 0
 429 51.6669921875 421.666992188 35 407 21 c 0
 393 7 376.333007812 0 357 0 c 1
 357 0 l 1
500 0 m 1
 480 0 463 7 449 21 c 0
 435 35 428.333007812 51.6669921875 429 71 c 0
 429 91 435.666992188 107.666992188 449 121 c 0
 463 135 480 142.333007812 500 143 c 0
 520 143 537 135.666992188 551 121 c 0
 565 107 571.666992188 90.3330078125 571 71 c 0
 571 51.6669921875 564.333007812 35 551 21 c 0
 537 7 520 0 500 0 c 1
 500 0 l 1
643 0 m 1
 623 0 606 7 592 21 c 0
 578 35 571 51.6669921875 571 71 c 0
 571 91 578 107.666992188 592 121 c 0
 606 135 623 142.333007812 643 143 c 0
 662.333007812 143 679.333007812 135.666992188 694 121 c 0
 708 107 714.666992188 90.3330078125 714 71 c 0
 714 51.6669921875 707.333007812 35 694 21 c 0
 680 7 663 0 643 0 c 1
 643 0 l 1
786 0 m 1
 766.666992188 0 749.666992188 7 735 21 c 0
 721 35 714 51.6669921875 714 71 c 0
 714 91 721 107.666992188 735 121 c 0
 749 135 766 142.333007812 786 143 c 0
 806 143 822.666992188 135.666992188 836 121 c 0
 850 107 857 90.3330078125 857 71 c 0
 857 51.6669921875 850 35 836 21 c 0
 822 7 805.333007812 0 786 0 c 1
 786 0 l 1
71 143 m 1
 51.6669921875 143 35 150 21 164 c 0
 7 178 0 194.666992188 0 214 c 0
 0 234 7 251 21 265 c 0
 35 279 51.6669921875 286 71 286 c 0
 91 286 107.666992188 279 121 265 c 0
 135 251 142.333007812 234 143 214 c 0
 143 194 135.666992188 177.333007812 121 164 c 0
 107 150 90.3330078125 143 71 143 c 1
 71 143 l 1
643 143 m 1
 623 143 606 150 592 164 c 0
 578 178 571 194.666992188 571 214 c 0
 571 234 578 251 592 265 c 0
 606 279 623 286 643 286 c 0
 662.333007812 286 679.333007812 279 694 265 c 0
 708 251 714.666992188 234 714 214 c 0
 714 194 707.333007812 177.333007812 694 164 c 0
 680 150 663 143 643 143 c 1
 643 143 l 1
71 286 m 1
 51.6669921875 286 35 292.666992188 21 306 c 0
 7 320 0 337 0 357 c 0
 0 376.333007812 7 393 21 407 c 0
 35 421 51.6669921875 428.333007812 71 429 c 0
 91 429 107.666992188 421.666992188 121 407 c 0
 135 393 142.333007812 376.333007812 143 357 c 0
 143 337 135.666992188 320 121 306 c 0
 107 292 90.3330078125 285.333007812 71 286 c 1
 71 286 l 1
643 286 m 1
 623 286 606 292.666992188 592 306 c 0
 578 320 571 337 571 357 c 0
 571 376.333007812 578 393 592 407 c 0
 606 421 623 428.333007812 643 429 c 0
 662.333007812 429 679.333007812 421.666992188 694 407 c 0
 708 393 714.666992188 376.333007812 714 357 c 0
 714 337 707.333007812 320 694 306 c 0
 680 292 663 285.333007812 643 286 c 1
 643 286 l 1
214 429 m 1
 194 429 177.333007812 435.666992188 164 449 c 0
 150 463 143 480 143 500 c 0
 143 520 150 537 164 551 c 0
 178 565 194.666992188 571.666992188 214 571 c 0
 234 571 251 564.333007812 265 551 c 0
 279 537 286 520 286 500 c 0
 286 480 279 463 265 449 c 0
 251 435 234 428.333007812 214 429 c 1
 214 429 l 1
500 429 m 1
 480 429 463 435.666992188 449 449 c 0
 435 463 428.333007812 480 429 500 c 0
 429 520 435.666992188 537 449 551 c 0
 463 565 480 571.666992188 500 571 c 0
 520 571 537 564.333007812 551 551 c 0
 565 537 571.666992188 520 571 500 c 0
 571 480 564.333007812 463 551 449 c 0
 537 435 520 428.333007812 500 429 c 1
 500 429 l 1
214 571 m 1
 194 571 177.333007812 578 164 592 c 0
 150 606 143 623 143 643 c 0
 143 662.333007812 150 679.333007812 164 694 c 0
 178 708 194.666992188 714.666992188 214 714 c 0
 234 714 251 707.333007812 265 694 c 0
 279 680 286 663 286 643 c 0
 286 623 279 606 265 592 c 0
 251 578 234 571 214 571 c 1
 214 571 l 1
500 571 m 1
 480 571 463 578 449 592 c 0
 435 606 428.333007812 623 429 643 c 0
 429 662.333007812 435.666992188 679.333007812 449 694 c 0
 463 708 480 714.666992188 500 714 c 0
 520 714 537 707.333007812 551 694 c 0
 565 680 571.666992188 663 571 643 c 0
 571 623 564.333007812 606 551 592 c 0
 537 578 520 571 500 571 c 1
 500 571 l 1
357 714 m 1
 337 714 320 721 306 735 c 0
 292 749 285.333007812 766 286 786 c 0
 286 806 292.666992188 822.666992188 306 836 c 0
 320 850 337 857 357 857 c 0
 376.333007812 857 393 850 407 836 c 0
 421 822 428.333007812 805.333007812 429 786 c 0
 429 766.666992188 421.666992188 749.666992188 407 735 c 0
 393 721 376.333007812 714 357 714 c 1
 357 714 l 1
357 857 m 1
 337 857 320 864 306 878 c 0
 292 892 285.333007812 909 286 929 c 0
 286 949 292.666992188 965.666992188 306 979 c 0
 320 993 337 1000 357 1000 c 0
 376.333007812 1000 393 993 407 979 c 0
 421 965 428.333007812 948.333007812 429 929 c 0
 429 909 421.666992188 892 407 878 c 0
 393 864 376.333007812 857 357 857 c 1
 357 857 l 1
EndSplineSet
Validated: 524325
EndChar

StartChar: Y
Encoding: 89 89 47
Width: 999
GlyphClass: 2
Flags: W
LayerCount: 2
Fore
SplineSet
357 0 m 1
 337 0 320 7 306 21 c 0
 292 35 285.333007812 51.6669921875 286 71 c 0
 286 91 292.666992188 107.666992188 306 121 c 0
 320 135 337 142.333007812 357 143 c 0
 376.333007812 143 393 135.666992188 407 121 c 0
 421 107 428.333007812 90.3330078125 429 71 c 0
 429 51.6669921875 421.666992188 35 407 21 c 0
 393 7 376.333007812 0 357 0 c 1
 357 0 l 1
214 143 m 1
 194 143 177.333007812 150 164 164 c 0
 150 178 143 194.666992188 143 214 c 0
 143 234 150 251 164 265 c 0
 178 279 194.666992188 286 214 286 c 0
 234 286 251 279 265 265 c 0
 279 251 286 234 286 214 c 0
 286 194 279 177.333007812 265 164 c 0
 251 150 234 143 214 143 c 1
 214 143 l 1
500 143 m 1
 480 143 463 150 449 164 c 0
 435 178 428.333007812 194.666992188 429 214 c 0
 429 234 435.666992188 251 449 265 c 0
 463 279 480 286 500 286 c 0
 520 286 537 279 551 265 c 0
 565 251 571.666992188 234 571 214 c 0
 571 194 564.333007812 177.333007812 551 164 c 0
 537 150 520 143 500 143 c 1
 500 143 l 1
71 286 m 1
 51.6669921875 286 35 292.666992188 21 306 c 0
 7 320 0 337 0 357 c 0
 0 376.333007812 7 393 21 407 c 0
 35 421 51.6669921875 428.333007812 71 429 c 0
 91 429 107.666992188 421.666992188 121 407 c 0
 135 393 142.333007812 376.333007812 143 357 c 0
 143 337 135.666992188 320 121 306 c 0
 107 292 90.3330078125 285.333007812 71 286 c 1
 71 286 l 1
643 286 m 1
 623 286 606 292.666992188 592 306 c 0
 578 320 571 337 571 357 c 0
 571 376.333007812 578 393 592 407 c 0
 606 421 623 428.333007812 643 429 c 0
 662.333007812 429 679.333007812 421.666992188 694 407 c 0
 708 393 714.666992188 376.333007812 714 357 c 0
 714 337 707.333007812 320 694 306 c 0
 680 292 663 285.333007812 643 286 c 1
 643 286 l 1
71 429 m 1
 51.6669921875 429 35 435.666992188 21 449 c 0
 7 463 0 480 0 500 c 0
 0 520 7 537 21 551 c 0
 35 565 51.6669921875 571.666992188 71 571 c 0
 91 571 107.666992188 564.333007812 121 551 c 0
 135 537 142.333007812 520 143 500 c 0
 143 480 135.666992188 463 121 449 c 0
 107 435 90.3330078125 428.333007812 71 429 c 1
 71 429 l 1
643 429 m 1
 623 429 606 435.666992188 592 449 c 0
 578 463 571 480 571 500 c 0
 571 520 578 537 592 551 c 0
 606 565 623 571.666992188 643 571 c 0
 662.333007812 571 679.333007812 564.333007812 694 551 c 0
 708 537 714.666992188 520 714 500 c 0
 714 480 707.333007812 463 694 449 c 0
 680 435 663 428.333007812 643 429 c 1
 643 429 l 1
71 571 m 1
 51.6669921875 571 35 578 21 592 c 0
 7 606 0 623 0 643 c 0
 0 662.333007812 7 679.333007812 21 694 c 0
 35 708 51.6669921875 714.666992188 71 714 c 0
 91 714 107.666992188 707.333007812 121 694 c 0
 135 680 142.333007812 663 143 643 c 0
 143 623 135.666992188 606 121 592 c 0
 107 578 90.3330078125 571 71 571 c 1
 71 571 l 1
357 571 m 1
 337 571 320 578 306 592 c 0
 292 606 285.333007812 623 286 643 c 0
 286 662.333007812 292.666992188 679.333007812 306 694 c 0
 320 708 337 714.666992188 357 714 c 0
 376.333007812 714 393 707.333007812 407 694 c 0
 421 680 428.333007812 663 429 643 c 0
 429 623 421.666992188 606 407 592 c 0
 393 578 376.333007812 571 357 571 c 1
 357 571 l 1
643 571 m 1
 623 571 606 578 592 592 c 0
 578 606 571 623 571 643 c 0
 571 662.333007812 578 679.333007812 592 694 c 0
 606 708 623 714.666992188 643 714 c 0
 662.333007812 714 679.333007812 707.333007812 694 694 c 0
 708 680 714.666992188 663 714 643 c 0
 714 623 707.333007812 606 694 592 c 0
 680 578 663 571 643 571 c 1
 643 571 l 1
71 714 m 1
 51.6669921875 714 35 721 21 735 c 0
 7 749 0 766 0 786 c 0
 0 806 7 822.666992188 21 836 c 0
 35 850 51.6669921875 857 71 857 c 0
 91 857 107.666992188 850 121 836 c 0
 135 822 142.333007812 805.333007812 143 786 c 0
 143 766.666992188 135.666992188 749.666992188 121 735 c 0
 107 721 90.3330078125 714 71 714 c 1
 71 714 l 1
357 714 m 1
 337 714 320 721 306 735 c 0
 292 749 285.333007812 766 286 786 c 0
 286 806 292.666992188 822.666992188 306 836 c 0
 320 850 337 857 357 857 c 0
 376.333007812 857 393 850 407 836 c 0
 421 822 428.333007812 805.333007812 429 786 c 0
 429 766.666992188 421.666992188 749.666992188 407 735 c 0
 393 721 376.333007812 714 357 714 c 1
 357 714 l 1
643 714 m 1
 623 714 606 721 592 735 c 0
 578 749 571 766 571 786 c 0
 571 806 578 822.666992188 592 836 c 0
 606 850 623 857 643 857 c 0
 662.333007812 857 679.333007812 850 694 836 c 0
 708 822 714.666992188 805.333007812 714 786 c 0
 714 766.666992188 707.333007812 749.666992188 694 735 c 0
 680 721 663 714 643 714 c 1
 643 714 l 1
71 857 m 1
 51.6669921875 857 35 864 21 878 c 0
 7 892 0 909 0 929 c 0
 0 949 7 965.666992188 21 979 c 0
 35 993 51.6669921875 1000 71 1000 c 0
 91 1000 107.666992188 993 121 979 c 0
 135 965 142.333007812 948.333007812 143 929 c 0
 143 909 135.666992188 892 121 878 c 0
 107 864 90.3330078125 857 71 857 c 1
 71 857 l 1
214 857 m 1
 194 857 177.333007812 864 164 878 c 0
 150 892 143 909 143 929 c 0
 143 949 150 965.666992188 164 979 c 0
 178 993 194.666992188 1000 214 1000 c 0
 234 1000 251 993 265 979 c 0
 279 965 286 948.333007812 286 929 c 0
 286 909 279 892 265 878 c 0
 251 864 234 857 214 857 c 1
 214 857 l 1
643 857 m 1
 623 857 606 864 592 878 c 0
 578 892 571 909 571 929 c 0
 571 949 578 965.666992188 592 979 c 0
 606 993 623 1000 643 1000 c 0
 662.333007812 1000 679.333007812 993 694 979 c 0
 708 965 714.666992188 948.333007812 714 929 c 0
 714 909 707.333007812 892 694 878 c 0
 680 864 663 857 643 857 c 1
 643 857 l 1
786 857 m 1
 766.666992188 857 749.666992188 864 735 878 c 0
 721 892 714 909 714 929 c 0
 714 949 721 965.666992188 735 979 c 0
 749 993 766 1000 786 1000 c 0
 806 1000 822.666992188 993 836 979 c 0
 850 965 857 948.333007812 857 929 c 0
 857 909 850 892 836 878 c 0
 822 864 805.333007812 857 786 857 c 1
 786 857 l 1
EndSplineSet
Validated: 524325
EndChar

